ISO-10303-21;
HEADER;
/* Generated by software containing ST-Developer
 * from STEP Tools, Inc. (www.steptools.com) 
 */

FILE_DESCRIPTION(
/* description */ (''),
/* implementation_level */ '2;1');

FILE_NAME(
/* name */ 'head-back-cover.step',
/* time_stamp */ '2026-09-16T14:18:45+01:00',
/* author */ (''),
/* organization */ (''),
/* preprocessor_version */ 'ST-DEVELOPER v20.2',
/* originating_system */ 'Autodesk Translation Framework v15.15.0.0',
/* authorisation */ '');

FILE_SCHEMA (('AUTOMOTIVE_DESIGN { 1 0 10303 214 3 1 1 }'));
ENDSEC;

DATA;
#10=MECHANICAL_DESIGN_GEOMETRIC_PRESENTATION_REPRESENTATION('',(#13),#1911);
#11=SHAPE_REPRESENTATION_RELATIONSHIP('SRR','None',#1918,#12);
#12=ADVANCED_BREP_SHAPE_REPRESENTATION('',(#14),#1910);
#13=STYLED_ITEM('',(#1927),#14);
#14=MANIFOLD_SOLID_BREP('Head back cover',#1131);
#15=FACE_BOUND('',#170,.T.);
#16=FACE_BOUND('',#174,.T.);
#17=FACE_BOUND('',#178,.T.);
#18=FACE_BOUND('',#182,.T.);
#19=FACE_BOUND('',#186,.T.);
#20=FACE_BOUND('',#187,.T.);
#21=FACE_BOUND('',#188,.T.);
#22=FACE_BOUND('',#189,.T.);
#23=FACE_BOUND('',#190,.T.);
#24=FACE_BOUND('',#191,.T.);
#25=FACE_BOUND('',#192,.T.);
#26=FACE_BOUND('',#193,.T.);
#27=FACE_BOUND('',#194,.T.);
#28=FACE_BOUND('',#195,.T.);
#29=FACE_BOUND('',#196,.T.);
#30=FACE_BOUND('',#197,.T.);
#31=FACE_BOUND('',#202,.T.);
#32=FACE_BOUND('',#203,.T.);
#33=FACE_BOUND('',#204,.T.);
#34=FACE_BOUND('',#205,.T.);
#35=FACE_BOUND('',#206,.T.);
#36=FACE_BOUND('',#207,.T.);
#37=FACE_BOUND('',#208,.T.);
#38=FACE_BOUND('',#209,.T.);
#39=FACE_BOUND('',#210,.T.);
#40=FACE_BOUND('',#211,.T.);
#41=FACE_BOUND('',#212,.T.);
#42=FACE_BOUND('',#213,.T.);
#43=PLANE('',#1148);
#44=PLANE('',#1152);
#45=PLANE('',#1156);
#46=PLANE('',#1160);
#47=PLANE('',#1164);
#48=PLANE('',#1168);
#49=PLANE('',#1172);
#50=PLANE('',#1176);
#51=PLANE('',#1180);
#52=PLANE('',#1184);
#53=PLANE('',#1188);
#54=PLANE('',#1192);
#55=PLANE('',#1196);
#56=PLANE('',#1200);
#57=PLANE('',#1204);
#58=PLANE('',#1208);
#59=PLANE('',#1209);
#60=PLANE('',#1210);
#61=PLANE('',#1211);
#62=PLANE('',#1212);
#63=PLANE('',#1213);
#64=PLANE('',#1217);
#65=PLANE('',#1224);
#66=PLANE('',#1231);
#67=PLANE('',#1238);
#68=PLANE('',#1245);
#69=PLANE('',#1255);
#70=PLANE('',#1256);
#71=PLANE('',#1257);
#72=PLANE('',#1258);
#73=FACE_OUTER_BOUND('',#131,.T.);
#74=FACE_OUTER_BOUND('',#132,.T.);
#75=FACE_OUTER_BOUND('',#133,.T.);
#76=FACE_OUTER_BOUND('',#134,.T.);
#77=FACE_OUTER_BOUND('',#135,.T.);
#78=FACE_OUTER_BOUND('',#136,.T.);
#79=FACE_OUTER_BOUND('',#137,.T.);
#80=FACE_OUTER_BOUND('',#138,.T.);
#81=FACE_OUTER_BOUND('',#139,.T.);
#82=FACE_OUTER_BOUND('',#140,.T.);
#83=FACE_OUTER_BOUND('',#141,.T.);
#84=FACE_OUTER_BOUND('',#142,.T.);
#85=FACE_OUTER_BOUND('',#143,.T.);
#86=FACE_OUTER_BOUND('',#144,.T.);
#87=FACE_OUTER_BOUND('',#145,.T.);
#88=FACE_OUTER_BOUND('',#146,.T.);
#89=FACE_OUTER_BOUND('',#147,.T.);
#90=FACE_OUTER_BOUND('',#148,.T.);
#91=FACE_OUTER_BOUND('',#149,.T.);
#92=FACE_OUTER_BOUND('',#150,.T.);
#93=FACE_OUTER_BOUND('',#151,.T.);
#94=FACE_OUTER_BOUND('',#152,.T.);
#95=FACE_OUTER_BOUND('',#153,.T.);
#96=FACE_OUTER_BOUND('',#154,.T.);
#97=FACE_OUTER_BOUND('',#155,.T.);
#98=FACE_OUTER_BOUND('',#156,.T.);
#99=FACE_OUTER_BOUND('',#157,.T.);
#100=FACE_OUTER_BOUND('',#158,.T.);
#101=FACE_OUTER_BOUND('',#159,.T.);
#102=FACE_OUTER_BOUND('',#160,.T.);
#103=FACE_OUTER_BOUND('',#161,.T.);
#104=FACE_OUTER_BOUND('',#162,.T.);
#105=FACE_OUTER_BOUND('',#163,.T.);
#106=FACE_OUTER_BOUND('',#164,.T.);
#107=FACE_OUTER_BOUND('',#165,.T.);
#108=FACE_OUTER_BOUND('',#166,.T.);
#109=FACE_OUTER_BOUND('',#167,.T.);
#110=FACE_OUTER_BOUND('',#168,.T.);
#111=FACE_OUTER_BOUND('',#169,.T.);
#112=FACE_OUTER_BOUND('',#171,.T.);
#113=FACE_OUTER_BOUND('',#172,.T.);
#114=FACE_OUTER_BOUND('',#173,.T.);
#115=FACE_OUTER_BOUND('',#175,.T.);
#116=FACE_OUTER_BOUND('',#176,.T.);
#117=FACE_OUTER_BOUND('',#177,.T.);
#118=FACE_OUTER_BOUND('',#179,.T.);
#119=FACE_OUTER_BOUND('',#180,.T.);
#120=FACE_OUTER_BOUND('',#181,.T.);
#121=FACE_OUTER_BOUND('',#183,.T.);
#122=FACE_OUTER_BOUND('',#184,.T.);
#123=FACE_OUTER_BOUND('',#185,.T.);
#124=FACE_OUTER_BOUND('',#198,.T.);
#125=FACE_OUTER_BOUND('',#199,.T.);
#126=FACE_OUTER_BOUND('',#200,.T.);
#127=FACE_OUTER_BOUND('',#201,.T.);
#128=FACE_OUTER_BOUND('',#214,.T.);
#129=FACE_OUTER_BOUND('',#215,.T.);
#130=FACE_OUTER_BOUND('',#216,.T.);
#131=EDGE_LOOP('',(#733,#734,#735,#736));
#132=EDGE_LOOP('',(#737,#738,#739,#740));
#133=EDGE_LOOP('',(#741,#742,#743,#744));
#134=EDGE_LOOP('',(#745,#746,#747,#748));
#135=EDGE_LOOP('',(#749,#750,#751,#752));
#136=EDGE_LOOP('',(#753,#754,#755,#756));
#137=EDGE_LOOP('',(#757,#758,#759,#760));
#138=EDGE_LOOP('',(#761,#762,#763,#764));
#139=EDGE_LOOP('',(#765,#766,#767,#768));
#140=EDGE_LOOP('',(#769,#770,#771,#772));
#141=EDGE_LOOP('',(#773,#774,#775,#776));
#142=EDGE_LOOP('',(#777,#778,#779,#780));
#143=EDGE_LOOP('',(#781,#782,#783,#784));
#144=EDGE_LOOP('',(#785,#786,#787,#788));
#145=EDGE_LOOP('',(#789,#790,#791,#792));
#146=EDGE_LOOP('',(#793,#794,#795,#796));
#147=EDGE_LOOP('',(#797,#798,#799,#800));
#148=EDGE_LOOP('',(#801,#802,#803,#804));
#149=EDGE_LOOP('',(#805,#806,#807,#808));
#150=EDGE_LOOP('',(#809,#810,#811,#812));
#151=EDGE_LOOP('',(#813,#814,#815,#816));
#152=EDGE_LOOP('',(#817,#818,#819,#820));
#153=EDGE_LOOP('',(#821,#822,#823,#824));
#154=EDGE_LOOP('',(#825,#826,#827,#828));
#155=EDGE_LOOP('',(#829,#830,#831,#832));
#156=EDGE_LOOP('',(#833,#834,#835,#836));
#157=EDGE_LOOP('',(#837,#838,#839,#840));
#158=EDGE_LOOP('',(#841,#842,#843,#844));
#159=EDGE_LOOP('',(#845,#846,#847,#848));
#160=EDGE_LOOP('',(#849,#850,#851,#852));
#161=EDGE_LOOP('',(#853,#854,#855,#856));
#162=EDGE_LOOP('',(#857,#858,#859,#860));
#163=EDGE_LOOP('',(#861,#862,#863,#864));
#164=EDGE_LOOP('',(#865,#866,#867,#868));
#165=EDGE_LOOP('',(#869,#870,#871,#872));
#166=EDGE_LOOP('',(#873,#874,#875,#876));
#167=EDGE_LOOP('',(#877,#878,#879,#880,#881,#882,#883,#884));
#168=EDGE_LOOP('',(#885,#886,#887,#888));
#169=EDGE_LOOP('',(#889));
#170=EDGE_LOOP('',(#890));
#171=EDGE_LOOP('',(#891,#892,#893,#894));
#172=EDGE_LOOP('',(#895,#896,#897,#898));
#173=EDGE_LOOP('',(#899));
#174=EDGE_LOOP('',(#900));
#175=EDGE_LOOP('',(#901,#902,#903,#904));
#176=EDGE_LOOP('',(#905,#906,#907,#908));
#177=EDGE_LOOP('',(#909));
#178=EDGE_LOOP('',(#910));
#179=EDGE_LOOP('',(#911,#912,#913,#914));
#180=EDGE_LOOP('',(#915,#916,#917,#918));
#181=EDGE_LOOP('',(#919));
#182=EDGE_LOOP('',(#920));
#183=EDGE_LOOP('',(#921,#922,#923,#924));
#184=EDGE_LOOP('',(#925,#926,#927,#928));
#185=EDGE_LOOP('',(#929,#930,#931,#932,#933,#934,#935,#936,#937,#938,#939,
#940));
#186=EDGE_LOOP('',(#941,#942,#943,#944));
#187=EDGE_LOOP('',(#945,#946,#947,#948));
#188=EDGE_LOOP('',(#949));
#189=EDGE_LOOP('',(#950));
#190=EDGE_LOOP('',(#951));
#191=EDGE_LOOP('',(#952));
#192=EDGE_LOOP('',(#953,#954,#955,#956));
#193=EDGE_LOOP('',(#957,#958,#959,#960));
#194=EDGE_LOOP('',(#961,#962,#963,#964));
#195=EDGE_LOOP('',(#965,#966,#967,#968));
#196=EDGE_LOOP('',(#969,#970,#971,#972));
#197=EDGE_LOOP('',(#973,#974,#975,#976));
#198=EDGE_LOOP('',(#977,#978,#979,#980));
#199=EDGE_LOOP('',(#981,#982,#983,#984));
#200=EDGE_LOOP('',(#985,#986,#987,#988));
#201=EDGE_LOOP('',(#989,#990,#991,#992,#993,#994,#995,#996));
#202=EDGE_LOOP('',(#997,#998,#999,#1000));
#203=EDGE_LOOP('',(#1001,#1002,#1003,#1004));
#204=EDGE_LOOP('',(#1005));
#205=EDGE_LOOP('',(#1006));
#206=EDGE_LOOP('',(#1007));
#207=EDGE_LOOP('',(#1008));
#208=EDGE_LOOP('',(#1009,#1010,#1011,#1012));
#209=EDGE_LOOP('',(#1013,#1014,#1015,#1016));
#210=EDGE_LOOP('',(#1017,#1018,#1019,#1020));
#211=EDGE_LOOP('',(#1021,#1022,#1023,#1024));
#212=EDGE_LOOP('',(#1025,#1026,#1027,#1028));
#213=EDGE_LOOP('',(#1029,#1030,#1031,#1032));
#214=EDGE_LOOP('',(#1033,#1034,#1035,#1036));
#215=EDGE_LOOP('',(#1037,#1038,#1039,#1040));
#216=EDGE_LOOP('',(#1041,#1042,#1043,#1044));
#217=LINE('',#1595,#317);
#218=LINE('',#1598,#318);
#219=LINE('',#1601,#319);
#220=LINE('',#1603,#320);
#221=LINE('',#1604,#321);
#222=LINE('',#1610,#322);
#223=LINE('',#1612,#323);
#224=LINE('',#1613,#324);
#225=LINE('',#1619,#325);
#226=LINE('',#1622,#326);
#227=LINE('',#1625,#327);
#228=LINE('',#1627,#328);
#229=LINE('',#1628,#329);
#230=LINE('',#1634,#330);
#231=LINE('',#1636,#331);
#232=LINE('',#1637,#332);
#233=LINE('',#1643,#333);
#234=LINE('',#1646,#334);
#235=LINE('',#1649,#335);
#236=LINE('',#1651,#336);
#237=LINE('',#1652,#337);
#238=LINE('',#1658,#338);
#239=LINE('',#1660,#339);
#240=LINE('',#1661,#340);
#241=LINE('',#1667,#341);
#242=LINE('',#1670,#342);
#243=LINE('',#1673,#343);
#244=LINE('',#1675,#344);
#245=LINE('',#1676,#345);
#246=LINE('',#1682,#346);
#247=LINE('',#1684,#347);
#248=LINE('',#1685,#348);
#249=LINE('',#1691,#349);
#250=LINE('',#1694,#350);
#251=LINE('',#1697,#351);
#252=LINE('',#1699,#352);
#253=LINE('',#1700,#353);
#254=LINE('',#1706,#354);
#255=LINE('',#1708,#355);
#256=LINE('',#1709,#356);
#257=LINE('',#1715,#357);
#258=LINE('',#1718,#358);
#259=LINE('',#1721,#359);
#260=LINE('',#1723,#360);
#261=LINE('',#1724,#361);
#262=LINE('',#1730,#362);
#263=LINE('',#1732,#363);
#264=LINE('',#1733,#364);
#265=LINE('',#1739,#365);
#266=LINE('',#1742,#366);
#267=LINE('',#1745,#367);
#268=LINE('',#1747,#368);
#269=LINE('',#1748,#369);
#270=LINE('',#1754,#370);
#271=LINE('',#1756,#371);
#272=LINE('',#1757,#372);
#273=LINE('',#1763,#373);
#274=LINE('',#1766,#374);
#275=LINE('',#1769,#375);
#276=LINE('',#1771,#376);
#277=LINE('',#1772,#377);
#278=LINE('',#1778,#378);
#279=LINE('',#1780,#379);
#280=LINE('',#1781,#380);
#281=LINE('',#1785,#381);
#282=LINE('',#1787,#382);
#283=LINE('',#1789,#383);
#284=LINE('',#1790,#384);
#285=LINE('',#1793,#385);
#286=LINE('',#1795,#386);
#287=LINE('',#1796,#387);
#288=LINE('',#1799,#388);
#289=LINE('',#1800,#389);
#290=LINE('',#1803,#390);
#291=LINE('',#1804,#391);
#292=LINE('',#1807,#392);
#293=LINE('',#1809,#393);
#294=LINE('',#1811,#394);
#295=LINE('',#1813,#395);
#296=LINE('',#1814,#396);
#297=LINE('',#1819,#397);
#298=LINE('',#1826,#398);
#299=LINE('',#1832,#399);
#300=LINE('',#1839,#400);
#301=LINE('',#1845,#401);
#302=LINE('',#1852,#402);
#303=LINE('',#1858,#403);
#304=LINE('',#1865,#404);
#305=LINE('',#1870,#405);
#306=LINE('',#1874,#406);
#307=LINE('',#1879,#407);
#308=LINE('',#1881,#408);
#309=LINE('',#1885,#409);
#310=LINE('',#1889,#410);
#311=LINE('',#1892,#411);
#312=LINE('',#1896,#412);
#313=LINE('',#1899,#413);
#314=LINE('',#1902,#414);
#315=LINE('',#1903,#415);
#316=LINE('',#1904,#416);
#317=VECTOR('',#1265,10.);
#318=VECTOR('',#1268,10.);
#319=VECTOR('',#1271,10.);
#320=VECTOR('',#1272,10.);
#321=VECTOR('',#1273,10.);
#322=VECTOR('',#1280,10.);
#323=VECTOR('',#1283,10.);
#324=VECTOR('',#1284,10.);
#325=VECTOR('',#1289,10.);
#326=VECTOR('',#1292,10.);
#327=VECTOR('',#1295,10.);
#328=VECTOR('',#1296,10.);
#329=VECTOR('',#1297,10.);
#330=VECTOR('',#1304,10.);
#331=VECTOR('',#1307,10.);
#332=VECTOR('',#1308,10.);
#333=VECTOR('',#1313,10.);
#334=VECTOR('',#1316,10.);
#335=VECTOR('',#1319,10.);
#336=VECTOR('',#1320,10.);
#337=VECTOR('',#1321,10.);
#338=VECTOR('',#1328,10.);
#339=VECTOR('',#1331,10.);
#340=VECTOR('',#1332,10.);
#341=VECTOR('',#1337,10.);
#342=VECTOR('',#1340,10.);
#343=VECTOR('',#1343,10.);
#344=VECTOR('',#1344,10.);
#345=VECTOR('',#1345,10.);
#346=VECTOR('',#1352,10.);
#347=VECTOR('',#1355,10.);
#348=VECTOR('',#1356,10.);
#349=VECTOR('',#1361,10.);
#350=VECTOR('',#1364,10.);
#351=VECTOR('',#1367,10.);
#352=VECTOR('',#1368,10.);
#353=VECTOR('',#1369,10.);
#354=VECTOR('',#1376,10.);
#355=VECTOR('',#1379,10.);
#356=VECTOR('',#1380,10.);
#357=VECTOR('',#1385,10.);
#358=VECTOR('',#1388,10.);
#359=VECTOR('',#1391,10.);
#360=VECTOR('',#1392,10.);
#361=VECTOR('',#1393,10.);
#362=VECTOR('',#1400,10.);
#363=VECTOR('',#1403,10.);
#364=VECTOR('',#1404,10.);
#365=VECTOR('',#1409,10.);
#366=VECTOR('',#1412,10.);
#367=VECTOR('',#1415,10.);
#368=VECTOR('',#1416,10.);
#369=VECTOR('',#1417,10.);
#370=VECTOR('',#1424,10.);
#371=VECTOR('',#1427,10.);
#372=VECTOR('',#1428,10.);
#373=VECTOR('',#1433,10.);
#374=VECTOR('',#1436,10.);
#375=VECTOR('',#1439,10.);
#376=VECTOR('',#1440,10.);
#377=VECTOR('',#1441,10.);
#378=VECTOR('',#1448,10.);
#379=VECTOR('',#1451,10.);
#380=VECTOR('',#1452,10.);
#381=VECTOR('',#1455,10.);
#382=VECTOR('',#1456,10.);
#383=VECTOR('',#1457,10.);
#384=VECTOR('',#1458,10.);
#385=VECTOR('',#1461,10.);
#386=VECTOR('',#1462,10.);
#387=VECTOR('',#1463,10.);
#388=VECTOR('',#1466,10.);
#389=VECTOR('',#1467,10.);
#390=VECTOR('',#1470,10.);
#391=VECTOR('',#1471,10.);
#392=VECTOR('',#1474,10.);
#393=VECTOR('',#1475,10.);
#394=VECTOR('',#1476,10.);
#395=VECTOR('',#1477,10.);
#396=VECTOR('',#1478,10.);
#397=VECTOR('',#1483,3.1);
#398=VECTOR('',#1492,1.7);
#399=VECTOR('',#1499,3.1);
#400=VECTOR('',#1508,1.7);
#401=VECTOR('',#1515,3.1);
#402=VECTOR('',#1524,1.7);
#403=VECTOR('',#1531,3.1);
#404=VECTOR('',#1540,1.7);
#405=VECTOR('',#1545,10.);
#406=VECTOR('',#1548,10.);
#407=VECTOR('',#1555,10.);
#408=VECTOR('',#1556,10.);
#409=VECTOR('',#1559,10.);
#410=VECTOR('',#1564,10.);
#411=VECTOR('',#1567,10.);
#412=VECTOR('',#1572,10.);
#413=VECTOR('',#1575,10.);
#414=VECTOR('',#1580,10.);
#415=VECTOR('',#1581,10.);
#416=VECTOR('',#1582,10.);
#417=CIRCLE('',#1146,1.1);
#418=CIRCLE('',#1147,1.1);
#419=CIRCLE('',#1150,1.1);
#420=CIRCLE('',#1151,1.1);
#421=CIRCLE('',#1154,1.1);
#422=CIRCLE('',#1155,1.1);
#423=CIRCLE('',#1158,1.1);
#424=CIRCLE('',#1159,1.1);
#425=CIRCLE('',#1162,1.1);
#426=CIRCLE('',#1163,1.1);
#427=CIRCLE('',#1166,1.1);
#428=CIRCLE('',#1167,1.1);
#429=CIRCLE('',#1170,1.1);
#430=CIRCLE('',#1171,1.1);
#431=CIRCLE('',#1174,1.1);
#432=CIRCLE('',#1175,1.1);
#433=CIRCLE('',#1178,1.1);
#434=CIRCLE('',#1179,1.1);
#435=CIRCLE('',#1182,1.1);
#436=CIRCLE('',#1183,1.1);
#437=CIRCLE('',#1186,1.1);
#438=CIRCLE('',#1187,1.1);
#439=CIRCLE('',#1190,1.1);
#440=CIRCLE('',#1191,1.1);
#441=CIRCLE('',#1194,1.1);
#442=CIRCLE('',#1195,1.1);
#443=CIRCLE('',#1198,1.1);
#444=CIRCLE('',#1199,1.1);
#445=CIRCLE('',#1202,1.1);
#446=CIRCLE('',#1203,1.1);
#447=CIRCLE('',#1206,1.1);
#448=CIRCLE('',#1207,1.1);
#449=CIRCLE('',#1215,3.1);
#450=CIRCLE('',#1216,3.1);
#451=CIRCLE('',#1218,1.7);
#452=CIRCLE('',#1220,1.7);
#453=CIRCLE('',#1222,3.1);
#454=CIRCLE('',#1223,3.1);
#455=CIRCLE('',#1225,1.7);
#456=CIRCLE('',#1227,1.7);
#457=CIRCLE('',#1229,3.1);
#458=CIRCLE('',#1230,3.1);
#459=CIRCLE('',#1232,1.7);
#460=CIRCLE('',#1234,1.7);
#461=CIRCLE('',#1236,3.1);
#462=CIRCLE('',#1237,3.1);
#463=CIRCLE('',#1239,1.7);
#464=CIRCLE('',#1241,1.7);
#465=CIRCLE('',#1243,2.8);
#466=CIRCLE('',#1244,2.8);
#467=CIRCLE('',#1246,2.8);
#468=CIRCLE('',#1247,2.8);
#469=CIRCLE('',#1248,2.8);
#470=CIRCLE('',#1250,2.8);
#471=CIRCLE('',#1252,2.8);
#472=CIRCLE('',#1254,2.8);
#473=VERTEX_POINT('',#1591);
#474=VERTEX_POINT('',#1592);
#475=VERTEX_POINT('',#1594);
#476=VERTEX_POINT('',#1596);
#477=VERTEX_POINT('',#1600);
#478=VERTEX_POINT('',#1602);
#479=VERTEX_POINT('',#1606);
#480=VERTEX_POINT('',#1608);
#481=VERTEX_POINT('',#1615);
#482=VERTEX_POINT('',#1616);
#483=VERTEX_POINT('',#1618);
#484=VERTEX_POINT('',#1620);
#485=VERTEX_POINT('',#1624);
#486=VERTEX_POINT('',#1626);
#487=VERTEX_POINT('',#1630);
#488=VERTEX_POINT('',#1632);
#489=VERTEX_POINT('',#1639);
#490=VERTEX_POINT('',#1640);
#491=VERTEX_POINT('',#1642);
#492=VERTEX_POINT('',#1644);
#493=VERTEX_POINT('',#1648);
#494=VERTEX_POINT('',#1650);
#495=VERTEX_POINT('',#1654);
#496=VERTEX_POINT('',#1656);
#497=VERTEX_POINT('',#1663);
#498=VERTEX_POINT('',#1664);
#499=VERTEX_POINT('',#1666);
#500=VERTEX_POINT('',#1668);
#501=VERTEX_POINT('',#1672);
#502=VERTEX_POINT('',#1674);
#503=VERTEX_POINT('',#1678);
#504=VERTEX_POINT('',#1680);
#505=VERTEX_POINT('',#1687);
#506=VERTEX_POINT('',#1688);
#507=VERTEX_POINT('',#1690);
#508=VERTEX_POINT('',#1692);
#509=VERTEX_POINT('',#1696);
#510=VERTEX_POINT('',#1698);
#511=VERTEX_POINT('',#1702);
#512=VERTEX_POINT('',#1704);
#513=VERTEX_POINT('',#1711);
#514=VERTEX_POINT('',#1712);
#515=VERTEX_POINT('',#1714);
#516=VERTEX_POINT('',#1716);
#517=VERTEX_POINT('',#1720);
#518=VERTEX_POINT('',#1722);
#519=VERTEX_POINT('',#1726);
#520=VERTEX_POINT('',#1728);
#521=VERTEX_POINT('',#1735);
#522=VERTEX_POINT('',#1736);
#523=VERTEX_POINT('',#1738);
#524=VERTEX_POINT('',#1740);
#525=VERTEX_POINT('',#1744);
#526=VERTEX_POINT('',#1746);
#527=VERTEX_POINT('',#1750);
#528=VERTEX_POINT('',#1752);
#529=VERTEX_POINT('',#1759);
#530=VERTEX_POINT('',#1760);
#531=VERTEX_POINT('',#1762);
#532=VERTEX_POINT('',#1764);
#533=VERTEX_POINT('',#1768);
#534=VERTEX_POINT('',#1770);
#535=VERTEX_POINT('',#1774);
#536=VERTEX_POINT('',#1776);
#537=VERTEX_POINT('',#1783);
#538=VERTEX_POINT('',#1784);
#539=VERTEX_POINT('',#1786);
#540=VERTEX_POINT('',#1788);
#541=VERTEX_POINT('',#1792);
#542=VERTEX_POINT('',#1794);
#543=VERTEX_POINT('',#1798);
#544=VERTEX_POINT('',#1802);
#545=VERTEX_POINT('',#1806);
#546=VERTEX_POINT('',#1808);
#547=VERTEX_POINT('',#1810);
#548=VERTEX_POINT('',#1812);
#549=VERTEX_POINT('',#1816);
#550=VERTEX_POINT('',#1818);
#551=VERTEX_POINT('',#1822);
#552=VERTEX_POINT('',#1825);
#553=VERTEX_POINT('',#1829);
#554=VERTEX_POINT('',#1831);
#555=VERTEX_POINT('',#1835);
#556=VERTEX_POINT('',#1838);
#557=VERTEX_POINT('',#1842);
#558=VERTEX_POINT('',#1844);
#559=VERTEX_POINT('',#1848);
#560=VERTEX_POINT('',#1851);
#561=VERTEX_POINT('',#1855);
#562=VERTEX_POINT('',#1857);
#563=VERTEX_POINT('',#1861);
#564=VERTEX_POINT('',#1864);
#565=VERTEX_POINT('',#1868);
#566=VERTEX_POINT('',#1869);
#567=VERTEX_POINT('',#1871);
#568=VERTEX_POINT('',#1873);
#569=VERTEX_POINT('',#1877);
#570=VERTEX_POINT('',#1880);
#571=VERTEX_POINT('',#1882);
#572=VERTEX_POINT('',#1884);
#573=VERTEX_POINT('',#1888);
#574=VERTEX_POINT('',#1890);
#575=VERTEX_POINT('',#1894);
#576=VERTEX_POINT('',#1898);
#577=EDGE_CURVE('',#473,#474,#417,.T.);
#578=EDGE_CURVE('',#473,#475,#217,.T.);
#579=EDGE_CURVE('',#476,#475,#418,.T.);
#580=EDGE_CURVE('',#474,#476,#218,.T.);
#581=EDGE_CURVE('',#474,#477,#219,.T.);
#582=EDGE_CURVE('',#478,#476,#220,.T.);
#583=EDGE_CURVE('',#477,#478,#221,.T.);
#584=EDGE_CURVE('',#477,#479,#419,.T.);
#585=EDGE_CURVE('',#480,#478,#420,.T.);
#586=EDGE_CURVE('',#479,#480,#222,.T.);
#587=EDGE_CURVE('',#479,#473,#223,.T.);
#588=EDGE_CURVE('',#475,#480,#224,.T.);
#589=EDGE_CURVE('',#481,#482,#421,.T.);
#590=EDGE_CURVE('',#481,#483,#225,.T.);
#591=EDGE_CURVE('',#484,#483,#422,.T.);
#592=EDGE_CURVE('',#482,#484,#226,.T.);
#593=EDGE_CURVE('',#482,#485,#227,.T.);
#594=EDGE_CURVE('',#486,#484,#228,.T.);
#595=EDGE_CURVE('',#485,#486,#229,.T.);
#596=EDGE_CURVE('',#485,#487,#423,.T.);
#597=EDGE_CURVE('',#488,#486,#424,.T.);
#598=EDGE_CURVE('',#487,#488,#230,.T.);
#599=EDGE_CURVE('',#487,#481,#231,.T.);
#600=EDGE_CURVE('',#483,#488,#232,.T.);
#601=EDGE_CURVE('',#489,#490,#425,.T.);
#602=EDGE_CURVE('',#489,#491,#233,.T.);
#603=EDGE_CURVE('',#492,#491,#426,.T.);
#604=EDGE_CURVE('',#490,#492,#234,.T.);
#605=EDGE_CURVE('',#490,#493,#235,.T.);
#606=EDGE_CURVE('',#494,#492,#236,.T.);
#607=EDGE_CURVE('',#493,#494,#237,.T.);
#608=EDGE_CURVE('',#493,#495,#427,.T.);
#609=EDGE_CURVE('',#496,#494,#428,.T.);
#610=EDGE_CURVE('',#495,#496,#238,.T.);
#611=EDGE_CURVE('',#495,#489,#239,.T.);
#612=EDGE_CURVE('',#491,#496,#240,.T.);
#613=EDGE_CURVE('',#497,#498,#429,.T.);
#614=EDGE_CURVE('',#497,#499,#241,.T.);
#615=EDGE_CURVE('',#500,#499,#430,.T.);
#616=EDGE_CURVE('',#498,#500,#242,.T.);
#617=EDGE_CURVE('',#498,#501,#243,.T.);
#618=EDGE_CURVE('',#502,#500,#244,.T.);
#619=EDGE_CURVE('',#501,#502,#245,.T.);
#620=EDGE_CURVE('',#501,#503,#431,.T.);
#621=EDGE_CURVE('',#504,#502,#432,.T.);
#622=EDGE_CURVE('',#503,#504,#246,.T.);
#623=EDGE_CURVE('',#503,#497,#247,.T.);
#624=EDGE_CURVE('',#499,#504,#248,.T.);
#625=EDGE_CURVE('',#505,#506,#433,.T.);
#626=EDGE_CURVE('',#505,#507,#249,.T.);
#627=EDGE_CURVE('',#508,#507,#434,.T.);
#628=EDGE_CURVE('',#506,#508,#250,.T.);
#629=EDGE_CURVE('',#506,#509,#251,.T.);
#630=EDGE_CURVE('',#510,#508,#252,.T.);
#631=EDGE_CURVE('',#509,#510,#253,.T.);
#632=EDGE_CURVE('',#509,#511,#435,.T.);
#633=EDGE_CURVE('',#512,#510,#436,.T.);
#634=EDGE_CURVE('',#511,#512,#254,.T.);
#635=EDGE_CURVE('',#511,#505,#255,.T.);
#636=EDGE_CURVE('',#507,#512,#256,.T.);
#637=EDGE_CURVE('',#513,#514,#437,.T.);
#638=EDGE_CURVE('',#513,#515,#257,.T.);
#639=EDGE_CURVE('',#516,#515,#438,.T.);
#640=EDGE_CURVE('',#514,#516,#258,.T.);
#641=EDGE_CURVE('',#514,#517,#259,.T.);
#642=EDGE_CURVE('',#518,#516,#260,.T.);
#643=EDGE_CURVE('',#517,#518,#261,.T.);
#644=EDGE_CURVE('',#517,#519,#439,.T.);
#645=EDGE_CURVE('',#520,#518,#440,.T.);
#646=EDGE_CURVE('',#519,#520,#262,.T.);
#647=EDGE_CURVE('',#519,#513,#263,.T.);
#648=EDGE_CURVE('',#515,#520,#264,.T.);
#649=EDGE_CURVE('',#521,#522,#441,.T.);
#650=EDGE_CURVE('',#521,#523,#265,.T.);
#651=EDGE_CURVE('',#524,#523,#442,.T.);
#652=EDGE_CURVE('',#522,#524,#266,.T.);
#653=EDGE_CURVE('',#522,#525,#267,.T.);
#654=EDGE_CURVE('',#526,#524,#268,.T.);
#655=EDGE_CURVE('',#525,#526,#269,.T.);
#656=EDGE_CURVE('',#525,#527,#443,.T.);
#657=EDGE_CURVE('',#528,#526,#444,.T.);
#658=EDGE_CURVE('',#527,#528,#270,.T.);
#659=EDGE_CURVE('',#527,#521,#271,.T.);
#660=EDGE_CURVE('',#523,#528,#272,.T.);
#661=EDGE_CURVE('',#529,#530,#445,.T.);
#662=EDGE_CURVE('',#529,#531,#273,.T.);
#663=EDGE_CURVE('',#532,#531,#446,.T.);
#664=EDGE_CURVE('',#530,#532,#274,.T.);
#665=EDGE_CURVE('',#530,#533,#275,.T.);
#666=EDGE_CURVE('',#534,#532,#276,.T.);
#667=EDGE_CURVE('',#533,#534,#277,.T.);
#668=EDGE_CURVE('',#533,#535,#447,.T.);
#669=EDGE_CURVE('',#536,#534,#448,.T.);
#670=EDGE_CURVE('',#535,#536,#278,.T.);
#671=EDGE_CURVE('',#535,#529,#279,.T.);
#672=EDGE_CURVE('',#531,#536,#280,.T.);
#673=EDGE_CURVE('',#537,#538,#281,.T.);
#674=EDGE_CURVE('',#539,#537,#282,.T.);
#675=EDGE_CURVE('',#540,#539,#283,.T.);
#676=EDGE_CURVE('',#538,#540,#284,.T.);
#677=EDGE_CURVE('',#538,#541,#285,.T.);
#678=EDGE_CURVE('',#542,#540,#286,.T.);
#679=EDGE_CURVE('',#541,#542,#287,.T.);
#680=EDGE_CURVE('',#542,#543,#288,.T.);
#681=EDGE_CURVE('',#543,#539,#289,.T.);
#682=EDGE_CURVE('',#544,#537,#290,.T.);
#683=EDGE_CURVE('',#543,#544,#291,.T.);
#684=EDGE_CURVE('',#545,#541,#292,.T.);
#685=EDGE_CURVE('',#545,#546,#293,.T.);
#686=EDGE_CURVE('',#547,#546,#294,.T.);
#687=EDGE_CURVE('',#548,#547,#295,.T.);
#688=EDGE_CURVE('',#544,#548,#296,.T.);
#689=EDGE_CURVE('',#549,#549,#449,.T.);
#690=EDGE_CURVE('',#549,#550,#297,.T.);
#691=EDGE_CURVE('',#550,#550,#450,.T.);
#692=EDGE_CURVE('',#551,#551,#451,.T.);
#693=EDGE_CURVE('',#551,#552,#298,.T.);
#694=EDGE_CURVE('',#552,#552,#452,.T.);
#695=EDGE_CURVE('',#553,#553,#453,.T.);
#696=EDGE_CURVE('',#553,#554,#299,.T.);
#697=EDGE_CURVE('',#554,#554,#454,.T.);
#698=EDGE_CURVE('',#555,#555,#455,.T.);
#699=EDGE_CURVE('',#555,#556,#300,.T.);
#700=EDGE_CURVE('',#556,#556,#456,.T.);
#701=EDGE_CURVE('',#557,#557,#457,.T.);
#702=EDGE_CURVE('',#557,#558,#301,.T.);
#703=EDGE_CURVE('',#558,#558,#458,.T.);
#704=EDGE_CURVE('',#559,#559,#459,.T.);
#705=EDGE_CURVE('',#559,#560,#302,.T.);
#706=EDGE_CURVE('',#560,#560,#460,.T.);
#707=EDGE_CURVE('',#561,#561,#461,.T.);
#708=EDGE_CURVE('',#561,#562,#303,.T.);
#709=EDGE_CURVE('',#562,#562,#462,.T.);
#710=EDGE_CURVE('',#563,#563,#463,.T.);
#711=EDGE_CURVE('',#563,#564,#304,.T.);
#712=EDGE_CURVE('',#564,#564,#464,.T.);
#713=EDGE_CURVE('',#565,#566,#305,.T.);
#714=EDGE_CURVE('',#567,#566,#465,.T.);
#715=EDGE_CURVE('',#568,#567,#306,.T.);
#716=EDGE_CURVE('',#565,#568,#466,.T.);
#717=EDGE_CURVE('',#548,#569,#467,.T.);
#718=EDGE_CURVE('',#569,#565,#307,.T.);
#719=EDGE_CURVE('',#568,#570,#308,.T.);
#720=EDGE_CURVE('',#570,#571,#468,.T.);
#721=EDGE_CURVE('',#571,#572,#309,.T.);
#722=EDGE_CURVE('',#572,#545,#469,.T.);
#723=EDGE_CURVE('',#570,#573,#310,.T.);
#724=EDGE_CURVE('',#574,#573,#470,.T.);
#725=EDGE_CURVE('',#571,#574,#311,.T.);
#726=EDGE_CURVE('',#575,#547,#471,.T.);
#727=EDGE_CURVE('',#569,#575,#312,.T.);
#728=EDGE_CURVE('',#572,#576,#313,.T.);
#729=EDGE_CURVE('',#546,#576,#472,.T.);
#730=EDGE_CURVE('',#566,#575,#314,.T.);
#731=EDGE_CURVE('',#576,#574,#315,.T.);
#732=EDGE_CURVE('',#573,#567,#316,.T.);
#733=ORIENTED_EDGE('',*,*,#577,.F.);
#734=ORIENTED_EDGE('',*,*,#578,.T.);
#735=ORIENTED_EDGE('',*,*,#579,.F.);
#736=ORIENTED_EDGE('',*,*,#580,.F.);
#737=ORIENTED_EDGE('',*,*,#581,.F.);
#738=ORIENTED_EDGE('',*,*,#580,.T.);
#739=ORIENTED_EDGE('',*,*,#582,.F.);
#740=ORIENTED_EDGE('',*,*,#583,.F.);
#741=ORIENTED_EDGE('',*,*,#584,.F.);
#742=ORIENTED_EDGE('',*,*,#583,.T.);
#743=ORIENTED_EDGE('',*,*,#585,.F.);
#744=ORIENTED_EDGE('',*,*,#586,.F.);
#745=ORIENTED_EDGE('',*,*,#587,.F.);
#746=ORIENTED_EDGE('',*,*,#586,.T.);
#747=ORIENTED_EDGE('',*,*,#588,.F.);
#748=ORIENTED_EDGE('',*,*,#578,.F.);
#749=ORIENTED_EDGE('',*,*,#589,.F.);
#750=ORIENTED_EDGE('',*,*,#590,.T.);
#751=ORIENTED_EDGE('',*,*,#591,.F.);
#752=ORIENTED_EDGE('',*,*,#592,.F.);
#753=ORIENTED_EDGE('',*,*,#593,.F.);
#754=ORIENTED_EDGE('',*,*,#592,.T.);
#755=ORIENTED_EDGE('',*,*,#594,.F.);
#756=ORIENTED_EDGE('',*,*,#595,.F.);
#757=ORIENTED_EDGE('',*,*,#596,.F.);
#758=ORIENTED_EDGE('',*,*,#595,.T.);
#759=ORIENTED_EDGE('',*,*,#597,.F.);
#760=ORIENTED_EDGE('',*,*,#598,.F.);
#761=ORIENTED_EDGE('',*,*,#599,.F.);
#762=ORIENTED_EDGE('',*,*,#598,.T.);
#763=ORIENTED_EDGE('',*,*,#600,.F.);
#764=ORIENTED_EDGE('',*,*,#590,.F.);
#765=ORIENTED_EDGE('',*,*,#601,.F.);
#766=ORIENTED_EDGE('',*,*,#602,.T.);
#767=ORIENTED_EDGE('',*,*,#603,.F.);
#768=ORIENTED_EDGE('',*,*,#604,.F.);
#769=ORIENTED_EDGE('',*,*,#605,.F.);
#770=ORIENTED_EDGE('',*,*,#604,.T.);
#771=ORIENTED_EDGE('',*,*,#606,.F.);
#772=ORIENTED_EDGE('',*,*,#607,.F.);
#773=ORIENTED_EDGE('',*,*,#608,.F.);
#774=ORIENTED_EDGE('',*,*,#607,.T.);
#775=ORIENTED_EDGE('',*,*,#609,.F.);
#776=ORIENTED_EDGE('',*,*,#610,.F.);
#777=ORIENTED_EDGE('',*,*,#611,.F.);
#778=ORIENTED_EDGE('',*,*,#610,.T.);
#779=ORIENTED_EDGE('',*,*,#612,.F.);
#780=ORIENTED_EDGE('',*,*,#602,.F.);
#781=ORIENTED_EDGE('',*,*,#613,.F.);
#782=ORIENTED_EDGE('',*,*,#614,.T.);
#783=ORIENTED_EDGE('',*,*,#615,.F.);
#784=ORIENTED_EDGE('',*,*,#616,.F.);
#785=ORIENTED_EDGE('',*,*,#617,.F.);
#786=ORIENTED_EDGE('',*,*,#616,.T.);
#787=ORIENTED_EDGE('',*,*,#618,.F.);
#788=ORIENTED_EDGE('',*,*,#619,.F.);
#789=ORIENTED_EDGE('',*,*,#620,.F.);
#790=ORIENTED_EDGE('',*,*,#619,.T.);
#791=ORIENTED_EDGE('',*,*,#621,.F.);
#792=ORIENTED_EDGE('',*,*,#622,.F.);
#793=ORIENTED_EDGE('',*,*,#623,.F.);
#794=ORIENTED_EDGE('',*,*,#622,.T.);
#795=ORIENTED_EDGE('',*,*,#624,.F.);
#796=ORIENTED_EDGE('',*,*,#614,.F.);
#797=ORIENTED_EDGE('',*,*,#625,.F.);
#798=ORIENTED_EDGE('',*,*,#626,.T.);
#799=ORIENTED_EDGE('',*,*,#627,.F.);
#800=ORIENTED_EDGE('',*,*,#628,.F.);
#801=ORIENTED_EDGE('',*,*,#629,.F.);
#802=ORIENTED_EDGE('',*,*,#628,.T.);
#803=ORIENTED_EDGE('',*,*,#630,.F.);
#804=ORIENTED_EDGE('',*,*,#631,.F.);
#805=ORIENTED_EDGE('',*,*,#632,.F.);
#806=ORIENTED_EDGE('',*,*,#631,.T.);
#807=ORIENTED_EDGE('',*,*,#633,.F.);
#808=ORIENTED_EDGE('',*,*,#634,.F.);
#809=ORIENTED_EDGE('',*,*,#635,.F.);
#810=ORIENTED_EDGE('',*,*,#634,.T.);
#811=ORIENTED_EDGE('',*,*,#636,.F.);
#812=ORIENTED_EDGE('',*,*,#626,.F.);
#813=ORIENTED_EDGE('',*,*,#637,.F.);
#814=ORIENTED_EDGE('',*,*,#638,.T.);
#815=ORIENTED_EDGE('',*,*,#639,.F.);
#816=ORIENTED_EDGE('',*,*,#640,.F.);
#817=ORIENTED_EDGE('',*,*,#641,.F.);
#818=ORIENTED_EDGE('',*,*,#640,.T.);
#819=ORIENTED_EDGE('',*,*,#642,.F.);
#820=ORIENTED_EDGE('',*,*,#643,.F.);
#821=ORIENTED_EDGE('',*,*,#644,.F.);
#822=ORIENTED_EDGE('',*,*,#643,.T.);
#823=ORIENTED_EDGE('',*,*,#645,.F.);
#824=ORIENTED_EDGE('',*,*,#646,.F.);
#825=ORIENTED_EDGE('',*,*,#647,.F.);
#826=ORIENTED_EDGE('',*,*,#646,.T.);
#827=ORIENTED_EDGE('',*,*,#648,.F.);
#828=ORIENTED_EDGE('',*,*,#638,.F.);
#829=ORIENTED_EDGE('',*,*,#649,.F.);
#830=ORIENTED_EDGE('',*,*,#650,.T.);
#831=ORIENTED_EDGE('',*,*,#651,.F.);
#832=ORIENTED_EDGE('',*,*,#652,.F.);
#833=ORIENTED_EDGE('',*,*,#653,.F.);
#834=ORIENTED_EDGE('',*,*,#652,.T.);
#835=ORIENTED_EDGE('',*,*,#654,.F.);
#836=ORIENTED_EDGE('',*,*,#655,.F.);
#837=ORIENTED_EDGE('',*,*,#656,.F.);
#838=ORIENTED_EDGE('',*,*,#655,.T.);
#839=ORIENTED_EDGE('',*,*,#657,.F.);
#840=ORIENTED_EDGE('',*,*,#658,.F.);
#841=ORIENTED_EDGE('',*,*,#659,.F.);
#842=ORIENTED_EDGE('',*,*,#658,.T.);
#843=ORIENTED_EDGE('',*,*,#660,.F.);
#844=ORIENTED_EDGE('',*,*,#650,.F.);
#845=ORIENTED_EDGE('',*,*,#661,.F.);
#846=ORIENTED_EDGE('',*,*,#662,.T.);
#847=ORIENTED_EDGE('',*,*,#663,.F.);
#848=ORIENTED_EDGE('',*,*,#664,.F.);
#849=ORIENTED_EDGE('',*,*,#665,.F.);
#850=ORIENTED_EDGE('',*,*,#664,.T.);
#851=ORIENTED_EDGE('',*,*,#666,.F.);
#852=ORIENTED_EDGE('',*,*,#667,.F.);
#853=ORIENTED_EDGE('',*,*,#668,.F.);
#854=ORIENTED_EDGE('',*,*,#667,.T.);
#855=ORIENTED_EDGE('',*,*,#669,.F.);
#856=ORIENTED_EDGE('',*,*,#670,.F.);
#857=ORIENTED_EDGE('',*,*,#671,.F.);
#858=ORIENTED_EDGE('',*,*,#670,.T.);
#859=ORIENTED_EDGE('',*,*,#672,.F.);
#860=ORIENTED_EDGE('',*,*,#662,.F.);
#861=ORIENTED_EDGE('',*,*,#673,.F.);
#862=ORIENTED_EDGE('',*,*,#674,.F.);
#863=ORIENTED_EDGE('',*,*,#675,.F.);
#864=ORIENTED_EDGE('',*,*,#676,.F.);
#865=ORIENTED_EDGE('',*,*,#677,.F.);
#866=ORIENTED_EDGE('',*,*,#676,.T.);
#867=ORIENTED_EDGE('',*,*,#678,.F.);
#868=ORIENTED_EDGE('',*,*,#679,.F.);
#869=ORIENTED_EDGE('',*,*,#680,.F.);
#870=ORIENTED_EDGE('',*,*,#678,.T.);
#871=ORIENTED_EDGE('',*,*,#675,.T.);
#872=ORIENTED_EDGE('',*,*,#681,.F.);
#873=ORIENTED_EDGE('',*,*,#682,.F.);
#874=ORIENTED_EDGE('',*,*,#683,.F.);
#875=ORIENTED_EDGE('',*,*,#681,.T.);
#876=ORIENTED_EDGE('',*,*,#674,.T.);
#877=ORIENTED_EDGE('',*,*,#682,.T.);
#878=ORIENTED_EDGE('',*,*,#673,.T.);
#879=ORIENTED_EDGE('',*,*,#677,.T.);
#880=ORIENTED_EDGE('',*,*,#684,.F.);
#881=ORIENTED_EDGE('',*,*,#685,.T.);
#882=ORIENTED_EDGE('',*,*,#686,.F.);
#883=ORIENTED_EDGE('',*,*,#687,.F.);
#884=ORIENTED_EDGE('',*,*,#688,.F.);
#885=ORIENTED_EDGE('',*,*,#689,.F.);
#886=ORIENTED_EDGE('',*,*,#690,.T.);
#887=ORIENTED_EDGE('',*,*,#691,.T.);
#888=ORIENTED_EDGE('',*,*,#690,.F.);
#889=ORIENTED_EDGE('',*,*,#691,.F.);
#890=ORIENTED_EDGE('',*,*,#692,.F.);
#891=ORIENTED_EDGE('',*,*,#692,.T.);
#892=ORIENTED_EDGE('',*,*,#693,.T.);
#893=ORIENTED_EDGE('',*,*,#694,.F.);
#894=ORIENTED_EDGE('',*,*,#693,.F.);
#895=ORIENTED_EDGE('',*,*,#695,.F.);
#896=ORIENTED_EDGE('',*,*,#696,.T.);
#897=ORIENTED_EDGE('',*,*,#697,.T.);
#898=ORIENTED_EDGE('',*,*,#696,.F.);
#899=ORIENTED_EDGE('',*,*,#697,.F.);
#900=ORIENTED_EDGE('',*,*,#698,.F.);
#901=ORIENTED_EDGE('',*,*,#698,.T.);
#902=ORIENTED_EDGE('',*,*,#699,.T.);
#903=ORIENTED_EDGE('',*,*,#700,.F.);
#904=ORIENTED_EDGE('',*,*,#699,.F.);
#905=ORIENTED_EDGE('',*,*,#701,.F.);
#906=ORIENTED_EDGE('',*,*,#702,.T.);
#907=ORIENTED_EDGE('',*,*,#703,.T.);
#908=ORIENTED_EDGE('',*,*,#702,.F.);
#909=ORIENTED_EDGE('',*,*,#703,.F.);
#910=ORIENTED_EDGE('',*,*,#704,.F.);
#911=ORIENTED_EDGE('',*,*,#704,.T.);
#912=ORIENTED_EDGE('',*,*,#705,.T.);
#913=ORIENTED_EDGE('',*,*,#706,.F.);
#914=ORIENTED_EDGE('',*,*,#705,.F.);
#915=ORIENTED_EDGE('',*,*,#707,.F.);
#916=ORIENTED_EDGE('',*,*,#708,.T.);
#917=ORIENTED_EDGE('',*,*,#709,.T.);
#918=ORIENTED_EDGE('',*,*,#708,.F.);
#919=ORIENTED_EDGE('',*,*,#709,.F.);
#920=ORIENTED_EDGE('',*,*,#710,.F.);
#921=ORIENTED_EDGE('',*,*,#710,.T.);
#922=ORIENTED_EDGE('',*,*,#711,.T.);
#923=ORIENTED_EDGE('',*,*,#712,.F.);
#924=ORIENTED_EDGE('',*,*,#711,.F.);
#925=ORIENTED_EDGE('',*,*,#713,.T.);
#926=ORIENTED_EDGE('',*,*,#714,.F.);
#927=ORIENTED_EDGE('',*,*,#715,.F.);
#928=ORIENTED_EDGE('',*,*,#716,.F.);
#929=ORIENTED_EDGE('',*,*,#683,.T.);
#930=ORIENTED_EDGE('',*,*,#688,.T.);
#931=ORIENTED_EDGE('',*,*,#717,.T.);
#932=ORIENTED_EDGE('',*,*,#718,.T.);
#933=ORIENTED_EDGE('',*,*,#716,.T.);
#934=ORIENTED_EDGE('',*,*,#719,.T.);
#935=ORIENTED_EDGE('',*,*,#720,.T.);
#936=ORIENTED_EDGE('',*,*,#721,.T.);
#937=ORIENTED_EDGE('',*,*,#722,.T.);
#938=ORIENTED_EDGE('',*,*,#684,.T.);
#939=ORIENTED_EDGE('',*,*,#679,.T.);
#940=ORIENTED_EDGE('',*,*,#680,.T.);
#941=ORIENTED_EDGE('',*,*,#596,.T.);
#942=ORIENTED_EDGE('',*,*,#599,.T.);
#943=ORIENTED_EDGE('',*,*,#589,.T.);
#944=ORIENTED_EDGE('',*,*,#593,.T.);
#945=ORIENTED_EDGE('',*,*,#620,.T.);
#946=ORIENTED_EDGE('',*,*,#623,.T.);
#947=ORIENTED_EDGE('',*,*,#613,.T.);
#948=ORIENTED_EDGE('',*,*,#617,.T.);
#949=ORIENTED_EDGE('',*,*,#712,.T.);
#950=ORIENTED_EDGE('',*,*,#706,.T.);
#951=ORIENTED_EDGE('',*,*,#700,.T.);
#952=ORIENTED_EDGE('',*,*,#694,.T.);
#953=ORIENTED_EDGE('',*,*,#668,.T.);
#954=ORIENTED_EDGE('',*,*,#671,.T.);
#955=ORIENTED_EDGE('',*,*,#661,.T.);
#956=ORIENTED_EDGE('',*,*,#665,.T.);
#957=ORIENTED_EDGE('',*,*,#656,.T.);
#958=ORIENTED_EDGE('',*,*,#659,.T.);
#959=ORIENTED_EDGE('',*,*,#649,.T.);
#960=ORIENTED_EDGE('',*,*,#653,.T.);
#961=ORIENTED_EDGE('',*,*,#644,.T.);
#962=ORIENTED_EDGE('',*,*,#647,.T.);
#963=ORIENTED_EDGE('',*,*,#637,.T.);
#964=ORIENTED_EDGE('',*,*,#641,.T.);
#965=ORIENTED_EDGE('',*,*,#632,.T.);
#966=ORIENTED_EDGE('',*,*,#635,.T.);
#967=ORIENTED_EDGE('',*,*,#625,.T.);
#968=ORIENTED_EDGE('',*,*,#629,.T.);
#969=ORIENTED_EDGE('',*,*,#608,.T.);
#970=ORIENTED_EDGE('',*,*,#611,.T.);
#971=ORIENTED_EDGE('',*,*,#601,.T.);
#972=ORIENTED_EDGE('',*,*,#605,.T.);
#973=ORIENTED_EDGE('',*,*,#584,.T.);
#974=ORIENTED_EDGE('',*,*,#587,.T.);
#975=ORIENTED_EDGE('',*,*,#577,.T.);
#976=ORIENTED_EDGE('',*,*,#581,.T.);
#977=ORIENTED_EDGE('',*,*,#723,.T.);
#978=ORIENTED_EDGE('',*,*,#724,.F.);
#979=ORIENTED_EDGE('',*,*,#725,.F.);
#980=ORIENTED_EDGE('',*,*,#720,.F.);
#981=ORIENTED_EDGE('',*,*,#687,.T.);
#982=ORIENTED_EDGE('',*,*,#726,.F.);
#983=ORIENTED_EDGE('',*,*,#727,.F.);
#984=ORIENTED_EDGE('',*,*,#717,.F.);
#985=ORIENTED_EDGE('',*,*,#685,.F.);
#986=ORIENTED_EDGE('',*,*,#722,.F.);
#987=ORIENTED_EDGE('',*,*,#728,.T.);
#988=ORIENTED_EDGE('',*,*,#729,.F.);
#989=ORIENTED_EDGE('',*,*,#730,.T.);
#990=ORIENTED_EDGE('',*,*,#726,.T.);
#991=ORIENTED_EDGE('',*,*,#686,.T.);
#992=ORIENTED_EDGE('',*,*,#729,.T.);
#993=ORIENTED_EDGE('',*,*,#731,.T.);
#994=ORIENTED_EDGE('',*,*,#724,.T.);
#995=ORIENTED_EDGE('',*,*,#732,.T.);
#996=ORIENTED_EDGE('',*,*,#714,.T.);
#997=ORIENTED_EDGE('',*,*,#597,.T.);
#998=ORIENTED_EDGE('',*,*,#594,.T.);
#999=ORIENTED_EDGE('',*,*,#591,.T.);
#1000=ORIENTED_EDGE('',*,*,#600,.T.);
#1001=ORIENTED_EDGE('',*,*,#621,.T.);
#1002=ORIENTED_EDGE('',*,*,#618,.T.);
#1003=ORIENTED_EDGE('',*,*,#615,.T.);
#1004=ORIENTED_EDGE('',*,*,#624,.T.);
#1005=ORIENTED_EDGE('',*,*,#707,.T.);
#1006=ORIENTED_EDGE('',*,*,#701,.T.);
#1007=ORIENTED_EDGE('',*,*,#695,.T.);
#1008=ORIENTED_EDGE('',*,*,#689,.T.);
#1009=ORIENTED_EDGE('',*,*,#669,.T.);
#1010=ORIENTED_EDGE('',*,*,#666,.T.);
#1011=ORIENTED_EDGE('',*,*,#663,.T.);
#1012=ORIENTED_EDGE('',*,*,#672,.T.);
#1013=ORIENTED_EDGE('',*,*,#657,.T.);
#1014=ORIENTED_EDGE('',*,*,#654,.T.);
#1015=ORIENTED_EDGE('',*,*,#651,.T.);
#1016=ORIENTED_EDGE('',*,*,#660,.T.);
#1017=ORIENTED_EDGE('',*,*,#645,.T.);
#1018=ORIENTED_EDGE('',*,*,#642,.T.);
#1019=ORIENTED_EDGE('',*,*,#639,.T.);
#1020=ORIENTED_EDGE('',*,*,#648,.T.);
#1021=ORIENTED_EDGE('',*,*,#633,.T.);
#1022=ORIENTED_EDGE('',*,*,#630,.T.);
#1023=ORIENTED_EDGE('',*,*,#627,.T.);
#1024=ORIENTED_EDGE('',*,*,#636,.T.);
#1025=ORIENTED_EDGE('',*,*,#609,.T.);
#1026=ORIENTED_EDGE('',*,*,#606,.T.);
#1027=ORIENTED_EDGE('',*,*,#603,.T.);
#1028=ORIENTED_EDGE('',*,*,#612,.T.);
#1029=ORIENTED_EDGE('',*,*,#585,.T.);
#1030=ORIENTED_EDGE('',*,*,#582,.T.);
#1031=ORIENTED_EDGE('',*,*,#579,.T.);
#1032=ORIENTED_EDGE('',*,*,#588,.T.);
#1033=ORIENTED_EDGE('',*,*,#725,.T.);
#1034=ORIENTED_EDGE('',*,*,#731,.F.);
#1035=ORIENTED_EDGE('',*,*,#728,.F.);
#1036=ORIENTED_EDGE('',*,*,#721,.F.);
#1037=ORIENTED_EDGE('',*,*,#727,.T.);
#1038=ORIENTED_EDGE('',*,*,#730,.F.);
#1039=ORIENTED_EDGE('',*,*,#713,.F.);
#1040=ORIENTED_EDGE('',*,*,#718,.F.);
#1041=ORIENTED_EDGE('',*,*,#715,.T.);
#1042=ORIENTED_EDGE('',*,*,#732,.F.);
#1043=ORIENTED_EDGE('',*,*,#723,.F.);
#1044=ORIENTED_EDGE('',*,*,#719,.F.);
#1045=CYLINDRICAL_SURFACE('',#1145,1.1);
#1046=CYLINDRICAL_SURFACE('',#1149,1.1);
#1047=CYLINDRICAL_SURFACE('',#1153,1.1);
#1048=CYLINDRICAL_SURFACE('',#1157,1.1);
#1049=CYLINDRICAL_SURFACE('',#1161,1.1);
#1050=CYLINDRICAL_SURFACE('',#1165,1.1);
#1051=CYLINDRICAL_SURFACE('',#1169,1.1);
#1052=CYLINDRICAL_SURFACE('',#1173,1.1);
#1053=CYLINDRICAL_SURFACE('',#1177,1.1);
#1054=CYLINDRICAL_SURFACE('',#1181,1.1);
#1055=CYLINDRICAL_SURFACE('',#1185,1.1);
#1056=CYLINDRICAL_SURFACE('',#1189,1.1);
#1057=CYLINDRICAL_SURFACE('',#1193,1.1);
#1058=CYLINDRICAL_SURFACE('',#1197,1.1);
#1059=CYLINDRICAL_SURFACE('',#1201,1.1);
#1060=CYLINDRICAL_SURFACE('',#1205,1.1);
#1061=CYLINDRICAL_SURFACE('',#1214,3.1);
#1062=CYLINDRICAL_SURFACE('',#1219,1.7);
#1063=CYLINDRICAL_SURFACE('',#1221,3.1);
#1064=CYLINDRICAL_SURFACE('',#1226,1.7);
#1065=CYLINDRICAL_SURFACE('',#1228,3.1);
#1066=CYLINDRICAL_SURFACE('',#1233,1.7);
#1067=CYLINDRICAL_SURFACE('',#1235,3.1);
#1068=CYLINDRICAL_SURFACE('',#1240,1.7);
#1069=CYLINDRICAL_SURFACE('',#1242,2.8);
#1070=CYLINDRICAL_SURFACE('',#1249,2.8);
#1071=CYLINDRICAL_SURFACE('',#1251,2.8);
#1072=CYLINDRICAL_SURFACE('',#1253,2.8);
#1073=ADVANCED_FACE('',(#73),#1045,.F.);
#1074=ADVANCED_FACE('',(#74),#43,.T.);
#1075=ADVANCED_FACE('',(#75),#1046,.F.);
#1076=ADVANCED_FACE('',(#76),#44,.T.);
#1077=ADVANCED_FACE('',(#77),#1047,.F.);
#1078=ADVANCED_FACE('',(#78),#45,.T.);
#1079=ADVANCED_FACE('',(#79),#1048,.F.);
#1080=ADVANCED_FACE('',(#80),#46,.T.);
#1081=ADVANCED_FACE('',(#81),#1049,.F.);
#1082=ADVANCED_FACE('',(#82),#47,.T.);
#1083=ADVANCED_FACE('',(#83),#1050,.F.);
#1084=ADVANCED_FACE('',(#84),#48,.T.);
#1085=ADVANCED_FACE('',(#85),#1051,.F.);
#1086=ADVANCED_FACE('',(#86),#49,.T.);
#1087=ADVANCED_FACE('',(#87),#1052,.F.);
#1088=ADVANCED_FACE('',(#88),#50,.T.);
#1089=ADVANCED_FACE('',(#89),#1053,.F.);
#1090=ADVANCED_FACE('',(#90),#51,.T.);
#1091=ADVANCED_FACE('',(#91),#1054,.F.);
#1092=ADVANCED_FACE('',(#92),#52,.T.);
#1093=ADVANCED_FACE('',(#93),#1055,.F.);
#1094=ADVANCED_FACE('',(#94),#53,.T.);
#1095=ADVANCED_FACE('',(#95),#1056,.F.);
#1096=ADVANCED_FACE('',(#96),#54,.T.);
#1097=ADVANCED_FACE('',(#97),#1057,.F.);
#1098=ADVANCED_FACE('',(#98),#55,.T.);
#1099=ADVANCED_FACE('',(#99),#1058,.F.);
#1100=ADVANCED_FACE('',(#100),#56,.T.);
#1101=ADVANCED_FACE('',(#101),#1059,.F.);
#1102=ADVANCED_FACE('',(#102),#57,.T.);
#1103=ADVANCED_FACE('',(#103),#1060,.F.);
#1104=ADVANCED_FACE('',(#104),#58,.T.);
#1105=ADVANCED_FACE('',(#105),#59,.T.);
#1106=ADVANCED_FACE('',(#106),#60,.T.);
#1107=ADVANCED_FACE('',(#107),#61,.T.);
#1108=ADVANCED_FACE('',(#108),#62,.T.);
#1109=ADVANCED_FACE('',(#109),#63,.F.);
#1110=ADVANCED_FACE('',(#110),#1061,.F.);
#1111=ADVANCED_FACE('',(#111,#15),#64,.F.);
#1112=ADVANCED_FACE('',(#112),#1062,.F.);
#1113=ADVANCED_FACE('',(#113),#1063,.F.);
#1114=ADVANCED_FACE('',(#114,#16),#65,.F.);
#1115=ADVANCED_FACE('',(#115),#1064,.F.);
#1116=ADVANCED_FACE('',(#116),#1065,.F.);
#1117=ADVANCED_FACE('',(#117,#17),#66,.F.);
#1118=ADVANCED_FACE('',(#118),#1066,.F.);
#1119=ADVANCED_FACE('',(#119),#1067,.F.);
#1120=ADVANCED_FACE('',(#120,#18),#67,.F.);
#1121=ADVANCED_FACE('',(#121),#1068,.F.);
#1122=ADVANCED_FACE('',(#122),#1069,.T.);
#1123=ADVANCED_FACE('',(#123,#19,#20,#21,#22,#23,#24,#25,#26,#27,#28,#29,
#30),#68,.T.);
#1124=ADVANCED_FACE('',(#124),#1070,.T.);
#1125=ADVANCED_FACE('',(#125),#1071,.T.);
#1126=ADVANCED_FACE('',(#126),#1072,.T.);
#1127=ADVANCED_FACE('',(#127,#31,#32,#33,#34,#35,#36,#37,#38,#39,#40,#41,
#42),#69,.F.);
#1128=ADVANCED_FACE('',(#128),#70,.F.);
#1129=ADVANCED_FACE('',(#129),#71,.F.);
#1130=ADVANCED_FACE('',(#130),#72,.F.);
#1131=CLOSED_SHELL('',(#1073,#1074,#1075,#1076,#1077,#1078,#1079,#1080,
#1081,#1082,#1083,#1084,#1085,#1086,#1087,#1088,#1089,#1090,#1091,#1092,
#1093,#1094,#1095,#1096,#1097,#1098,#1099,#1100,#1101,#1102,#1103,#1104,
#1105,#1106,#1107,#1108,#1109,#1110,#1111,#1112,#1113,#1114,#1115,#1116,
#1117,#1118,#1119,#1120,#1121,#1122,#1123,#1124,#1125,#1126,#1127,#1128,
#1129,#1130));
#1132=DERIVED_UNIT_ELEMENT(#1134,1.);
#1133=DERIVED_UNIT_ELEMENT(#1913,-3.);
#1134=(
MASS_UNIT()
NAMED_UNIT(*)
SI_UNIT(.KILO.,.GRAM.)
);
#1135=DERIVED_UNIT((#1132,#1133));
#1136=MEASURE_REPRESENTATION_ITEM('density measure',
POSITIVE_RATIO_MEASURE(7850.),#1135);
#1137=PROPERTY_DEFINITION_REPRESENTATION(#1142,#1139);
#1138=PROPERTY_DEFINITION_REPRESENTATION(#1143,#1140);
#1139=REPRESENTATION('material name',(#1141),#1910);
#1140=REPRESENTATION('density',(#1136),#1910);
#1141=DESCRIPTIVE_REPRESENTATION_ITEM('Steel','Steel');
#1142=PROPERTY_DEFINITION('material property','material name',#1920);
#1143=PROPERTY_DEFINITION('material property','density of part',#1920);
#1144=AXIS2_PLACEMENT_3D('',#1589,#1259,#1260);
#1145=AXIS2_PLACEMENT_3D('',#1590,#1261,#1262);
#1146=AXIS2_PLACEMENT_3D('',#1593,#1263,#1264);
#1147=AXIS2_PLACEMENT_3D('',#1597,#1266,#1267);
#1148=AXIS2_PLACEMENT_3D('',#1599,#1269,#1270);
#1149=AXIS2_PLACEMENT_3D('',#1605,#1274,#1275);
#1150=AXIS2_PLACEMENT_3D('',#1607,#1276,#1277);
#1151=AXIS2_PLACEMENT_3D('',#1609,#1278,#1279);
#1152=AXIS2_PLACEMENT_3D('',#1611,#1281,#1282);
#1153=AXIS2_PLACEMENT_3D('',#1614,#1285,#1286);
#1154=AXIS2_PLACEMENT_3D('',#1617,#1287,#1288);
#1155=AXIS2_PLACEMENT_3D('',#1621,#1290,#1291);
#1156=AXIS2_PLACEMENT_3D('',#1623,#1293,#1294);
#1157=AXIS2_PLACEMENT_3D('',#1629,#1298,#1299);
#1158=AXIS2_PLACEMENT_3D('',#1631,#1300,#1301);
#1159=AXIS2_PLACEMENT_3D('',#1633,#1302,#1303);
#1160=AXIS2_PLACEMENT_3D('',#1635,#1305,#1306);
#1161=AXIS2_PLACEMENT_3D('',#1638,#1309,#1310);
#1162=AXIS2_PLACEMENT_3D('',#1641,#1311,#1312);
#1163=AXIS2_PLACEMENT_3D('',#1645,#1314,#1315);
#1164=AXIS2_PLACEMENT_3D('',#1647,#1317,#1318);
#1165=AXIS2_PLACEMENT_3D('',#1653,#1322,#1323);
#1166=AXIS2_PLACEMENT_3D('',#1655,#1324,#1325);
#1167=AXIS2_PLACEMENT_3D('',#1657,#1326,#1327);
#1168=AXIS2_PLACEMENT_3D('',#1659,#1329,#1330);
#1169=AXIS2_PLACEMENT_3D('',#1662,#1333,#1334);
#1170=AXIS2_PLACEMENT_3D('',#1665,#1335,#1336);
#1171=AXIS2_PLACEMENT_3D('',#1669,#1338,#1339);
#1172=AXIS2_PLACEMENT_3D('',#1671,#1341,#1342);
#1173=AXIS2_PLACEMENT_3D('',#1677,#1346,#1347);
#1174=AXIS2_PLACEMENT_3D('',#1679,#1348,#1349);
#1175=AXIS2_PLACEMENT_3D('',#1681,#1350,#1351);
#1176=AXIS2_PLACEMENT_3D('',#1683,#1353,#1354);
#1177=AXIS2_PLACEMENT_3D('',#1686,#1357,#1358);
#1178=AXIS2_PLACEMENT_3D('',#1689,#1359,#1360);
#1179=AXIS2_PLACEMENT_3D('',#1693,#1362,#1363);
#1180=AXIS2_PLACEMENT_3D('',#1695,#1365,#1366);
#1181=AXIS2_PLACEMENT_3D('',#1701,#1370,#1371);
#1182=AXIS2_PLACEMENT_3D('',#1703,#1372,#1373);
#1183=AXIS2_PLACEMENT_3D('',#1705,#1374,#1375);
#1184=AXIS2_PLACEMENT_3D('',#1707,#1377,#1378);
#1185=AXIS2_PLACEMENT_3D('',#1710,#1381,#1382);
#1186=AXIS2_PLACEMENT_3D('',#1713,#1383,#1384);
#1187=AXIS2_PLACEMENT_3D('',#1717,#1386,#1387);
#1188=AXIS2_PLACEMENT_3D('',#1719,#1389,#1390);
#1189=AXIS2_PLACEMENT_3D('',#1725,#1394,#1395);
#1190=AXIS2_PLACEMENT_3D('',#1727,#1396,#1397);
#1191=AXIS2_PLACEMENT_3D('',#1729,#1398,#1399);
#1192=AXIS2_PLACEMENT_3D('',#1731,#1401,#1402);
#1193=AXIS2_PLACEMENT_3D('',#1734,#1405,#1406);
#1194=AXIS2_PLACEMENT_3D('',#1737,#1407,#1408);
#1195=AXIS2_PLACEMENT_3D('',#1741,#1410,#1411);
#1196=AXIS2_PLACEMENT_3D('',#1743,#1413,#1414);
#1197=AXIS2_PLACEMENT_3D('',#1749,#1418,#1419);
#1198=AXIS2_PLACEMENT_3D('',#1751,#1420,#1421);
#1199=AXIS2_PLACEMENT_3D('',#1753,#1422,#1423);
#1200=AXIS2_PLACEMENT_3D('',#1755,#1425,#1426);
#1201=AXIS2_PLACEMENT_3D('',#1758,#1429,#1430);
#1202=AXIS2_PLACEMENT_3D('',#1761,#1431,#1432);
#1203=AXIS2_PLACEMENT_3D('',#1765,#1434,#1435);
#1204=AXIS2_PLACEMENT_3D('',#1767,#1437,#1438);
#1205=AXIS2_PLACEMENT_3D('',#1773,#1442,#1443);
#1206=AXIS2_PLACEMENT_3D('',#1775,#1444,#1445);
#1207=AXIS2_PLACEMENT_3D('',#1777,#1446,#1447);
#1208=AXIS2_PLACEMENT_3D('',#1779,#1449,#1450);
#1209=AXIS2_PLACEMENT_3D('',#1782,#1453,#1454);
#1210=AXIS2_PLACEMENT_3D('',#1791,#1459,#1460);
#1211=AXIS2_PLACEMENT_3D('',#1797,#1464,#1465);
#1212=AXIS2_PLACEMENT_3D('',#1801,#1468,#1469);
#1213=AXIS2_PLACEMENT_3D('',#1805,#1472,#1473);
#1214=AXIS2_PLACEMENT_3D('',#1815,#1479,#1480);
#1215=AXIS2_PLACEMENT_3D('',#1817,#1481,#1482);
#1216=AXIS2_PLACEMENT_3D('',#1820,#1484,#1485);
#1217=AXIS2_PLACEMENT_3D('',#1821,#1486,#1487);
#1218=AXIS2_PLACEMENT_3D('',#1823,#1488,#1489);
#1219=AXIS2_PLACEMENT_3D('',#1824,#1490,#1491);
#1220=AXIS2_PLACEMENT_3D('',#1827,#1493,#1494);
#1221=AXIS2_PLACEMENT_3D('',#1828,#1495,#1496);
#1222=AXIS2_PLACEMENT_3D('',#1830,#1497,#1498);
#1223=AXIS2_PLACEMENT_3D('',#1833,#1500,#1501);
#1224=AXIS2_PLACEMENT_3D('',#1834,#1502,#1503);
#1225=AXIS2_PLACEMENT_3D('',#1836,#1504,#1505);
#1226=AXIS2_PLACEMENT_3D('',#1837,#1506,#1507);
#1227=AXIS2_PLACEMENT_3D('',#1840,#1509,#1510);
#1228=AXIS2_PLACEMENT_3D('',#1841,#1511,#1512);
#1229=AXIS2_PLACEMENT_3D('',#1843,#1513,#1514);
#1230=AXIS2_PLACEMENT_3D('',#1846,#1516,#1517);
#1231=AXIS2_PLACEMENT_3D('',#1847,#1518,#1519);
#1232=AXIS2_PLACEMENT_3D('',#1849,#1520,#1521);
#1233=AXIS2_PLACEMENT_3D('',#1850,#1522,#1523);
#1234=AXIS2_PLACEMENT_3D('',#1853,#1525,#1526);
#1235=AXIS2_PLACEMENT_3D('',#1854,#1527,#1528);
#1236=AXIS2_PLACEMENT_3D('',#1856,#1529,#1530);
#1237=AXIS2_PLACEMENT_3D('',#1859,#1532,#1533);
#1238=AXIS2_PLACEMENT_3D('',#1860,#1534,#1535);
#1239=AXIS2_PLACEMENT_3D('',#1862,#1536,#1537);
#1240=AXIS2_PLACEMENT_3D('',#1863,#1538,#1539);
#1241=AXIS2_PLACEMENT_3D('',#1866,#1541,#1542);
#1242=AXIS2_PLACEMENT_3D('',#1867,#1543,#1544);
#1243=AXIS2_PLACEMENT_3D('',#1872,#1546,#1547);
#1244=AXIS2_PLACEMENT_3D('',#1875,#1549,#1550);
#1245=AXIS2_PLACEMENT_3D('',#1876,#1551,#1552);
#1246=AXIS2_PLACEMENT_3D('',#1878,#1553,#1554);
#1247=AXIS2_PLACEMENT_3D('',#1883,#1557,#1558);
#1248=AXIS2_PLACEMENT_3D('',#1886,#1560,#1561);
#1249=AXIS2_PLACEMENT_3D('',#1887,#1562,#1563);
#1250=AXIS2_PLACEMENT_3D('',#1891,#1565,#1566);
#1251=AXIS2_PLACEMENT_3D('',#1893,#1568,#1569);
#1252=AXIS2_PLACEMENT_3D('',#1895,#1570,#1571);
#1253=AXIS2_PLACEMENT_3D('',#1897,#1573,#1574);
#1254=AXIS2_PLACEMENT_3D('',#1900,#1576,#1577);
#1255=AXIS2_PLACEMENT_3D('',#1901,#1578,#1579);
#1256=AXIS2_PLACEMENT_3D('',#1905,#1583,#1584);
#1257=AXIS2_PLACEMENT_3D('',#1906,#1585,#1586);
#1258=AXIS2_PLACEMENT_3D('',#1907,#1587,#1588);
#1259=DIRECTION('axis',(0.,0.,1.));
#1260=DIRECTION('refdir',(1.,0.,0.));
#1261=DIRECTION('center_axis',(0.,-1.,0.));
#1262=DIRECTION('ref_axis',(1.,0.,0.));
#1263=DIRECTION('center_axis',(0.,1.,0.));
#1264=DIRECTION('ref_axis',(1.,0.,0.));
#1265=DIRECTION('',(0.,1.,0.));
#1266=DIRECTION('center_axis',(0.,-1.,0.));
#1267=DIRECTION('ref_axis',(1.,0.,0.));
#1268=DIRECTION('',(0.,1.,0.));
#1269=DIRECTION('center_axis',(0.,0.,1.));
#1270=DIRECTION('ref_axis',(0.,-1.,0.));
#1271=DIRECTION('',(-1.,0.,0.));
#1272=DIRECTION('',(1.,0.,0.));
#1273=DIRECTION('',(0.,1.,0.));
#1274=DIRECTION('center_axis',(0.,-1.,0.));
#1275=DIRECTION('ref_axis',(-1.,0.,1.22464679914735E-16));
#1276=DIRECTION('center_axis',(0.,1.,0.));
#1277=DIRECTION('ref_axis',(1.,0.,0.));
#1278=DIRECTION('center_axis',(0.,-1.,0.));
#1279=DIRECTION('ref_axis',(1.,0.,0.));
#1280=DIRECTION('',(0.,1.,0.));
#1281=DIRECTION('center_axis',(0.,0.,-1.));
#1282=DIRECTION('ref_axis',(0.,1.,0.));
#1283=DIRECTION('',(1.,0.,0.));
#1284=DIRECTION('',(-1.,0.,0.));
#1285=DIRECTION('center_axis',(0.,-1.,0.));
#1286=DIRECTION('ref_axis',(1.,0.,0.));
#1287=DIRECTION('center_axis',(0.,1.,0.));
#1288=DIRECTION('ref_axis',(1.,0.,0.));
#1289=DIRECTION('',(0.,1.,0.));
#1290=DIRECTION('center_axis',(0.,-1.,0.));
#1291=DIRECTION('ref_axis',(1.,0.,0.));
#1292=DIRECTION('',(0.,1.,0.));
#1293=DIRECTION('center_axis',(0.,0.,1.));
#1294=DIRECTION('ref_axis',(0.,-1.,0.));
#1295=DIRECTION('',(-1.,0.,0.));
#1296=DIRECTION('',(1.,0.,0.));
#1297=DIRECTION('',(0.,1.,0.));
#1298=DIRECTION('center_axis',(0.,-1.,0.));
#1299=DIRECTION('ref_axis',(-1.,0.,1.22464679914735E-16));
#1300=DIRECTION('center_axis',(0.,1.,0.));
#1301=DIRECTION('ref_axis',(1.,0.,0.));
#1302=DIRECTION('center_axis',(0.,-1.,0.));
#1303=DIRECTION('ref_axis',(1.,0.,0.));
#1304=DIRECTION('',(0.,1.,0.));
#1305=DIRECTION('center_axis',(0.,0.,-1.));
#1306=DIRECTION('ref_axis',(0.,1.,0.));
#1307=DIRECTION('',(1.,0.,0.));
#1308=DIRECTION('',(-1.,0.,0.));
#1309=DIRECTION('center_axis',(0.,-1.,0.));
#1310=DIRECTION('ref_axis',(1.,0.,0.));
#1311=DIRECTION('center_axis',(0.,1.,0.));
#1312=DIRECTION('ref_axis',(1.,0.,0.));
#1313=DIRECTION('',(0.,1.,0.));
#1314=DIRECTION('center_axis',(0.,-1.,0.));
#1315=DIRECTION('ref_axis',(1.,0.,0.));
#1316=DIRECTION('',(0.,1.,0.));
#1317=DIRECTION('center_axis',(0.,0.,1.));
#1318=DIRECTION('ref_axis',(0.,-1.,0.));
#1319=DIRECTION('',(-1.,0.,0.));
#1320=DIRECTION('',(1.,0.,0.));
#1321=DIRECTION('',(0.,1.,0.));
#1322=DIRECTION('center_axis',(0.,-1.,0.));
#1323=DIRECTION('ref_axis',(-1.,0.,1.22464679914735E-16));
#1324=DIRECTION('center_axis',(0.,1.,0.));
#1325=DIRECTION('ref_axis',(1.,0.,0.));
#1326=DIRECTION('center_axis',(0.,-1.,0.));
#1327=DIRECTION('ref_axis',(1.,0.,0.));
#1328=DIRECTION('',(0.,1.,0.));
#1329=DIRECTION('center_axis',(0.,0.,-1.));
#1330=DIRECTION('ref_axis',(0.,1.,0.));
#1331=DIRECTION('',(1.,0.,0.));
#1332=DIRECTION('',(-1.,0.,0.));
#1333=DIRECTION('center_axis',(0.,-1.,0.));
#1334=DIRECTION('ref_axis',(1.,0.,0.));
#1335=DIRECTION('center_axis',(0.,1.,0.));
#1336=DIRECTION('ref_axis',(1.,0.,0.));
#1337=DIRECTION('',(0.,1.,0.));
#1338=DIRECTION('center_axis',(0.,-1.,0.));
#1339=DIRECTION('ref_axis',(1.,0.,0.));
#1340=DIRECTION('',(0.,1.,0.));
#1341=DIRECTION('center_axis',(0.,0.,1.));
#1342=DIRECTION('ref_axis',(0.,-1.,0.));
#1343=DIRECTION('',(-1.,0.,0.));
#1344=DIRECTION('',(1.,0.,0.));
#1345=DIRECTION('',(0.,1.,0.));
#1346=DIRECTION('center_axis',(0.,-1.,0.));
#1347=DIRECTION('ref_axis',(-1.,0.,1.22464679914735E-16));
#1348=DIRECTION('center_axis',(0.,1.,0.));
#1349=DIRECTION('ref_axis',(1.,0.,0.));
#1350=DIRECTION('center_axis',(0.,-1.,0.));
#1351=DIRECTION('ref_axis',(1.,0.,0.));
#1352=DIRECTION('',(0.,1.,0.));
#1353=DIRECTION('center_axis',(0.,0.,-1.));
#1354=DIRECTION('ref_axis',(0.,1.,0.));
#1355=DIRECTION('',(1.,0.,0.));
#1356=DIRECTION('',(-1.,0.,0.));
#1357=DIRECTION('center_axis',(0.,-1.,0.));
#1358=DIRECTION('ref_axis',(1.,0.,0.));
#1359=DIRECTION('center_axis',(0.,1.,0.));
#1360=DIRECTION('ref_axis',(1.,0.,0.));
#1361=DIRECTION('',(0.,1.,0.));
#1362=DIRECTION('center_axis',(0.,-1.,0.));
#1363=DIRECTION('ref_axis',(1.,0.,0.));
#1364=DIRECTION('',(0.,1.,0.));
#1365=DIRECTION('center_axis',(0.,0.,1.));
#1366=DIRECTION('ref_axis',(0.,-1.,0.));
#1367=DIRECTION('',(-1.,0.,0.));
#1368=DIRECTION('',(1.,0.,0.));
#1369=DIRECTION('',(0.,1.,0.));
#1370=DIRECTION('center_axis',(0.,-1.,0.));
#1371=DIRECTION('ref_axis',(-1.,0.,1.22464679914735E-16));
#1372=DIRECTION('center_axis',(0.,1.,0.));
#1373=DIRECTION('ref_axis',(1.,0.,0.));
#1374=DIRECTION('center_axis',(0.,-1.,0.));
#1375=DIRECTION('ref_axis',(1.,0.,0.));
#1376=DIRECTION('',(0.,1.,0.));
#1377=DIRECTION('center_axis',(0.,0.,-1.));
#1378=DIRECTION('ref_axis',(0.,1.,0.));
#1379=DIRECTION('',(1.,0.,0.));
#1380=DIRECTION('',(-1.,0.,0.));
#1381=DIRECTION('center_axis',(0.,-1.,0.));
#1382=DIRECTION('ref_axis',(1.,0.,0.));
#1383=DIRECTION('center_axis',(0.,1.,0.));
#1384=DIRECTION('ref_axis',(1.,0.,0.));
#1385=DIRECTION('',(0.,1.,0.));
#1386=DIRECTION('center_axis',(0.,-1.,0.));
#1387=DIRECTION('ref_axis',(1.,0.,0.));
#1388=DIRECTION('',(0.,1.,0.));
#1389=DIRECTION('center_axis',(0.,0.,1.));
#1390=DIRECTION('ref_axis',(0.,-1.,0.));
#1391=DIRECTION('',(-1.,0.,0.));
#1392=DIRECTION('',(1.,0.,0.));
#1393=DIRECTION('',(0.,1.,0.));
#1394=DIRECTION('center_axis',(0.,-1.,0.));
#1395=DIRECTION('ref_axis',(-1.,0.,1.22464679914735E-16));
#1396=DIRECTION('center_axis',(0.,1.,0.));
#1397=DIRECTION('ref_axis',(1.,0.,0.));
#1398=DIRECTION('center_axis',(0.,-1.,0.));
#1399=DIRECTION('ref_axis',(1.,0.,0.));
#1400=DIRECTION('',(0.,1.,0.));
#1401=DIRECTION('center_axis',(0.,0.,-1.));
#1402=DIRECTION('ref_axis',(0.,1.,0.));
#1403=DIRECTION('',(1.,0.,0.));
#1404=DIRECTION('',(-1.,0.,0.));
#1405=DIRECTION('center_axis',(0.,-1.,0.));
#1406=DIRECTION('ref_axis',(1.,0.,0.));
#1407=DIRECTION('center_axis',(0.,1.,0.));
#1408=DIRECTION('ref_axis',(1.,0.,0.));
#1409=DIRECTION('',(0.,1.,0.));
#1410=DIRECTION('center_axis',(0.,-1.,0.));
#1411=DIRECTION('ref_axis',(1.,0.,0.));
#1412=DIRECTION('',(0.,1.,0.));
#1413=DIRECTION('center_axis',(0.,0.,1.));
#1414=DIRECTION('ref_axis',(0.,-1.,0.));
#1415=DIRECTION('',(-1.,0.,0.));
#1416=DIRECTION('',(1.,0.,0.));
#1417=DIRECTION('',(0.,1.,0.));
#1418=DIRECTION('center_axis',(0.,-1.,0.));
#1419=DIRECTION('ref_axis',(-1.,0.,1.22464679914735E-16));
#1420=DIRECTION('center_axis',(0.,1.,0.));
#1421=DIRECTION('ref_axis',(1.,0.,0.));
#1422=DIRECTION('center_axis',(0.,-1.,0.));
#1423=DIRECTION('ref_axis',(1.,0.,0.));
#1424=DIRECTION('',(0.,1.,0.));
#1425=DIRECTION('center_axis',(0.,0.,-1.));
#1426=DIRECTION('ref_axis',(0.,1.,0.));
#1427=DIRECTION('',(1.,0.,0.));
#1428=DIRECTION('',(-1.,0.,0.));
#1429=DIRECTION('center_axis',(0.,-1.,0.));
#1430=DIRECTION('ref_axis',(1.,0.,0.));
#1431=DIRECTION('center_axis',(0.,1.,0.));
#1432=DIRECTION('ref_axis',(1.,0.,0.));
#1433=DIRECTION('',(0.,1.,0.));
#1434=DIRECTION('center_axis',(0.,-1.,0.));
#1435=DIRECTION('ref_axis',(1.,0.,0.));
#1436=DIRECTION('',(0.,1.,0.));
#1437=DIRECTION('center_axis',(0.,0.,1.));
#1438=DIRECTION('ref_axis',(0.,-1.,0.));
#1439=DIRECTION('',(-1.,0.,0.));
#1440=DIRECTION('',(1.,0.,0.));
#1441=DIRECTION('',(0.,1.,0.));
#1442=DIRECTION('center_axis',(0.,-1.,0.));
#1443=DIRECTION('ref_axis',(-1.,0.,1.22464679914735E-16));
#1444=DIRECTION('center_axis',(0.,1.,0.));
#1445=DIRECTION('ref_axis',(1.,0.,0.));
#1446=DIRECTION('center_axis',(0.,-1.,0.));
#1447=DIRECTION('ref_axis',(1.,0.,0.));
#1448=DIRECTION('',(0.,1.,0.));
#1449=DIRECTION('center_axis',(0.,0.,-1.));
#1450=DIRECTION('ref_axis',(0.,1.,0.));
#1451=DIRECTION('',(1.,0.,0.));
#1452=DIRECTION('',(-1.,0.,0.));
#1453=DIRECTION('center_axis',(0.,-1.,0.));
#1454=DIRECTION('ref_axis',(1.,0.,0.));
#1455=DIRECTION('',(-1.,0.,0.));
#1456=DIRECTION('',(0.,0.,-1.));
#1457=DIRECTION('',(1.,0.,0.));
#1458=DIRECTION('',(0.,0.,1.));
#1459=DIRECTION('center_axis',(1.,0.,0.));
#1460=DIRECTION('ref_axis',(0.,1.,0.));
#1461=DIRECTION('',(0.,-1.,0.));
#1462=DIRECTION('',(0.,1.,0.));
#1463=DIRECTION('',(0.,0.,1.));
#1464=DIRECTION('center_axis',(0.,0.,-1.));
#1465=DIRECTION('ref_axis',(0.,1.,0.));
#1466=DIRECTION('',(1.,0.,0.));
#1467=DIRECTION('',(0.,1.,0.));
#1468=DIRECTION('center_axis',(-1.,0.,0.));
#1469=DIRECTION('ref_axis',(0.,-1.,0.));
#1470=DIRECTION('',(0.,1.,0.));
#1471=DIRECTION('',(0.,0.,-1.));
#1472=DIRECTION('center_axis',(0.,0.,1.));
#1473=DIRECTION('ref_axis',(0.,-1.,0.));
#1474=DIRECTION('',(1.,0.,0.));
#1475=DIRECTION('',(0.,1.,0.));
#1476=DIRECTION('',(-1.,0.,0.));
#1477=DIRECTION('',(0.,1.,0.));
#1478=DIRECTION('',(1.,0.,0.));
#1479=DIRECTION('center_axis',(0.,-1.,0.));
#1480=DIRECTION('ref_axis',(1.,0.,0.));
#1481=DIRECTION('center_axis',(0.,-1.,0.));
#1482=DIRECTION('ref_axis',(1.,0.,0.));
#1483=DIRECTION('',(0.,-1.,0.));
#1484=DIRECTION('center_axis',(0.,-1.,0.));
#1485=DIRECTION('ref_axis',(1.,0.,0.));
#1486=DIRECTION('center_axis',(0.,-1.,0.));
#1487=DIRECTION('ref_axis',(1.,0.,0.));
#1488=DIRECTION('center_axis',(0.,1.,0.));
#1489=DIRECTION('ref_axis',(1.,0.,0.));
#1490=DIRECTION('center_axis',(0.,-1.,0.));
#1491=DIRECTION('ref_axis',(1.,0.,0.));
#1492=DIRECTION('',(0.,-1.,0.));
#1493=DIRECTION('center_axis',(0.,1.,0.));
#1494=DIRECTION('ref_axis',(1.,0.,0.));
#1495=DIRECTION('center_axis',(0.,-1.,0.));
#1496=DIRECTION('ref_axis',(1.,0.,0.));
#1497=DIRECTION('center_axis',(0.,-1.,0.));
#1498=DIRECTION('ref_axis',(1.,0.,0.));
#1499=DIRECTION('',(0.,-1.,0.));
#1500=DIRECTION('center_axis',(0.,-1.,0.));
#1501=DIRECTION('ref_axis',(1.,0.,0.));
#1502=DIRECTION('center_axis',(0.,-1.,0.));
#1503=DIRECTION('ref_axis',(1.,0.,0.));
#1504=DIRECTION('center_axis',(0.,1.,0.));
#1505=DIRECTION('ref_axis',(1.,0.,0.));
#1506=DIRECTION('center_axis',(0.,-1.,0.));
#1507=DIRECTION('ref_axis',(1.,0.,0.));
#1508=DIRECTION('',(0.,-1.,0.));
#1509=DIRECTION('center_axis',(0.,1.,0.));
#1510=DIRECTION('ref_axis',(1.,0.,0.));
#1511=DIRECTION('center_axis',(0.,-1.,0.));
#1512=DIRECTION('ref_axis',(1.,0.,0.));
#1513=DIRECTION('center_axis',(0.,-1.,0.));
#1514=DIRECTION('ref_axis',(1.,0.,0.));
#1515=DIRECTION('',(0.,-1.,0.));
#1516=DIRECTION('center_axis',(0.,-1.,0.));
#1517=DIRECTION('ref_axis',(1.,0.,0.));
#1518=DIRECTION('center_axis',(0.,-1.,0.));
#1519=DIRECTION('ref_axis',(1.,0.,0.));
#1520=DIRECTION('center_axis',(0.,1.,0.));
#1521=DIRECTION('ref_axis',(1.,0.,0.));
#1522=DIRECTION('center_axis',(0.,-1.,0.));
#1523=DIRECTION('ref_axis',(1.,0.,0.));
#1524=DIRECTION('',(0.,-1.,0.));
#1525=DIRECTION('center_axis',(0.,1.,0.));
#1526=DIRECTION('ref_axis',(1.,0.,0.));
#1527=DIRECTION('center_axis',(0.,-1.,0.));
#1528=DIRECTION('ref_axis',(1.,0.,0.));
#1529=DIRECTION('center_axis',(0.,-1.,0.));
#1530=DIRECTION('ref_axis',(1.,0.,0.));
#1531=DIRECTION('',(0.,-1.,0.));
#1532=DIRECTION('center_axis',(0.,-1.,0.));
#1533=DIRECTION('ref_axis',(1.,0.,0.));
#1534=DIRECTION('center_axis',(0.,-1.,0.));
#1535=DIRECTION('ref_axis',(1.,0.,0.));
#1536=DIRECTION('center_axis',(0.,1.,0.));
#1537=DIRECTION('ref_axis',(1.,0.,0.));
#1538=DIRECTION('center_axis',(0.,-1.,0.));
#1539=DIRECTION('ref_axis',(1.,0.,0.));
#1540=DIRECTION('',(0.,-1.,0.));
#1541=DIRECTION('center_axis',(0.,1.,0.));
#1542=DIRECTION('ref_axis',(1.,0.,0.));
#1543=DIRECTION('center_axis',(0.,-1.,0.));
#1544=DIRECTION('ref_axis',(1.,0.,0.));
#1545=DIRECTION('',(0.,1.,0.));
#1546=DIRECTION('center_axis',(0.,1.,0.));
#1547=DIRECTION('ref_axis',(1.,0.,0.));
#1548=DIRECTION('',(0.,1.,0.));
#1549=DIRECTION('center_axis',(0.,-1.,0.));
#1550=DIRECTION('ref_axis',(1.,0.,0.));
#1551=DIRECTION('center_axis',(0.,-1.,0.));
#1552=DIRECTION('ref_axis',(1.,0.,0.));
#1553=DIRECTION('center_axis',(0.,-1.,0.));
#1554=DIRECTION('ref_axis',(1.,0.,0.));
#1555=DIRECTION('',(0.,0.,1.));
#1556=DIRECTION('',(-1.,0.,0.));
#1557=DIRECTION('center_axis',(0.,-1.,0.));
#1558=DIRECTION('ref_axis',(1.,0.,0.));
#1559=DIRECTION('',(0.,0.,-1.));
#1560=DIRECTION('center_axis',(0.,-1.,0.));
#1561=DIRECTION('ref_axis',(1.,0.,0.));
#1562=DIRECTION('center_axis',(0.,-1.,0.));
#1563=DIRECTION('ref_axis',(1.,0.,0.));
#1564=DIRECTION('',(0.,1.,0.));
#1565=DIRECTION('center_axis',(0.,1.,0.));
#1566=DIRECTION('ref_axis',(1.,0.,0.));
#1567=DIRECTION('',(0.,1.,0.));
#1568=DIRECTION('center_axis',(0.,-1.,0.));
#1569=DIRECTION('ref_axis',(1.,0.,0.));
#1570=DIRECTION('center_axis',(0.,1.,0.));
#1571=DIRECTION('ref_axis',(1.,0.,0.));
#1572=DIRECTION('',(0.,1.,0.));
#1573=DIRECTION('center_axis',(0.,-1.,0.));
#1574=DIRECTION('ref_axis',(1.,0.,0.));
#1575=DIRECTION('',(0.,1.,0.));
#1576=DIRECTION('center_axis',(0.,1.,0.));
#1577=DIRECTION('ref_axis',(1.,0.,0.));
#1578=DIRECTION('center_axis',(0.,-1.,0.));
#1579=DIRECTION('ref_axis',(1.,0.,0.));
#1580=DIRECTION('',(0.,0.,-1.));
#1581=DIRECTION('',(0.,0.,1.));
#1582=DIRECTION('',(1.,0.,0.));
#1583=DIRECTION('center_axis',(1.,0.,0.));
#1584=DIRECTION('ref_axis',(0.,1.,0.));
#1585=DIRECTION('center_axis',(-1.,0.,0.));
#1586=DIRECTION('ref_axis',(0.,-1.,0.));
#1587=DIRECTION('center_axis',(0.,0.,-1.));
#1588=DIRECTION('ref_axis',(0.,1.,0.));
#1589=CARTESIAN_POINT('',(0.,0.,0.));
#1590=CARTESIAN_POINT('Origin',(92.9,10.67,38.9));
#1591=CARTESIAN_POINT('',(92.9,9.67,40.));
#1592=CARTESIAN_POINT('',(92.9,9.67,37.8));
#1593=CARTESIAN_POINT('Origin',(92.9,9.67,38.9));
#1594=CARTESIAN_POINT('',(92.9,11.67,40.));
#1595=CARTESIAN_POINT('',(92.9,10.67,40.));
#1596=CARTESIAN_POINT('',(92.9,11.67,37.8));
#1597=CARTESIAN_POINT('Origin',(92.9,11.67,38.9));
#1598=CARTESIAN_POINT('',(92.9,10.67,37.8));
#1599=CARTESIAN_POINT('Origin',(84.,10.67,37.8));
#1600=CARTESIAN_POINT('',(75.1,9.67,37.8));
#1601=CARTESIAN_POINT('',(74.65,9.67,37.8));
#1602=CARTESIAN_POINT('',(75.1,11.67,37.8));
#1603=CARTESIAN_POINT('',(74.65,11.67,37.8));
#1604=CARTESIAN_POINT('',(75.1,10.67,37.8));
#1605=CARTESIAN_POINT('Origin',(75.1,10.67,38.9));
#1606=CARTESIAN_POINT('',(75.1,9.67,40.));
#1607=CARTESIAN_POINT('Origin',(75.1,9.67,38.9));
#1608=CARTESIAN_POINT('',(75.1,11.67,40.));
#1609=CARTESIAN_POINT('Origin',(75.1,11.67,38.9));
#1610=CARTESIAN_POINT('',(75.1,10.67,40.));
#1611=CARTESIAN_POINT('Origin',(84.,10.67,40.));
#1612=CARTESIAN_POINT('',(74.65,9.67,40.));
#1613=CARTESIAN_POINT('',(74.65,11.67,40.));
#1614=CARTESIAN_POINT('Origin',(92.9,10.67,35.5));
#1615=CARTESIAN_POINT('',(92.9,9.67,36.6));
#1616=CARTESIAN_POINT('',(92.9,9.67,34.4));
#1617=CARTESIAN_POINT('Origin',(92.9,9.67,35.5));
#1618=CARTESIAN_POINT('',(92.9,11.67,36.6));
#1619=CARTESIAN_POINT('',(92.9,10.67,36.6));
#1620=CARTESIAN_POINT('',(92.9,11.67,34.4));
#1621=CARTESIAN_POINT('Origin',(92.9,11.67,35.5));
#1622=CARTESIAN_POINT('',(92.9,10.67,34.4));
#1623=CARTESIAN_POINT('Origin',(84.,10.67,34.4));
#1624=CARTESIAN_POINT('',(75.1,9.67,34.4));
#1625=CARTESIAN_POINT('',(74.65,9.67,34.4));
#1626=CARTESIAN_POINT('',(75.1,11.67,34.4));
#1627=CARTESIAN_POINT('',(74.65,11.67,34.4));
#1628=CARTESIAN_POINT('',(75.1,10.67,34.4));
#1629=CARTESIAN_POINT('Origin',(75.1,10.67,35.5));
#1630=CARTESIAN_POINT('',(75.1,9.67,36.6));
#1631=CARTESIAN_POINT('Origin',(75.1,9.67,35.5));
#1632=CARTESIAN_POINT('',(75.1,11.67,36.6));
#1633=CARTESIAN_POINT('Origin',(75.1,11.67,35.5));
#1634=CARTESIAN_POINT('',(75.1,10.67,36.6));
#1635=CARTESIAN_POINT('Origin',(84.,10.67,36.6));
#1636=CARTESIAN_POINT('',(74.65,9.67,36.6));
#1637=CARTESIAN_POINT('',(74.65,11.67,36.6));
#1638=CARTESIAN_POINT('Origin',(92.9,10.67,32.1));
#1639=CARTESIAN_POINT('',(92.9,9.67,33.2));
#1640=CARTESIAN_POINT('',(92.9,9.67,31.));
#1641=CARTESIAN_POINT('Origin',(92.9,9.67,32.1));
#1642=CARTESIAN_POINT('',(92.9,11.67,33.2));
#1643=CARTESIAN_POINT('',(92.9,10.67,33.2));
#1644=CARTESIAN_POINT('',(92.9,11.67,31.));
#1645=CARTESIAN_POINT('Origin',(92.9,11.67,32.1));
#1646=CARTESIAN_POINT('',(92.9,10.67,31.));
#1647=CARTESIAN_POINT('Origin',(84.,10.67,31.));
#1648=CARTESIAN_POINT('',(75.1,9.67,31.));
#1649=CARTESIAN_POINT('',(74.65,9.67,31.));
#1650=CARTESIAN_POINT('',(75.1,11.67,31.));
#1651=CARTESIAN_POINT('',(74.65,11.67,31.));
#1652=CARTESIAN_POINT('',(75.1,10.67,31.));
#1653=CARTESIAN_POINT('Origin',(75.1,10.67,32.1));
#1654=CARTESIAN_POINT('',(75.1,9.67,33.2));
#1655=CARTESIAN_POINT('Origin',(75.1,9.67,32.1));
#1656=CARTESIAN_POINT('',(75.1,11.67,33.2));
#1657=CARTESIAN_POINT('Origin',(75.1,11.67,32.1));
#1658=CARTESIAN_POINT('',(75.1,10.67,33.2));
#1659=CARTESIAN_POINT('Origin',(84.,10.67,33.2));
#1660=CARTESIAN_POINT('',(74.65,9.67,33.2));
#1661=CARTESIAN_POINT('',(74.65,11.67,33.2));
#1662=CARTESIAN_POINT('Origin',(92.9,10.67,28.7));
#1663=CARTESIAN_POINT('',(92.9,9.67,29.8));
#1664=CARTESIAN_POINT('',(92.9,9.67,27.6));
#1665=CARTESIAN_POINT('Origin',(92.9,9.67,28.7));
#1666=CARTESIAN_POINT('',(92.9,11.67,29.8));
#1667=CARTESIAN_POINT('',(92.9,10.67,29.8));
#1668=CARTESIAN_POINT('',(92.9,11.67,27.6));
#1669=CARTESIAN_POINT('Origin',(92.9,11.67,28.7));
#1670=CARTESIAN_POINT('',(92.9,10.67,27.6));
#1671=CARTESIAN_POINT('Origin',(84.,10.67,27.6));
#1672=CARTESIAN_POINT('',(75.1,9.67,27.6));
#1673=CARTESIAN_POINT('',(74.65,9.67,27.6));
#1674=CARTESIAN_POINT('',(75.1,11.67,27.6));
#1675=CARTESIAN_POINT('',(74.65,11.67,27.6));
#1676=CARTESIAN_POINT('',(75.1,10.67,27.6));
#1677=CARTESIAN_POINT('Origin',(75.1,10.67,28.7));
#1678=CARTESIAN_POINT('',(75.1,9.67,29.8));
#1679=CARTESIAN_POINT('Origin',(75.1,9.67,28.7));
#1680=CARTESIAN_POINT('',(75.1,11.67,29.8));
#1681=CARTESIAN_POINT('Origin',(75.1,11.67,28.7));
#1682=CARTESIAN_POINT('',(75.1,10.67,29.8));
#1683=CARTESIAN_POINT('Origin',(84.,10.67,29.8));
#1684=CARTESIAN_POINT('',(74.65,9.67,29.8));
#1685=CARTESIAN_POINT('',(74.65,11.67,29.8));
#1686=CARTESIAN_POINT('Origin',(92.9,10.67,25.3));
#1687=CARTESIAN_POINT('',(92.9,9.67,26.4));
#1688=CARTESIAN_POINT('',(92.9,9.67,24.2));
#1689=CARTESIAN_POINT('Origin',(92.9,9.67,25.3));
#1690=CARTESIAN_POINT('',(92.9,11.67,26.4));
#1691=CARTESIAN_POINT('',(92.9,10.67,26.4));
#1692=CARTESIAN_POINT('',(92.9,11.67,24.2));
#1693=CARTESIAN_POINT('Origin',(92.9,11.67,25.3));
#1694=CARTESIAN_POINT('',(92.9,10.67,24.2));
#1695=CARTESIAN_POINT('Origin',(84.,10.67,24.2));
#1696=CARTESIAN_POINT('',(75.1,9.67,24.2));
#1697=CARTESIAN_POINT('',(74.65,9.67,24.2));
#1698=CARTESIAN_POINT('',(75.1,11.67,24.2));
#1699=CARTESIAN_POINT('',(74.65,11.67,24.2));
#1700=CARTESIAN_POINT('',(75.1,10.67,24.2));
#1701=CARTESIAN_POINT('Origin',(75.1,10.67,25.3));
#1702=CARTESIAN_POINT('',(75.1,9.67,26.4));
#1703=CARTESIAN_POINT('Origin',(75.1,9.67,25.3));
#1704=CARTESIAN_POINT('',(75.1,11.67,26.4));
#1705=CARTESIAN_POINT('Origin',(75.1,11.67,25.3));
#1706=CARTESIAN_POINT('',(75.1,10.67,26.4));
#1707=CARTESIAN_POINT('Origin',(84.,10.67,26.4));
#1708=CARTESIAN_POINT('',(74.65,9.67,26.4));
#1709=CARTESIAN_POINT('',(74.65,11.67,26.4));
#1710=CARTESIAN_POINT('Origin',(92.9,10.67,21.9));
#1711=CARTESIAN_POINT('',(92.9,9.67,23.));
#1712=CARTESIAN_POINT('',(92.9,9.67,20.8));
#1713=CARTESIAN_POINT('Origin',(92.9,9.67,21.9));
#1714=CARTESIAN_POINT('',(92.9,11.67,23.));
#1715=CARTESIAN_POINT('',(92.9,10.67,23.));
#1716=CARTESIAN_POINT('',(92.9,11.67,20.8));
#1717=CARTESIAN_POINT('Origin',(92.9,11.67,21.9));
#1718=CARTESIAN_POINT('',(92.9,10.67,20.8));
#1719=CARTESIAN_POINT('Origin',(84.,10.67,20.8));
#1720=CARTESIAN_POINT('',(75.1,9.67,20.8));
#1721=CARTESIAN_POINT('',(74.65,9.67,20.8));
#1722=CARTESIAN_POINT('',(75.1,11.67,20.8));
#1723=CARTESIAN_POINT('',(74.65,11.67,20.8));
#1724=CARTESIAN_POINT('',(75.1,10.67,20.8));
#1725=CARTESIAN_POINT('Origin',(75.1,10.67,21.9));
#1726=CARTESIAN_POINT('',(75.1,9.67,23.));
#1727=CARTESIAN_POINT('Origin',(75.1,9.67,21.9));
#1728=CARTESIAN_POINT('',(75.1,11.67,23.));
#1729=CARTESIAN_POINT('Origin',(75.1,11.67,21.9));
#1730=CARTESIAN_POINT('',(75.1,10.67,23.));
#1731=CARTESIAN_POINT('Origin',(84.,10.67,23.));
#1732=CARTESIAN_POINT('',(74.65,9.67,23.));
#1733=CARTESIAN_POINT('',(74.65,11.67,23.));
#1734=CARTESIAN_POINT('Origin',(92.9,10.67,18.5));
#1735=CARTESIAN_POINT('',(92.9,9.67,19.6));
#1736=CARTESIAN_POINT('',(92.9,9.67,17.4));
#1737=CARTESIAN_POINT('Origin',(92.9,9.67,18.5));
#1738=CARTESIAN_POINT('',(92.9,11.67,19.6));
#1739=CARTESIAN_POINT('',(92.9,10.67,19.6));
#1740=CARTESIAN_POINT('',(92.9,11.67,17.4));
#1741=CARTESIAN_POINT('Origin',(92.9,11.67,18.5));
#1742=CARTESIAN_POINT('',(92.9,10.67,17.4));
#1743=CARTESIAN_POINT('Origin',(84.,10.67,17.4));
#1744=CARTESIAN_POINT('',(75.1,9.67,17.4));
#1745=CARTESIAN_POINT('',(74.65,9.67,17.4));
#1746=CARTESIAN_POINT('',(75.1,11.67,17.4));
#1747=CARTESIAN_POINT('',(74.65,11.67,17.4));
#1748=CARTESIAN_POINT('',(75.1,10.67,17.4));
#1749=CARTESIAN_POINT('Origin',(75.1,10.67,18.5));
#1750=CARTESIAN_POINT('',(75.1,9.67,19.6));
#1751=CARTESIAN_POINT('Origin',(75.1,9.67,18.5));
#1752=CARTESIAN_POINT('',(75.1,11.67,19.6));
#1753=CARTESIAN_POINT('Origin',(75.1,11.67,18.5));
#1754=CARTESIAN_POINT('',(75.1,10.67,19.6));
#1755=CARTESIAN_POINT('Origin',(84.,10.67,19.6));
#1756=CARTESIAN_POINT('',(74.65,9.67,19.6));
#1757=CARTESIAN_POINT('',(74.65,11.67,19.6));
#1758=CARTESIAN_POINT('Origin',(92.9,10.67,15.1));
#1759=CARTESIAN_POINT('',(92.9,9.67,16.2));
#1760=CARTESIAN_POINT('',(92.9,9.67,14.));
#1761=CARTESIAN_POINT('Origin',(92.9,9.67,15.1));
#1762=CARTESIAN_POINT('',(92.9,11.67,16.2));
#1763=CARTESIAN_POINT('',(92.9,10.67,16.2));
#1764=CARTESIAN_POINT('',(92.9,11.67,14.));
#1765=CARTESIAN_POINT('Origin',(92.9,11.67,15.1));
#1766=CARTESIAN_POINT('',(92.9,10.67,14.));
#1767=CARTESIAN_POINT('Origin',(84.,10.67,14.));
#1768=CARTESIAN_POINT('',(75.1,9.67,14.));
#1769=CARTESIAN_POINT('',(74.65,9.67,14.));
#1770=CARTESIAN_POINT('',(75.1,11.67,14.));
#1771=CARTESIAN_POINT('',(74.65,11.67,14.));
#1772=CARTESIAN_POINT('',(75.1,10.67,14.));
#1773=CARTESIAN_POINT('Origin',(75.1,10.67,15.1));
#1774=CARTESIAN_POINT('',(75.1,9.67,16.2));
#1775=CARTESIAN_POINT('Origin',(75.1,9.67,15.1));
#1776=CARTESIAN_POINT('',(75.1,11.67,16.2));
#1777=CARTESIAN_POINT('Origin',(75.1,11.67,15.1));
#1778=CARTESIAN_POINT('',(75.1,10.67,16.2));
#1779=CARTESIAN_POINT('Origin',(84.,10.67,16.2));
#1780=CARTESIAN_POINT('',(74.65,9.67,16.2));
#1781=CARTESIAN_POINT('',(74.65,11.67,16.2));
#1782=CARTESIAN_POINT('Origin',(62.65,10.37,-0.8));
#1783=CARTESIAN_POINT('',(76.8,10.37,-0.799999999999996));
#1784=CARTESIAN_POINT('',(48.5,10.37,-0.799999999999996));
#1785=CARTESIAN_POINT('',(63.975,10.37,-0.799999999999996));
#1786=CARTESIAN_POINT('',(76.8,10.37,0.4));
#1787=CARTESIAN_POINT('',(76.8,10.37,-0.8));
#1788=CARTESIAN_POINT('',(48.5,10.37,0.4));
#1789=CARTESIAN_POINT('',(62.65,10.37,0.4));
#1790=CARTESIAN_POINT('',(48.5,10.37,-0.8));
#1791=CARTESIAN_POINT('Origin',(48.5,9.52,-0.8));
#1792=CARTESIAN_POINT('',(48.5,9.67,-0.799999999999996));
#1793=CARTESIAN_POINT('',(48.5,10.095,-0.799999999999996));
#1794=CARTESIAN_POINT('',(48.5,9.67,0.4));
#1795=CARTESIAN_POINT('',(48.5,9.52,0.4));
#1796=CARTESIAN_POINT('',(48.5,9.67,18.4));
#1797=CARTESIAN_POINT('Origin',(62.65,9.52,0.4));
#1798=CARTESIAN_POINT('',(76.8,9.67,0.4));
#1799=CARTESIAN_POINT('',(63.975,9.67,0.4));
#1800=CARTESIAN_POINT('',(76.8,9.52,0.4));
#1801=CARTESIAN_POINT('Origin',(76.8,9.52,-0.8));
#1802=CARTESIAN_POINT('',(76.8,9.67,-0.799999999999996));
#1803=CARTESIAN_POINT('',(76.8,10.095,-0.799999999999996));
#1804=CARTESIAN_POINT('',(76.8,9.67,18.4));
#1805=CARTESIAN_POINT('Origin',(65.3,10.67,-0.799999999999996));
#1806=CARTESIAN_POINT('',(1.00000000000001,9.67,-0.799999999999996));
#1807=CARTESIAN_POINT('',(65.3,9.67,-0.799999999999996));
#1808=CARTESIAN_POINT('',(1.00000000000001,11.67,-0.799999999999996));
#1809=CARTESIAN_POINT('',(1.00000000000001,10.67,-0.799999999999996));
#1810=CARTESIAN_POINT('',(129.6,11.67,-0.799999999999996));
#1811=CARTESIAN_POINT('',(65.3,11.67,-0.799999999999996));
#1812=CARTESIAN_POINT('',(129.6,9.67,-0.799999999999996));
#1813=CARTESIAN_POINT('',(129.6,10.67,-0.799999999999996));
#1814=CARTESIAN_POINT('',(65.3,9.67,-0.799999999999996));
#1815=CARTESIAN_POINT('Origin',(127.19,11.82,71.83));
#1816=CARTESIAN_POINT('',(124.09,11.67,71.83));
#1817=CARTESIAN_POINT('Origin',(127.19,11.67,71.83));
#1818=CARTESIAN_POINT('',(124.09,10.97,71.83));
#1819=CARTESIAN_POINT('',(124.09,11.82,71.83));
#1820=CARTESIAN_POINT('Origin',(127.19,10.97,71.83));
#1821=CARTESIAN_POINT('Origin',(127.19,10.97,71.83));
#1822=CARTESIAN_POINT('',(125.49,10.97,71.83));
#1823=CARTESIAN_POINT('Origin',(127.19,10.97,71.83));
#1824=CARTESIAN_POINT('Origin',(127.19,10.67,71.83));
#1825=CARTESIAN_POINT('',(125.49,9.67,71.83));
#1826=CARTESIAN_POINT('',(125.49,10.67,71.83));
#1827=CARTESIAN_POINT('Origin',(127.19,9.67,71.83));
#1828=CARTESIAN_POINT('Origin',(3.4,11.82,71.83));
#1829=CARTESIAN_POINT('',(0.3,11.67,71.83));
#1830=CARTESIAN_POINT('Origin',(3.4,11.67,71.83));
#1831=CARTESIAN_POINT('',(0.3,10.97,71.83));
#1832=CARTESIAN_POINT('',(0.3,11.82,71.83));
#1833=CARTESIAN_POINT('Origin',(3.4,10.97,71.83));
#1834=CARTESIAN_POINT('Origin',(3.4,10.97,71.83));
#1835=CARTESIAN_POINT('',(1.7,10.97,71.83));
#1836=CARTESIAN_POINT('Origin',(3.4,10.97,71.83));
#1837=CARTESIAN_POINT('Origin',(3.4,10.67,71.83));
#1838=CARTESIAN_POINT('',(1.7,9.67,71.83));
#1839=CARTESIAN_POINT('',(1.7,10.67,71.83));
#1840=CARTESIAN_POINT('Origin',(3.4,9.67,71.83));
#1841=CARTESIAN_POINT('Origin',(127.19,11.82,3.4));
#1842=CARTESIAN_POINT('',(124.09,11.67,3.4));
#1843=CARTESIAN_POINT('Origin',(127.19,11.67,3.4));
#1844=CARTESIAN_POINT('',(124.09,10.97,3.4));
#1845=CARTESIAN_POINT('',(124.09,11.82,3.4));
#1846=CARTESIAN_POINT('Origin',(127.19,10.97,3.4));
#1847=CARTESIAN_POINT('Origin',(127.19,10.97,3.4));
#1848=CARTESIAN_POINT('',(125.49,10.97,3.4));
#1849=CARTESIAN_POINT('Origin',(127.19,10.97,3.4));
#1850=CARTESIAN_POINT('Origin',(127.19,10.67,3.4));
#1851=CARTESIAN_POINT('',(125.49,9.67,3.4));
#1852=CARTESIAN_POINT('',(125.49,10.67,3.4));
#1853=CARTESIAN_POINT('Origin',(127.19,9.67,3.4));
#1854=CARTESIAN_POINT('Origin',(3.4,11.82,3.4));
#1855=CARTESIAN_POINT('',(0.3,11.67,3.4));
#1856=CARTESIAN_POINT('Origin',(3.4,11.67,3.4));
#1857=CARTESIAN_POINT('',(0.3,10.97,3.4));
#1858=CARTESIAN_POINT('',(0.3,11.82,3.4));
#1859=CARTESIAN_POINT('Origin',(3.4,10.97,3.4));
#1860=CARTESIAN_POINT('Origin',(3.4,10.97,3.4));
#1861=CARTESIAN_POINT('',(1.7,10.97,3.4));
#1862=CARTESIAN_POINT('Origin',(3.4,10.97,3.4));
#1863=CARTESIAN_POINT('Origin',(3.4,10.67,3.4));
#1864=CARTESIAN_POINT('',(1.7,9.67,3.4));
#1865=CARTESIAN_POINT('',(1.7,10.67,3.4));
#1866=CARTESIAN_POINT('Origin',(3.4,9.67,3.4));
#1867=CARTESIAN_POINT('Origin',(129.6,10.67,73.2));
#1868=CARTESIAN_POINT('',(132.4,9.67,73.2));
#1869=CARTESIAN_POINT('',(132.4,11.67,73.2));
#1870=CARTESIAN_POINT('',(132.4,10.67,73.2));
#1871=CARTESIAN_POINT('',(129.6,11.67,76.));
#1872=CARTESIAN_POINT('Origin',(129.6,11.67,73.2));
#1873=CARTESIAN_POINT('',(129.6,9.67,76.));
#1874=CARTESIAN_POINT('',(129.6,10.67,76.));
#1875=CARTESIAN_POINT('Origin',(129.6,9.67,73.2));
#1876=CARTESIAN_POINT('Origin',(65.3,9.67,37.6));
#1877=CARTESIAN_POINT('',(132.4,9.67,2.));
#1878=CARTESIAN_POINT('Origin',(129.6,9.67,2.));
#1879=CARTESIAN_POINT('',(132.4,9.67,37.6));
#1880=CARTESIAN_POINT('',(1.00000000000001,9.67,76.));
#1881=CARTESIAN_POINT('',(65.3,9.67,76.));
#1882=CARTESIAN_POINT('',(-1.80000000000001,9.67,73.2));
#1883=CARTESIAN_POINT('Origin',(1.,9.67,73.2));
#1884=CARTESIAN_POINT('',(-1.80000000000001,9.67,2.));
#1885=CARTESIAN_POINT('',(-1.80000000000001,9.67,37.6));
#1886=CARTESIAN_POINT('Origin',(1.,9.67,2.));
#1887=CARTESIAN_POINT('Origin',(1.,10.67,73.2));
#1888=CARTESIAN_POINT('',(1.00000000000001,11.67,76.));
#1889=CARTESIAN_POINT('',(1.00000000000001,10.67,76.));
#1890=CARTESIAN_POINT('',(-1.80000000000001,11.67,73.2));
#1891=CARTESIAN_POINT('Origin',(1.,11.67,73.2));
#1892=CARTESIAN_POINT('',(-1.80000000000001,10.67,73.2));
#1893=CARTESIAN_POINT('Origin',(129.6,10.67,2.));
#1894=CARTESIAN_POINT('',(132.4,11.67,2.));
#1895=CARTESIAN_POINT('Origin',(129.6,11.67,2.));
#1896=CARTESIAN_POINT('',(132.4,10.67,2.));
#1897=CARTESIAN_POINT('Origin',(1.,10.67,2.));
#1898=CARTESIAN_POINT('',(-1.80000000000001,11.67,2.));
#1899=CARTESIAN_POINT('',(-1.80000000000001,10.67,2.));
#1900=CARTESIAN_POINT('Origin',(1.,11.67,2.));
#1901=CARTESIAN_POINT('Origin',(65.3,11.67,37.6));
#1902=CARTESIAN_POINT('',(132.4,11.67,37.6));
#1903=CARTESIAN_POINT('',(-1.80000000000001,11.67,37.6));
#1904=CARTESIAN_POINT('',(65.3,11.67,76.));
#1905=CARTESIAN_POINT('Origin',(-1.80000000000001,10.67,37.6));
#1906=CARTESIAN_POINT('Origin',(132.4,10.67,37.6));
#1907=CARTESIAN_POINT('Origin',(65.3,10.67,76.));
#1908=UNCERTAINTY_MEASURE_WITH_UNIT(LENGTH_MEASURE(0.01),#1912,
'DISTANCE_ACCURACY_VALUE',
'Maximum model space distance between geometric entities at asserted c
onnectivities');
#1909=UNCERTAINTY_MEASURE_WITH_UNIT(LENGTH_MEASURE(0.01),#1912,
'DISTANCE_ACCURACY_VALUE',
'Maximum model space distance between geometric entities at asserted c
onnectivities');
#1910=(
GEOMETRIC_REPRESENTATION_CONTEXT(3)
GLOBAL_UNCERTAINTY_ASSIGNED_CONTEXT((#1908))
GLOBAL_UNIT_ASSIGNED_CONTEXT((#1912,#1914,#1915))
REPRESENTATION_CONTEXT('','3D')
);
#1911=(
GEOMETRIC_REPRESENTATION_CONTEXT(3)
GLOBAL_UNCERTAINTY_ASSIGNED_CONTEXT((#1909))
GLOBAL_UNIT_ASSIGNED_CONTEXT((#1912,#1914,#1915))
REPRESENTATION_CONTEXT('','3D')
);
#1912=(
LENGTH_UNIT()
NAMED_UNIT(*)
SI_UNIT(.MILLI.,.METRE.)
);
#1913=(
LENGTH_UNIT()
NAMED_UNIT(*)
SI_UNIT($,.METRE.)
);
#1914=(
NAMED_UNIT(*)
PLANE_ANGLE_UNIT()
SI_UNIT($,.RADIAN.)
);
#1915=(
NAMED_UNIT(*)
SI_UNIT($,.STERADIAN.)
SOLID_ANGLE_UNIT()
);
#1916=SHAPE_DEFINITION_REPRESENTATION(#1917,#1918);
#1917=PRODUCT_DEFINITION_SHAPE('',$,#1920);
#1918=SHAPE_REPRESENTATION('',(#1144),#1910);
#1919=PRODUCT_DEFINITION_CONTEXT('part definition',#1924,'design');
#1920=PRODUCT_DEFINITION('Head back cover','Head back cover',#1921,#1919);
#1921=PRODUCT_DEFINITION_FORMATION('',$,#1926);
#1922=PRODUCT_RELATED_PRODUCT_CATEGORY('Head back cover',
'Head back cover',(#1926));
#1923=APPLICATION_PROTOCOL_DEFINITION('international standard',
'automotive_design',2009,#1924);
#1924=APPLICATION_CONTEXT(
'Core Data for Automotive Mechanical Design Process');
#1925=PRODUCT_CONTEXT('part definition',#1924,'mechanical');
#1926=PRODUCT('Head back cover','Head back cover',$,(#1925));
#1927=PRESENTATION_STYLE_ASSIGNMENT((#1928));
#1928=SURFACE_STYLE_USAGE(.BOTH.,#1929);
#1929=SURFACE_SIDE_STYLE('',(#1930));
#1930=SURFACE_STYLE_FILL_AREA(#1931);
#1931=FILL_AREA_STYLE('Steel - Satin',(#1932));
#1932=FILL_AREA_STYLE_COLOUR('Steel - Satin',#1933);
#1933=COLOUR_RGB('Steel - Satin',0.627450980392157,0.627450980392157,0.627450980392157);
ENDSEC;
END-ISO-10303-21;
