ISO-10303-21;
HEADER;
/* Generated by software containing ST-Developer
 * from STEP Tools, Inc. (www.steptools.com) 
 */

FILE_DESCRIPTION(
/* description */ (''),
/* implementation_level */ '2;1');

FILE_NAME(
/* name */ 'head-back-cover.step',
/* time_stamp */ '2026-09-10T22:13:16+01:00',
/* author */ (''),
/* organization */ (''),
/* preprocessor_version */ 'ST-DEVELOPER v20.2',
/* originating_system */ 'Autodesk Translation Framework v15.15.0.0',
/* authorisation */ '');

FILE_SCHEMA (('AUTOMOTIVE_DESIGN { 1 0 10303 214 3 1 1 }'));
ENDSEC;

DATA;
#10=MECHANICAL_DESIGN_GEOMETRIC_PRESENTATION_REPRESENTATION('',(#13),#2447);
#11=SHAPE_REPRESENTATION_RELATIONSHIP('SRR','None',#2454,#12);
#12=ADVANCED_BREP_SHAPE_REPRESENTATION('',(#14),#2446);
#13=STYLED_ITEM('',(#2463),#14);
#14=MANIFOLD_SOLID_BREP('Body1',#1523);
#15=FACE_BOUND('',#235,.T.);
#16=FACE_BOUND('',#239,.T.);
#17=FACE_BOUND('',#243,.T.);
#18=FACE_BOUND('',#247,.T.);
#19=FACE_BOUND('',#251,.T.);
#20=FACE_BOUND('',#252,.T.);
#21=FACE_BOUND('',#253,.T.);
#22=FACE_BOUND('',#254,.T.);
#23=FACE_BOUND('',#255,.T.);
#24=FACE_BOUND('',#256,.T.);
#25=FACE_BOUND('',#257,.T.);
#26=FACE_BOUND('',#258,.T.);
#27=FACE_BOUND('',#259,.T.);
#28=FACE_BOUND('',#260,.T.);
#29=FACE_BOUND('',#261,.T.);
#30=FACE_BOUND('',#262,.T.);
#31=FACE_BOUND('',#263,.T.);
#32=FACE_BOUND('',#264,.T.);
#33=FACE_BOUND('',#265,.T.);
#34=FACE_BOUND('',#266,.T.);
#35=FACE_BOUND('',#267,.T.);
#36=FACE_BOUND('',#268,.T.);
#37=FACE_BOUND('',#269,.T.);
#38=FACE_BOUND('',#270,.T.);
#39=FACE_BOUND('',#275,.T.);
#40=FACE_BOUND('',#276,.T.);
#41=FACE_BOUND('',#277,.T.);
#42=FACE_BOUND('',#278,.T.);
#43=FACE_BOUND('',#279,.T.);
#44=FACE_BOUND('',#280,.T.);
#45=FACE_BOUND('',#281,.T.);
#46=FACE_BOUND('',#282,.T.);
#47=FACE_BOUND('',#283,.T.);
#48=FACE_BOUND('',#284,.T.);
#49=FACE_BOUND('',#285,.T.);
#50=FACE_BOUND('',#286,.T.);
#51=FACE_BOUND('',#287,.T.);
#52=FACE_BOUND('',#288,.T.);
#53=FACE_BOUND('',#289,.T.);
#54=FACE_BOUND('',#290,.T.);
#55=FACE_BOUND('',#291,.T.);
#56=FACE_BOUND('',#292,.T.);
#57=FACE_BOUND('',#293,.T.);
#58=FACE_BOUND('',#294,.T.);
#59=CIRCLE('',#1586,1.7);
#60=CIRCLE('',#1587,1.7);
#61=CIRCLE('',#1589,1.7);
#62=CIRCLE('',#1590,1.7);
#63=CIRCLE('',#1592,1.7);
#64=CIRCLE('',#1593,1.7);
#65=CIRCLE('',#1595,1.7);
#66=CIRCLE('',#1596,1.7);
#67=CIRCLE('',#1598,2.6);
#68=CIRCLE('',#1599,2.6);
#69=CIRCLE('',#1601,1.45);
#70=CIRCLE('',#1603,1.45);
#71=CIRCLE('',#1605,2.6);
#72=CIRCLE('',#1606,2.6);
#73=CIRCLE('',#1608,1.45);
#74=CIRCLE('',#1610,1.45);
#75=CIRCLE('',#1612,2.6);
#76=CIRCLE('',#1613,2.6);
#77=CIRCLE('',#1615,1.45);
#78=CIRCLE('',#1617,1.45);
#79=CIRCLE('',#1619,2.6);
#80=CIRCLE('',#1620,2.6);
#81=CIRCLE('',#1622,1.45);
#82=CIRCLE('',#1624,1.45);
#83=CIRCLE('',#1626,2.8);
#84=CIRCLE('',#1627,2.8);
#85=CIRCLE('',#1629,2.8);
#86=CIRCLE('',#1630,2.8);
#87=CIRCLE('',#1631,2.8);
#88=CIRCLE('',#1633,2.8);
#89=CIRCLE('',#1635,2.8);
#90=CIRCLE('',#1637,2.8);
#91=CYLINDRICAL_SURFACE('',#1585,1.7);
#92=CYLINDRICAL_SURFACE('',#1588,1.7);
#93=CYLINDRICAL_SURFACE('',#1591,1.7);
#94=CYLINDRICAL_SURFACE('',#1594,1.7);
#95=CYLINDRICAL_SURFACE('',#1597,2.6);
#96=CYLINDRICAL_SURFACE('',#1602,1.45);
#97=CYLINDRICAL_SURFACE('',#1604,2.6);
#98=CYLINDRICAL_SURFACE('',#1609,1.45);
#99=CYLINDRICAL_SURFACE('',#1611,2.6);
#100=CYLINDRICAL_SURFACE('',#1616,1.45);
#101=CYLINDRICAL_SURFACE('',#1618,2.6);
#102=CYLINDRICAL_SURFACE('',#1623,1.45);
#103=CYLINDRICAL_SURFACE('',#1625,2.8);
#104=CYLINDRICAL_SURFACE('',#1632,2.8);
#105=CYLINDRICAL_SURFACE('',#1634,2.8);
#106=CYLINDRICAL_SURFACE('',#1636,2.8);
#107=FACE_OUTER_BOUND('',#181,.T.);
#108=FACE_OUTER_BOUND('',#182,.T.);
#109=FACE_OUTER_BOUND('',#183,.T.);
#110=FACE_OUTER_BOUND('',#184,.T.);
#111=FACE_OUTER_BOUND('',#185,.T.);
#112=FACE_OUTER_BOUND('',#186,.T.);
#113=FACE_OUTER_BOUND('',#187,.T.);
#114=FACE_OUTER_BOUND('',#188,.T.);
#115=FACE_OUTER_BOUND('',#189,.T.);
#116=FACE_OUTER_BOUND('',#190,.T.);
#117=FACE_OUTER_BOUND('',#191,.T.);
#118=FACE_OUTER_BOUND('',#192,.T.);
#119=FACE_OUTER_BOUND('',#193,.T.);
#120=FACE_OUTER_BOUND('',#194,.T.);
#121=FACE_OUTER_BOUND('',#195,.T.);
#122=FACE_OUTER_BOUND('',#196,.T.);
#123=FACE_OUTER_BOUND('',#197,.T.);
#124=FACE_OUTER_BOUND('',#198,.T.);
#125=FACE_OUTER_BOUND('',#199,.T.);
#126=FACE_OUTER_BOUND('',#200,.T.);
#127=FACE_OUTER_BOUND('',#201,.T.);
#128=FACE_OUTER_BOUND('',#202,.T.);
#129=FACE_OUTER_BOUND('',#203,.T.);
#130=FACE_OUTER_BOUND('',#204,.T.);
#131=FACE_OUTER_BOUND('',#205,.T.);
#132=FACE_OUTER_BOUND('',#206,.T.);
#133=FACE_OUTER_BOUND('',#207,.T.);
#134=FACE_OUTER_BOUND('',#208,.T.);
#135=FACE_OUTER_BOUND('',#209,.T.);
#136=FACE_OUTER_BOUND('',#210,.T.);
#137=FACE_OUTER_BOUND('',#211,.T.);
#138=FACE_OUTER_BOUND('',#212,.T.);
#139=FACE_OUTER_BOUND('',#213,.T.);
#140=FACE_OUTER_BOUND('',#214,.T.);
#141=FACE_OUTER_BOUND('',#215,.T.);
#142=FACE_OUTER_BOUND('',#216,.T.);
#143=FACE_OUTER_BOUND('',#217,.T.);
#144=FACE_OUTER_BOUND('',#218,.T.);
#145=FACE_OUTER_BOUND('',#219,.T.);
#146=FACE_OUTER_BOUND('',#220,.T.);
#147=FACE_OUTER_BOUND('',#221,.T.);
#148=FACE_OUTER_BOUND('',#222,.T.);
#149=FACE_OUTER_BOUND('',#223,.T.);
#150=FACE_OUTER_BOUND('',#224,.T.);
#151=FACE_OUTER_BOUND('',#225,.T.);
#152=FACE_OUTER_BOUND('',#226,.T.);
#153=FACE_OUTER_BOUND('',#227,.T.);
#154=FACE_OUTER_BOUND('',#228,.T.);
#155=FACE_OUTER_BOUND('',#229,.T.);
#156=FACE_OUTER_BOUND('',#230,.T.);
#157=FACE_OUTER_BOUND('',#231,.T.);
#158=FACE_OUTER_BOUND('',#232,.T.);
#159=FACE_OUTER_BOUND('',#233,.T.);
#160=FACE_OUTER_BOUND('',#234,.T.);
#161=FACE_OUTER_BOUND('',#236,.T.);
#162=FACE_OUTER_BOUND('',#237,.T.);
#163=FACE_OUTER_BOUND('',#238,.T.);
#164=FACE_OUTER_BOUND('',#240,.T.);
#165=FACE_OUTER_BOUND('',#241,.T.);
#166=FACE_OUTER_BOUND('',#242,.T.);
#167=FACE_OUTER_BOUND('',#244,.T.);
#168=FACE_OUTER_BOUND('',#245,.T.);
#169=FACE_OUTER_BOUND('',#246,.T.);
#170=FACE_OUTER_BOUND('',#248,.T.);
#171=FACE_OUTER_BOUND('',#249,.T.);
#172=FACE_OUTER_BOUND('',#250,.T.);
#173=FACE_OUTER_BOUND('',#271,.T.);
#174=FACE_OUTER_BOUND('',#272,.T.);
#175=FACE_OUTER_BOUND('',#273,.T.);
#176=FACE_OUTER_BOUND('',#274,.T.);
#177=FACE_OUTER_BOUND('',#295,.T.);
#178=FACE_OUTER_BOUND('',#296,.T.);
#179=FACE_OUTER_BOUND('',#297,.T.);
#180=FACE_OUTER_BOUND('',#298,.T.);
#181=EDGE_LOOP('',(#983,#984,#985,#986));
#182=EDGE_LOOP('',(#987,#988,#989,#990));
#183=EDGE_LOOP('',(#991,#992,#993,#994));
#184=EDGE_LOOP('',(#995,#996,#997,#998));
#185=EDGE_LOOP('',(#999,#1000,#1001,#1002));
#186=EDGE_LOOP('',(#1003,#1004,#1005,#1006));
#187=EDGE_LOOP('',(#1007,#1008,#1009,#1010));
#188=EDGE_LOOP('',(#1011,#1012,#1013,#1014));
#189=EDGE_LOOP('',(#1015,#1016,#1017,#1018));
#190=EDGE_LOOP('',(#1019,#1020,#1021,#1022));
#191=EDGE_LOOP('',(#1023,#1024,#1025,#1026));
#192=EDGE_LOOP('',(#1027,#1028,#1029,#1030));
#193=EDGE_LOOP('',(#1031,#1032,#1033,#1034));
#194=EDGE_LOOP('',(#1035,#1036,#1037,#1038));
#195=EDGE_LOOP('',(#1039,#1040,#1041,#1042));
#196=EDGE_LOOP('',(#1043,#1044,#1045,#1046));
#197=EDGE_LOOP('',(#1047,#1048,#1049,#1050));
#198=EDGE_LOOP('',(#1051,#1052,#1053,#1054));
#199=EDGE_LOOP('',(#1055,#1056,#1057,#1058));
#200=EDGE_LOOP('',(#1059,#1060,#1061,#1062));
#201=EDGE_LOOP('',(#1063,#1064,#1065,#1066));
#202=EDGE_LOOP('',(#1067,#1068,#1069,#1070));
#203=EDGE_LOOP('',(#1071,#1072,#1073,#1074));
#204=EDGE_LOOP('',(#1075,#1076,#1077,#1078));
#205=EDGE_LOOP('',(#1079,#1080,#1081,#1082));
#206=EDGE_LOOP('',(#1083,#1084,#1085,#1086));
#207=EDGE_LOOP('',(#1087,#1088,#1089,#1090));
#208=EDGE_LOOP('',(#1091,#1092,#1093,#1094));
#209=EDGE_LOOP('',(#1095,#1096,#1097,#1098));
#210=EDGE_LOOP('',(#1099,#1100,#1101,#1102));
#211=EDGE_LOOP('',(#1103,#1104,#1105,#1106));
#212=EDGE_LOOP('',(#1107,#1108,#1109,#1110));
#213=EDGE_LOOP('',(#1111,#1112,#1113,#1114));
#214=EDGE_LOOP('',(#1115,#1116,#1117,#1118));
#215=EDGE_LOOP('',(#1119,#1120,#1121,#1122));
#216=EDGE_LOOP('',(#1123,#1124,#1125,#1126));
#217=EDGE_LOOP('',(#1127,#1128,#1129,#1130));
#218=EDGE_LOOP('',(#1131,#1132,#1133,#1134));
#219=EDGE_LOOP('',(#1135,#1136,#1137,#1138));
#220=EDGE_LOOP('',(#1139,#1140,#1141,#1142));
#221=EDGE_LOOP('',(#1143,#1144,#1145,#1146));
#222=EDGE_LOOP('',(#1147,#1148,#1149,#1150));
#223=EDGE_LOOP('',(#1151,#1152,#1153,#1154));
#224=EDGE_LOOP('',(#1155,#1156,#1157,#1158));
#225=EDGE_LOOP('',(#1159,#1160,#1161,#1162));
#226=EDGE_LOOP('',(#1163,#1164,#1165,#1166));
#227=EDGE_LOOP('',(#1167,#1168,#1169,#1170));
#228=EDGE_LOOP('',(#1171,#1172,#1173,#1174));
#229=EDGE_LOOP('',(#1175,#1176,#1177,#1178));
#230=EDGE_LOOP('',(#1179,#1180,#1181,#1182));
#231=EDGE_LOOP('',(#1183,#1184,#1185,#1186));
#232=EDGE_LOOP('',(#1187,#1188,#1189,#1190));
#233=EDGE_LOOP('',(#1191,#1192,#1193,#1194));
#234=EDGE_LOOP('',(#1195));
#235=EDGE_LOOP('',(#1196));
#236=EDGE_LOOP('',(#1197,#1198,#1199,#1200));
#237=EDGE_LOOP('',(#1201,#1202,#1203,#1204));
#238=EDGE_LOOP('',(#1205));
#239=EDGE_LOOP('',(#1206));
#240=EDGE_LOOP('',(#1207,#1208,#1209,#1210));
#241=EDGE_LOOP('',(#1211,#1212,#1213,#1214));
#242=EDGE_LOOP('',(#1215));
#243=EDGE_LOOP('',(#1216));
#244=EDGE_LOOP('',(#1217,#1218,#1219,#1220));
#245=EDGE_LOOP('',(#1221,#1222,#1223,#1224));
#246=EDGE_LOOP('',(#1225));
#247=EDGE_LOOP('',(#1226));
#248=EDGE_LOOP('',(#1227,#1228,#1229,#1230));
#249=EDGE_LOOP('',(#1231,#1232,#1233,#1234));
#250=EDGE_LOOP('',(#1235,#1236,#1237,#1238,#1239,#1240,#1241,#1242));
#251=EDGE_LOOP('',(#1243,#1244,#1245,#1246));
#252=EDGE_LOOP('',(#1247,#1248,#1249,#1250));
#253=EDGE_LOOP('',(#1251,#1252,#1253,#1254));
#254=EDGE_LOOP('',(#1255,#1256,#1257,#1258));
#255=EDGE_LOOP('',(#1259,#1260,#1261,#1262));
#256=EDGE_LOOP('',(#1263,#1264,#1265,#1266));
#257=EDGE_LOOP('',(#1267));
#258=EDGE_LOOP('',(#1268));
#259=EDGE_LOOP('',(#1269));
#260=EDGE_LOOP('',(#1270));
#261=EDGE_LOOP('',(#1271));
#262=EDGE_LOOP('',(#1272));
#263=EDGE_LOOP('',(#1273));
#264=EDGE_LOOP('',(#1274));
#265=EDGE_LOOP('',(#1275,#1276,#1277,#1278));
#266=EDGE_LOOP('',(#1279,#1280,#1281,#1282));
#267=EDGE_LOOP('',(#1283,#1284,#1285,#1286));
#268=EDGE_LOOP('',(#1287,#1288,#1289,#1290));
#269=EDGE_LOOP('',(#1291,#1292,#1293,#1294));
#270=EDGE_LOOP('',(#1295,#1296,#1297,#1298));
#271=EDGE_LOOP('',(#1299,#1300,#1301,#1302));
#272=EDGE_LOOP('',(#1303,#1304,#1305,#1306));
#273=EDGE_LOOP('',(#1307,#1308,#1309,#1310));
#274=EDGE_LOOP('',(#1311,#1312,#1313,#1314,#1315,#1316,#1317,#1318));
#275=EDGE_LOOP('',(#1319,#1320,#1321,#1322));
#276=EDGE_LOOP('',(#1323,#1324,#1325,#1326));
#277=EDGE_LOOP('',(#1327,#1328,#1329,#1330));
#278=EDGE_LOOP('',(#1331,#1332,#1333,#1334));
#279=EDGE_LOOP('',(#1335,#1336,#1337,#1338));
#280=EDGE_LOOP('',(#1339,#1340,#1341,#1342));
#281=EDGE_LOOP('',(#1343));
#282=EDGE_LOOP('',(#1344));
#283=EDGE_LOOP('',(#1345));
#284=EDGE_LOOP('',(#1346));
#285=EDGE_LOOP('',(#1347));
#286=EDGE_LOOP('',(#1348));
#287=EDGE_LOOP('',(#1349));
#288=EDGE_LOOP('',(#1350));
#289=EDGE_LOOP('',(#1351,#1352,#1353,#1354));
#290=EDGE_LOOP('',(#1355,#1356,#1357,#1358));
#291=EDGE_LOOP('',(#1359,#1360,#1361,#1362));
#292=EDGE_LOOP('',(#1363,#1364,#1365,#1366));
#293=EDGE_LOOP('',(#1367,#1368,#1369,#1370));
#294=EDGE_LOOP('',(#1371,#1372,#1373,#1374));
#295=EDGE_LOOP('',(#1375,#1376,#1377,#1378));
#296=EDGE_LOOP('',(#1379,#1380,#1381,#1382));
#297=EDGE_LOOP('',(#1383,#1384,#1385,#1386));
#298=EDGE_LOOP('',(#1387,#1388,#1389,#1390));
#299=LINE('',#2033,#471);
#300=LINE('',#2035,#472);
#301=LINE('',#2037,#473);
#302=LINE('',#2038,#474);
#303=LINE('',#2041,#475);
#304=LINE('',#2043,#476);
#305=LINE('',#2044,#477);
#306=LINE('',#2047,#478);
#307=LINE('',#2049,#479);
#308=LINE('',#2050,#480);
#309=LINE('',#2052,#481);
#310=LINE('',#2053,#482);
#311=LINE('',#2057,#483);
#312=LINE('',#2059,#484);
#313=LINE('',#2061,#485);
#314=LINE('',#2062,#486);
#315=LINE('',#2065,#487);
#316=LINE('',#2067,#488);
#317=LINE('',#2068,#489);
#318=LINE('',#2071,#490);
#319=LINE('',#2073,#491);
#320=LINE('',#2074,#492);
#321=LINE('',#2076,#493);
#322=LINE('',#2077,#494);
#323=LINE('',#2081,#495);
#324=LINE('',#2083,#496);
#325=LINE('',#2085,#497);
#326=LINE('',#2086,#498);
#327=LINE('',#2089,#499);
#328=LINE('',#2091,#500);
#329=LINE('',#2092,#501);
#330=LINE('',#2095,#502);
#331=LINE('',#2097,#503);
#332=LINE('',#2098,#504);
#333=LINE('',#2100,#505);
#334=LINE('',#2101,#506);
#335=LINE('',#2105,#507);
#336=LINE('',#2107,#508);
#337=LINE('',#2109,#509);
#338=LINE('',#2110,#510);
#339=LINE('',#2113,#511);
#340=LINE('',#2115,#512);
#341=LINE('',#2116,#513);
#342=LINE('',#2119,#514);
#343=LINE('',#2121,#515);
#344=LINE('',#2122,#516);
#345=LINE('',#2124,#517);
#346=LINE('',#2125,#518);
#347=LINE('',#2129,#519);
#348=LINE('',#2131,#520);
#349=LINE('',#2133,#521);
#350=LINE('',#2134,#522);
#351=LINE('',#2137,#523);
#352=LINE('',#2139,#524);
#353=LINE('',#2140,#525);
#354=LINE('',#2143,#526);
#355=LINE('',#2145,#527);
#356=LINE('',#2146,#528);
#357=LINE('',#2148,#529);
#358=LINE('',#2149,#530);
#359=LINE('',#2153,#531);
#360=LINE('',#2155,#532);
#361=LINE('',#2157,#533);
#362=LINE('',#2158,#534);
#363=LINE('',#2161,#535);
#364=LINE('',#2163,#536);
#365=LINE('',#2164,#537);
#366=LINE('',#2167,#538);
#367=LINE('',#2169,#539);
#368=LINE('',#2170,#540);
#369=LINE('',#2172,#541);
#370=LINE('',#2173,#542);
#371=LINE('',#2177,#543);
#372=LINE('',#2179,#544);
#373=LINE('',#2181,#545);
#374=LINE('',#2182,#546);
#375=LINE('',#2185,#547);
#376=LINE('',#2187,#548);
#377=LINE('',#2188,#549);
#378=LINE('',#2191,#550);
#379=LINE('',#2193,#551);
#380=LINE('',#2194,#552);
#381=LINE('',#2196,#553);
#382=LINE('',#2197,#554);
#383=LINE('',#2201,#555);
#384=LINE('',#2203,#556);
#385=LINE('',#2205,#557);
#386=LINE('',#2206,#558);
#387=LINE('',#2209,#559);
#388=LINE('',#2211,#560);
#389=LINE('',#2212,#561);
#390=LINE('',#2215,#562);
#391=LINE('',#2217,#563);
#392=LINE('',#2218,#564);
#393=LINE('',#2220,#565);
#394=LINE('',#2221,#566);
#395=LINE('',#2225,#567);
#396=LINE('',#2227,#568);
#397=LINE('',#2229,#569);
#398=LINE('',#2230,#570);
#399=LINE('',#2233,#571);
#400=LINE('',#2235,#572);
#401=LINE('',#2236,#573);
#402=LINE('',#2239,#574);
#403=LINE('',#2241,#575);
#404=LINE('',#2242,#576);
#405=LINE('',#2244,#577);
#406=LINE('',#2245,#578);
#407=LINE('',#2249,#579);
#408=LINE('',#2251,#580);
#409=LINE('',#2253,#581);
#410=LINE('',#2254,#582);
#411=LINE('',#2257,#583);
#412=LINE('',#2259,#584);
#413=LINE('',#2260,#585);
#414=LINE('',#2263,#586);
#415=LINE('',#2265,#587);
#416=LINE('',#2266,#588);
#417=LINE('',#2268,#589);
#418=LINE('',#2269,#590);
#419=LINE('',#2273,#591);
#420=LINE('',#2275,#592);
#421=LINE('',#2277,#593);
#422=LINE('',#2278,#594);
#423=LINE('',#2281,#595);
#424=LINE('',#2283,#596);
#425=LINE('',#2284,#597);
#426=LINE('',#2287,#598);
#427=LINE('',#2289,#599);
#428=LINE('',#2290,#600);
#429=LINE('',#2292,#601);
#430=LINE('',#2293,#602);
#431=LINE('',#2297,#603);
#432=LINE('',#2299,#604);
#433=LINE('',#2301,#605);
#434=LINE('',#2302,#606);
#435=LINE('',#2305,#607);
#436=LINE('',#2307,#608);
#437=LINE('',#2308,#609);
#438=LINE('',#2311,#610);
#439=LINE('',#2313,#611);
#440=LINE('',#2314,#612);
#441=LINE('',#2316,#613);
#442=LINE('',#2317,#614);
#443=LINE('',#2322,#615);
#444=LINE('',#2328,#616);
#445=LINE('',#2334,#617);
#446=LINE('',#2340,#618);
#447=LINE('',#2346,#619);
#448=LINE('',#2353,#620);
#449=LINE('',#2359,#621);
#450=LINE('',#2366,#622);
#451=LINE('',#2372,#623);
#452=LINE('',#2379,#624);
#453=LINE('',#2385,#625);
#454=LINE('',#2392,#626);
#455=LINE('',#2397,#627);
#456=LINE('',#2401,#628);
#457=LINE('',#2405,#629);
#458=LINE('',#2409,#630);
#459=LINE('',#2413,#631);
#460=LINE('',#2416,#632);
#461=LINE('',#2419,#633);
#462=LINE('',#2422,#634);
#463=LINE('',#2425,#635);
#464=LINE('',#2428,#636);
#465=LINE('',#2431,#637);
#466=LINE('',#2433,#638);
#467=LINE('',#2436,#639);
#468=LINE('',#2437,#640);
#469=LINE('',#2438,#641);
#470=LINE('',#2439,#642);
#471=VECTOR('',#1647,10.);
#472=VECTOR('',#1648,10.);
#473=VECTOR('',#1649,10.);
#474=VECTOR('',#1650,10.);
#475=VECTOR('',#1653,10.);
#476=VECTOR('',#1654,10.);
#477=VECTOR('',#1655,10.);
#478=VECTOR('',#1658,10.);
#479=VECTOR('',#1659,10.);
#480=VECTOR('',#1660,10.);
#481=VECTOR('',#1663,10.);
#482=VECTOR('',#1664,10.);
#483=VECTOR('',#1667,10.);
#484=VECTOR('',#1668,10.);
#485=VECTOR('',#1669,10.);
#486=VECTOR('',#1670,10.);
#487=VECTOR('',#1673,10.);
#488=VECTOR('',#1674,10.);
#489=VECTOR('',#1675,10.);
#490=VECTOR('',#1678,10.);
#491=VECTOR('',#1679,10.);
#492=VECTOR('',#1680,10.);
#493=VECTOR('',#1683,10.);
#494=VECTOR('',#1684,10.);
#495=VECTOR('',#1687,10.);
#496=VECTOR('',#1688,10.);
#497=VECTOR('',#1689,10.);
#498=VECTOR('',#1690,10.);
#499=VECTOR('',#1693,10.);
#500=VECTOR('',#1694,10.);
#501=VECTOR('',#1695,10.);
#502=VECTOR('',#1698,10.);
#503=VECTOR('',#1699,10.);
#504=VECTOR('',#1700,10.);
#505=VECTOR('',#1703,10.);
#506=VECTOR('',#1704,10.);
#507=VECTOR('',#1707,10.);
#508=VECTOR('',#1708,10.);
#509=VECTOR('',#1709,10.);
#510=VECTOR('',#1710,10.);
#511=VECTOR('',#1713,10.);
#512=VECTOR('',#1714,10.);
#513=VECTOR('',#1715,10.);
#514=VECTOR('',#1718,10.);
#515=VECTOR('',#1719,10.);
#516=VECTOR('',#1720,10.);
#517=VECTOR('',#1723,10.);
#518=VECTOR('',#1724,10.);
#519=VECTOR('',#1727,10.);
#520=VECTOR('',#1728,10.);
#521=VECTOR('',#1729,10.);
#522=VECTOR('',#1730,10.);
#523=VECTOR('',#1733,10.);
#524=VECTOR('',#1734,10.);
#525=VECTOR('',#1735,10.);
#526=VECTOR('',#1738,10.);
#527=VECTOR('',#1739,10.);
#528=VECTOR('',#1740,10.);
#529=VECTOR('',#1743,10.);
#530=VECTOR('',#1744,10.);
#531=VECTOR('',#1747,10.);
#532=VECTOR('',#1748,10.);
#533=VECTOR('',#1749,10.);
#534=VECTOR('',#1750,10.);
#535=VECTOR('',#1753,10.);
#536=VECTOR('',#1754,10.);
#537=VECTOR('',#1755,10.);
#538=VECTOR('',#1758,10.);
#539=VECTOR('',#1759,10.);
#540=VECTOR('',#1760,10.);
#541=VECTOR('',#1763,10.);
#542=VECTOR('',#1764,10.);
#543=VECTOR('',#1767,10.);
#544=VECTOR('',#1768,10.);
#545=VECTOR('',#1769,10.);
#546=VECTOR('',#1770,10.);
#547=VECTOR('',#1773,10.);
#548=VECTOR('',#1774,10.);
#549=VECTOR('',#1775,10.);
#550=VECTOR('',#1778,10.);
#551=VECTOR('',#1779,10.);
#552=VECTOR('',#1780,10.);
#553=VECTOR('',#1783,10.);
#554=VECTOR('',#1784,10.);
#555=VECTOR('',#1787,10.);
#556=VECTOR('',#1788,10.);
#557=VECTOR('',#1789,10.);
#558=VECTOR('',#1790,10.);
#559=VECTOR('',#1793,10.);
#560=VECTOR('',#1794,10.);
#561=VECTOR('',#1795,10.);
#562=VECTOR('',#1798,10.);
#563=VECTOR('',#1799,10.);
#564=VECTOR('',#1800,10.);
#565=VECTOR('',#1803,10.);
#566=VECTOR('',#1804,10.);
#567=VECTOR('',#1807,10.);
#568=VECTOR('',#1808,10.);
#569=VECTOR('',#1809,10.);
#570=VECTOR('',#1810,10.);
#571=VECTOR('',#1813,10.);
#572=VECTOR('',#1814,10.);
#573=VECTOR('',#1815,10.);
#574=VECTOR('',#1818,10.);
#575=VECTOR('',#1819,10.);
#576=VECTOR('',#1820,10.);
#577=VECTOR('',#1823,10.);
#578=VECTOR('',#1824,10.);
#579=VECTOR('',#1827,10.);
#580=VECTOR('',#1828,10.);
#581=VECTOR('',#1829,10.);
#582=VECTOR('',#1830,10.);
#583=VECTOR('',#1833,10.);
#584=VECTOR('',#1834,10.);
#585=VECTOR('',#1835,10.);
#586=VECTOR('',#1838,10.);
#587=VECTOR('',#1839,10.);
#588=VECTOR('',#1840,10.);
#589=VECTOR('',#1843,10.);
#590=VECTOR('',#1844,10.);
#591=VECTOR('',#1847,10.);
#592=VECTOR('',#1848,10.);
#593=VECTOR('',#1849,10.);
#594=VECTOR('',#1850,10.);
#595=VECTOR('',#1853,10.);
#596=VECTOR('',#1854,10.);
#597=VECTOR('',#1855,10.);
#598=VECTOR('',#1858,10.);
#599=VECTOR('',#1859,10.);
#600=VECTOR('',#1860,10.);
#601=VECTOR('',#1863,10.);
#602=VECTOR('',#1864,10.);
#603=VECTOR('',#1867,10.);
#604=VECTOR('',#1868,10.);
#605=VECTOR('',#1869,10.);
#606=VECTOR('',#1870,10.);
#607=VECTOR('',#1873,10.);
#608=VECTOR('',#1874,10.);
#609=VECTOR('',#1875,10.);
#610=VECTOR('',#1878,10.);
#611=VECTOR('',#1879,10.);
#612=VECTOR('',#1880,10.);
#613=VECTOR('',#1883,10.);
#614=VECTOR('',#1884,10.);
#615=VECTOR('',#1889,1.7);
#616=VECTOR('',#1896,1.7);
#617=VECTOR('',#1903,1.7);
#618=VECTOR('',#1910,1.7);
#619=VECTOR('',#1917,2.6);
#620=VECTOR('',#1926,1.45);
#621=VECTOR('',#1933,2.6);
#622=VECTOR('',#1942,1.45);
#623=VECTOR('',#1949,2.6);
#624=VECTOR('',#1958,1.45);
#625=VECTOR('',#1965,2.6);
#626=VECTOR('',#1974,1.45);
#627=VECTOR('',#1979,10.);
#628=VECTOR('',#1982,10.);
#629=VECTOR('',#1987,10.);
#630=VECTOR('',#1990,10.);
#631=VECTOR('',#1993,10.);
#632=VECTOR('',#1996,10.);
#633=VECTOR('',#1999,10.);
#634=VECTOR('',#2002,10.);
#635=VECTOR('',#2005,10.);
#636=VECTOR('',#2008,10.);
#637=VECTOR('',#2011,10.);
#638=VECTOR('',#2012,10.);
#639=VECTOR('',#2017,10.);
#640=VECTOR('',#2018,10.);
#641=VECTOR('',#2019,10.);
#642=VECTOR('',#2020,10.);
#643=VERTEX_POINT('',#2031);
#644=VERTEX_POINT('',#2032);
#645=VERTEX_POINT('',#2034);
#646=VERTEX_POINT('',#2036);
#647=VERTEX_POINT('',#2040);
#648=VERTEX_POINT('',#2042);
#649=VERTEX_POINT('',#2046);
#650=VERTEX_POINT('',#2048);
#651=VERTEX_POINT('',#2055);
#652=VERTEX_POINT('',#2056);
#653=VERTEX_POINT('',#2058);
#654=VERTEX_POINT('',#2060);
#655=VERTEX_POINT('',#2064);
#656=VERTEX_POINT('',#2066);
#657=VERTEX_POINT('',#2070);
#658=VERTEX_POINT('',#2072);
#659=VERTEX_POINT('',#2079);
#660=VERTEX_POINT('',#2080);
#661=VERTEX_POINT('',#2082);
#662=VERTEX_POINT('',#2084);
#663=VERTEX_POINT('',#2088);
#664=VERTEX_POINT('',#2090);
#665=VERTEX_POINT('',#2094);
#666=VERTEX_POINT('',#2096);
#667=VERTEX_POINT('',#2103);
#668=VERTEX_POINT('',#2104);
#669=VERTEX_POINT('',#2106);
#670=VERTEX_POINT('',#2108);
#671=VERTEX_POINT('',#2112);
#672=VERTEX_POINT('',#2114);
#673=VERTEX_POINT('',#2118);
#674=VERTEX_POINT('',#2120);
#675=VERTEX_POINT('',#2127);
#676=VERTEX_POINT('',#2128);
#677=VERTEX_POINT('',#2130);
#678=VERTEX_POINT('',#2132);
#679=VERTEX_POINT('',#2136);
#680=VERTEX_POINT('',#2138);
#681=VERTEX_POINT('',#2142);
#682=VERTEX_POINT('',#2144);
#683=VERTEX_POINT('',#2151);
#684=VERTEX_POINT('',#2152);
#685=VERTEX_POINT('',#2154);
#686=VERTEX_POINT('',#2156);
#687=VERTEX_POINT('',#2160);
#688=VERTEX_POINT('',#2162);
#689=VERTEX_POINT('',#2166);
#690=VERTEX_POINT('',#2168);
#691=VERTEX_POINT('',#2175);
#692=VERTEX_POINT('',#2176);
#693=VERTEX_POINT('',#2178);
#694=VERTEX_POINT('',#2180);
#695=VERTEX_POINT('',#2184);
#696=VERTEX_POINT('',#2186);
#697=VERTEX_POINT('',#2190);
#698=VERTEX_POINT('',#2192);
#699=VERTEX_POINT('',#2199);
#700=VERTEX_POINT('',#2200);
#701=VERTEX_POINT('',#2202);
#702=VERTEX_POINT('',#2204);
#703=VERTEX_POINT('',#2208);
#704=VERTEX_POINT('',#2210);
#705=VERTEX_POINT('',#2214);
#706=VERTEX_POINT('',#2216);
#707=VERTEX_POINT('',#2223);
#708=VERTEX_POINT('',#2224);
#709=VERTEX_POINT('',#2226);
#710=VERTEX_POINT('',#2228);
#711=VERTEX_POINT('',#2232);
#712=VERTEX_POINT('',#2234);
#713=VERTEX_POINT('',#2238);
#714=VERTEX_POINT('',#2240);
#715=VERTEX_POINT('',#2247);
#716=VERTEX_POINT('',#2248);
#717=VERTEX_POINT('',#2250);
#718=VERTEX_POINT('',#2252);
#719=VERTEX_POINT('',#2256);
#720=VERTEX_POINT('',#2258);
#721=VERTEX_POINT('',#2262);
#722=VERTEX_POINT('',#2264);
#723=VERTEX_POINT('',#2271);
#724=VERTEX_POINT('',#2272);
#725=VERTEX_POINT('',#2274);
#726=VERTEX_POINT('',#2276);
#727=VERTEX_POINT('',#2280);
#728=VERTEX_POINT('',#2282);
#729=VERTEX_POINT('',#2286);
#730=VERTEX_POINT('',#2288);
#731=VERTEX_POINT('',#2295);
#732=VERTEX_POINT('',#2296);
#733=VERTEX_POINT('',#2298);
#734=VERTEX_POINT('',#2300);
#735=VERTEX_POINT('',#2304);
#736=VERTEX_POINT('',#2306);
#737=VERTEX_POINT('',#2310);
#738=VERTEX_POINT('',#2312);
#739=VERTEX_POINT('',#2319);
#740=VERTEX_POINT('',#2321);
#741=VERTEX_POINT('',#2325);
#742=VERTEX_POINT('',#2327);
#743=VERTEX_POINT('',#2331);
#744=VERTEX_POINT('',#2333);
#745=VERTEX_POINT('',#2337);
#746=VERTEX_POINT('',#2339);
#747=VERTEX_POINT('',#2343);
#748=VERTEX_POINT('',#2345);
#749=VERTEX_POINT('',#2349);
#750=VERTEX_POINT('',#2352);
#751=VERTEX_POINT('',#2356);
#752=VERTEX_POINT('',#2358);
#753=VERTEX_POINT('',#2362);
#754=VERTEX_POINT('',#2365);
#755=VERTEX_POINT('',#2369);
#756=VERTEX_POINT('',#2371);
#757=VERTEX_POINT('',#2375);
#758=VERTEX_POINT('',#2378);
#759=VERTEX_POINT('',#2382);
#760=VERTEX_POINT('',#2384);
#761=VERTEX_POINT('',#2388);
#762=VERTEX_POINT('',#2391);
#763=VERTEX_POINT('',#2395);
#764=VERTEX_POINT('',#2396);
#765=VERTEX_POINT('',#2398);
#766=VERTEX_POINT('',#2400);
#767=VERTEX_POINT('',#2404);
#768=VERTEX_POINT('',#2406);
#769=VERTEX_POINT('',#2408);
#770=VERTEX_POINT('',#2410);
#771=VERTEX_POINT('',#2412);
#772=VERTEX_POINT('',#2414);
#773=VERTEX_POINT('',#2418);
#774=VERTEX_POINT('',#2420);
#775=VERTEX_POINT('',#2424);
#776=VERTEX_POINT('',#2426);
#777=VERTEX_POINT('',#2430);
#778=VERTEX_POINT('',#2432);
#779=EDGE_CURVE('',#643,#644,#299,.T.);
#780=EDGE_CURVE('',#643,#645,#300,.T.);
#781=EDGE_CURVE('',#646,#645,#301,.T.);
#782=EDGE_CURVE('',#644,#646,#302,.T.);
#783=EDGE_CURVE('',#644,#647,#303,.T.);
#784=EDGE_CURVE('',#648,#646,#304,.T.);
#785=EDGE_CURVE('',#647,#648,#305,.T.);
#786=EDGE_CURVE('',#647,#649,#306,.T.);
#787=EDGE_CURVE('',#650,#648,#307,.T.);
#788=EDGE_CURVE('',#649,#650,#308,.T.);
#789=EDGE_CURVE('',#649,#643,#309,.T.);
#790=EDGE_CURVE('',#645,#650,#310,.T.);
#791=EDGE_CURVE('',#651,#652,#311,.T.);
#792=EDGE_CURVE('',#651,#653,#312,.T.);
#793=EDGE_CURVE('',#654,#653,#313,.T.);
#794=EDGE_CURVE('',#652,#654,#314,.T.);
#795=EDGE_CURVE('',#652,#655,#315,.T.);
#796=EDGE_CURVE('',#656,#654,#316,.T.);
#797=EDGE_CURVE('',#655,#656,#317,.T.);
#798=EDGE_CURVE('',#655,#657,#318,.T.);
#799=EDGE_CURVE('',#658,#656,#319,.T.);
#800=EDGE_CURVE('',#657,#658,#320,.T.);
#801=EDGE_CURVE('',#657,#651,#321,.T.);
#802=EDGE_CURVE('',#653,#658,#322,.T.);
#803=EDGE_CURVE('',#659,#660,#323,.T.);
#804=EDGE_CURVE('',#659,#661,#324,.T.);
#805=EDGE_CURVE('',#662,#661,#325,.T.);
#806=EDGE_CURVE('',#660,#662,#326,.T.);
#807=EDGE_CURVE('',#660,#663,#327,.T.);
#808=EDGE_CURVE('',#664,#662,#328,.T.);
#809=EDGE_CURVE('',#663,#664,#329,.T.);
#810=EDGE_CURVE('',#663,#665,#330,.T.);
#811=EDGE_CURVE('',#666,#664,#331,.T.);
#812=EDGE_CURVE('',#665,#666,#332,.T.);
#813=EDGE_CURVE('',#665,#659,#333,.T.);
#814=EDGE_CURVE('',#661,#666,#334,.T.);
#815=EDGE_CURVE('',#667,#668,#335,.T.);
#816=EDGE_CURVE('',#667,#669,#336,.T.);
#817=EDGE_CURVE('',#670,#669,#337,.T.);
#818=EDGE_CURVE('',#668,#670,#338,.T.);
#819=EDGE_CURVE('',#668,#671,#339,.T.);
#820=EDGE_CURVE('',#672,#670,#340,.T.);
#821=EDGE_CURVE('',#671,#672,#341,.T.);
#822=EDGE_CURVE('',#671,#673,#342,.T.);
#823=EDGE_CURVE('',#674,#672,#343,.T.);
#824=EDGE_CURVE('',#673,#674,#344,.T.);
#825=EDGE_CURVE('',#673,#667,#345,.T.);
#826=EDGE_CURVE('',#669,#674,#346,.T.);
#827=EDGE_CURVE('',#675,#676,#347,.T.);
#828=EDGE_CURVE('',#675,#677,#348,.T.);
#829=EDGE_CURVE('',#678,#677,#349,.T.);
#830=EDGE_CURVE('',#676,#678,#350,.T.);
#831=EDGE_CURVE('',#676,#679,#351,.T.);
#832=EDGE_CURVE('',#680,#678,#352,.T.);
#833=EDGE_CURVE('',#679,#680,#353,.T.);
#834=EDGE_CURVE('',#679,#681,#354,.T.);
#835=EDGE_CURVE('',#682,#680,#355,.T.);
#836=EDGE_CURVE('',#681,#682,#356,.T.);
#837=EDGE_CURVE('',#681,#675,#357,.T.);
#838=EDGE_CURVE('',#677,#682,#358,.T.);
#839=EDGE_CURVE('',#683,#684,#359,.T.);
#840=EDGE_CURVE('',#683,#685,#360,.T.);
#841=EDGE_CURVE('',#686,#685,#361,.T.);
#842=EDGE_CURVE('',#684,#686,#362,.T.);
#843=EDGE_CURVE('',#684,#687,#363,.T.);
#844=EDGE_CURVE('',#688,#686,#364,.T.);
#845=EDGE_CURVE('',#687,#688,#365,.T.);
#846=EDGE_CURVE('',#687,#689,#366,.T.);
#847=EDGE_CURVE('',#690,#688,#367,.T.);
#848=EDGE_CURVE('',#689,#690,#368,.T.);
#849=EDGE_CURVE('',#689,#683,#369,.T.);
#850=EDGE_CURVE('',#685,#690,#370,.T.);
#851=EDGE_CURVE('',#691,#692,#371,.T.);
#852=EDGE_CURVE('',#691,#693,#372,.T.);
#853=EDGE_CURVE('',#694,#693,#373,.T.);
#854=EDGE_CURVE('',#692,#694,#374,.T.);
#855=EDGE_CURVE('',#692,#695,#375,.T.);
#856=EDGE_CURVE('',#696,#694,#376,.T.);
#857=EDGE_CURVE('',#695,#696,#377,.T.);
#858=EDGE_CURVE('',#695,#697,#378,.T.);
#859=EDGE_CURVE('',#698,#696,#379,.T.);
#860=EDGE_CURVE('',#697,#698,#380,.T.);
#861=EDGE_CURVE('',#697,#691,#381,.T.);
#862=EDGE_CURVE('',#693,#698,#382,.T.);
#863=EDGE_CURVE('',#699,#700,#383,.T.);
#864=EDGE_CURVE('',#699,#701,#384,.T.);
#865=EDGE_CURVE('',#702,#701,#385,.T.);
#866=EDGE_CURVE('',#700,#702,#386,.T.);
#867=EDGE_CURVE('',#700,#703,#387,.T.);
#868=EDGE_CURVE('',#704,#702,#388,.T.);
#869=EDGE_CURVE('',#703,#704,#389,.T.);
#870=EDGE_CURVE('',#703,#705,#390,.T.);
#871=EDGE_CURVE('',#706,#704,#391,.T.);
#872=EDGE_CURVE('',#705,#706,#392,.T.);
#873=EDGE_CURVE('',#705,#699,#393,.T.);
#874=EDGE_CURVE('',#701,#706,#394,.T.);
#875=EDGE_CURVE('',#707,#708,#395,.T.);
#876=EDGE_CURVE('',#707,#709,#396,.T.);
#877=EDGE_CURVE('',#710,#709,#397,.T.);
#878=EDGE_CURVE('',#708,#710,#398,.T.);
#879=EDGE_CURVE('',#708,#711,#399,.T.);
#880=EDGE_CURVE('',#712,#710,#400,.T.);
#881=EDGE_CURVE('',#711,#712,#401,.T.);
#882=EDGE_CURVE('',#711,#713,#402,.T.);
#883=EDGE_CURVE('',#714,#712,#403,.T.);
#884=EDGE_CURVE('',#713,#714,#404,.T.);
#885=EDGE_CURVE('',#713,#707,#405,.T.);
#886=EDGE_CURVE('',#709,#714,#406,.T.);
#887=EDGE_CURVE('',#715,#716,#407,.T.);
#888=EDGE_CURVE('',#715,#717,#408,.T.);
#889=EDGE_CURVE('',#718,#717,#409,.T.);
#890=EDGE_CURVE('',#716,#718,#410,.T.);
#891=EDGE_CURVE('',#716,#719,#411,.T.);
#892=EDGE_CURVE('',#720,#718,#412,.T.);
#893=EDGE_CURVE('',#719,#720,#413,.T.);
#894=EDGE_CURVE('',#719,#721,#414,.T.);
#895=EDGE_CURVE('',#722,#720,#415,.T.);
#896=EDGE_CURVE('',#721,#722,#416,.T.);
#897=EDGE_CURVE('',#721,#715,#417,.T.);
#898=EDGE_CURVE('',#717,#722,#418,.T.);
#899=EDGE_CURVE('',#723,#724,#419,.T.);
#900=EDGE_CURVE('',#723,#725,#420,.T.);
#901=EDGE_CURVE('',#726,#725,#421,.T.);
#902=EDGE_CURVE('',#724,#726,#422,.T.);
#903=EDGE_CURVE('',#724,#727,#423,.T.);
#904=EDGE_CURVE('',#728,#726,#424,.T.);
#905=EDGE_CURVE('',#727,#728,#425,.T.);
#906=EDGE_CURVE('',#727,#729,#426,.T.);
#907=EDGE_CURVE('',#730,#728,#427,.T.);
#908=EDGE_CURVE('',#729,#730,#428,.T.);
#909=EDGE_CURVE('',#729,#723,#429,.T.);
#910=EDGE_CURVE('',#725,#730,#430,.T.);
#911=EDGE_CURVE('',#731,#732,#431,.T.);
#912=EDGE_CURVE('',#731,#733,#432,.T.);
#913=EDGE_CURVE('',#734,#733,#433,.T.);
#914=EDGE_CURVE('',#732,#734,#434,.T.);
#915=EDGE_CURVE('',#732,#735,#435,.T.);
#916=EDGE_CURVE('',#736,#734,#436,.T.);
#917=EDGE_CURVE('',#735,#736,#437,.T.);
#918=EDGE_CURVE('',#735,#737,#438,.T.);
#919=EDGE_CURVE('',#738,#736,#439,.T.);
#920=EDGE_CURVE('',#737,#738,#440,.T.);
#921=EDGE_CURVE('',#737,#731,#441,.T.);
#922=EDGE_CURVE('',#733,#738,#442,.T.);
#923=EDGE_CURVE('',#739,#739,#59,.T.);
#924=EDGE_CURVE('',#739,#740,#443,.T.);
#925=EDGE_CURVE('',#740,#740,#60,.T.);
#926=EDGE_CURVE('',#741,#741,#61,.T.);
#927=EDGE_CURVE('',#741,#742,#444,.T.);
#928=EDGE_CURVE('',#742,#742,#62,.T.);
#929=EDGE_CURVE('',#743,#743,#63,.T.);
#930=EDGE_CURVE('',#743,#744,#445,.T.);
#931=EDGE_CURVE('',#744,#744,#64,.T.);
#932=EDGE_CURVE('',#745,#745,#65,.T.);
#933=EDGE_CURVE('',#745,#746,#446,.T.);
#934=EDGE_CURVE('',#746,#746,#66,.T.);
#935=EDGE_CURVE('',#747,#747,#67,.T.);
#936=EDGE_CURVE('',#747,#748,#447,.T.);
#937=EDGE_CURVE('',#748,#748,#68,.T.);
#938=EDGE_CURVE('',#749,#749,#69,.T.);
#939=EDGE_CURVE('',#749,#750,#448,.T.);
#940=EDGE_CURVE('',#750,#750,#70,.T.);
#941=EDGE_CURVE('',#751,#751,#71,.T.);
#942=EDGE_CURVE('',#751,#752,#449,.T.);
#943=EDGE_CURVE('',#752,#752,#72,.T.);
#944=EDGE_CURVE('',#753,#753,#73,.T.);
#945=EDGE_CURVE('',#753,#754,#450,.T.);
#946=EDGE_CURVE('',#754,#754,#74,.T.);
#947=EDGE_CURVE('',#755,#755,#75,.T.);
#948=EDGE_CURVE('',#755,#756,#451,.T.);
#949=EDGE_CURVE('',#756,#756,#76,.T.);
#950=EDGE_CURVE('',#757,#757,#77,.T.);
#951=EDGE_CURVE('',#757,#758,#452,.T.);
#952=EDGE_CURVE('',#758,#758,#78,.T.);
#953=EDGE_CURVE('',#759,#759,#79,.T.);
#954=EDGE_CURVE('',#759,#760,#453,.T.);
#955=EDGE_CURVE('',#760,#760,#80,.T.);
#956=EDGE_CURVE('',#761,#761,#81,.T.);
#957=EDGE_CURVE('',#761,#762,#454,.T.);
#958=EDGE_CURVE('',#762,#762,#82,.T.);
#959=EDGE_CURVE('',#763,#764,#455,.T.);
#960=EDGE_CURVE('',#765,#764,#83,.T.);
#961=EDGE_CURVE('',#766,#765,#456,.T.);
#962=EDGE_CURVE('',#763,#766,#84,.T.);
#963=EDGE_CURVE('',#766,#767,#457,.T.);
#964=EDGE_CURVE('',#767,#768,#85,.T.);
#965=EDGE_CURVE('',#768,#769,#458,.T.);
#966=EDGE_CURVE('',#769,#770,#86,.T.);
#967=EDGE_CURVE('',#770,#771,#459,.T.);
#968=EDGE_CURVE('',#771,#772,#87,.T.);
#969=EDGE_CURVE('',#772,#763,#460,.T.);
#970=EDGE_CURVE('',#767,#773,#461,.T.);
#971=EDGE_CURVE('',#774,#773,#88,.T.);
#972=EDGE_CURVE('',#768,#774,#462,.T.);
#973=EDGE_CURVE('',#771,#775,#463,.T.);
#974=EDGE_CURVE('',#776,#775,#89,.T.);
#975=EDGE_CURVE('',#772,#776,#464,.T.);
#976=EDGE_CURVE('',#770,#777,#465,.T.);
#977=EDGE_CURVE('',#769,#778,#466,.T.);
#978=EDGE_CURVE('',#777,#778,#90,.T.);
#979=EDGE_CURVE('',#764,#776,#467,.T.);
#980=EDGE_CURVE('',#775,#777,#468,.T.);
#981=EDGE_CURVE('',#778,#774,#469,.T.);
#982=EDGE_CURVE('',#773,#765,#470,.T.);
#983=ORIENTED_EDGE('',*,*,#779,.F.);
#984=ORIENTED_EDGE('',*,*,#780,.T.);
#985=ORIENTED_EDGE('',*,*,#781,.F.);
#986=ORIENTED_EDGE('',*,*,#782,.F.);
#987=ORIENTED_EDGE('',*,*,#783,.F.);
#988=ORIENTED_EDGE('',*,*,#782,.T.);
#989=ORIENTED_EDGE('',*,*,#784,.F.);
#990=ORIENTED_EDGE('',*,*,#785,.F.);
#991=ORIENTED_EDGE('',*,*,#786,.F.);
#992=ORIENTED_EDGE('',*,*,#785,.T.);
#993=ORIENTED_EDGE('',*,*,#787,.F.);
#994=ORIENTED_EDGE('',*,*,#788,.F.);
#995=ORIENTED_EDGE('',*,*,#789,.F.);
#996=ORIENTED_EDGE('',*,*,#788,.T.);
#997=ORIENTED_EDGE('',*,*,#790,.F.);
#998=ORIENTED_EDGE('',*,*,#780,.F.);
#999=ORIENTED_EDGE('',*,*,#791,.F.);
#1000=ORIENTED_EDGE('',*,*,#792,.T.);
#1001=ORIENTED_EDGE('',*,*,#793,.F.);
#1002=ORIENTED_EDGE('',*,*,#794,.F.);
#1003=ORIENTED_EDGE('',*,*,#795,.F.);
#1004=ORIENTED_EDGE('',*,*,#794,.T.);
#1005=ORIENTED_EDGE('',*,*,#796,.F.);
#1006=ORIENTED_EDGE('',*,*,#797,.F.);
#1007=ORIENTED_EDGE('',*,*,#798,.F.);
#1008=ORIENTED_EDGE('',*,*,#797,.T.);
#1009=ORIENTED_EDGE('',*,*,#799,.F.);
#1010=ORIENTED_EDGE('',*,*,#800,.F.);
#1011=ORIENTED_EDGE('',*,*,#801,.F.);
#1012=ORIENTED_EDGE('',*,*,#800,.T.);
#1013=ORIENTED_EDGE('',*,*,#802,.F.);
#1014=ORIENTED_EDGE('',*,*,#792,.F.);
#1015=ORIENTED_EDGE('',*,*,#803,.F.);
#1016=ORIENTED_EDGE('',*,*,#804,.T.);
#1017=ORIENTED_EDGE('',*,*,#805,.F.);
#1018=ORIENTED_EDGE('',*,*,#806,.F.);
#1019=ORIENTED_EDGE('',*,*,#807,.F.);
#1020=ORIENTED_EDGE('',*,*,#806,.T.);
#1021=ORIENTED_EDGE('',*,*,#808,.F.);
#1022=ORIENTED_EDGE('',*,*,#809,.F.);
#1023=ORIENTED_EDGE('',*,*,#810,.F.);
#1024=ORIENTED_EDGE('',*,*,#809,.T.);
#1025=ORIENTED_EDGE('',*,*,#811,.F.);
#1026=ORIENTED_EDGE('',*,*,#812,.F.);
#1027=ORIENTED_EDGE('',*,*,#813,.F.);
#1028=ORIENTED_EDGE('',*,*,#812,.T.);
#1029=ORIENTED_EDGE('',*,*,#814,.F.);
#1030=ORIENTED_EDGE('',*,*,#804,.F.);
#1031=ORIENTED_EDGE('',*,*,#815,.F.);
#1032=ORIENTED_EDGE('',*,*,#816,.T.);
#1033=ORIENTED_EDGE('',*,*,#817,.F.);
#1034=ORIENTED_EDGE('',*,*,#818,.F.);
#1035=ORIENTED_EDGE('',*,*,#819,.F.);
#1036=ORIENTED_EDGE('',*,*,#818,.T.);
#1037=ORIENTED_EDGE('',*,*,#820,.F.);
#1038=ORIENTED_EDGE('',*,*,#821,.F.);
#1039=ORIENTED_EDGE('',*,*,#822,.F.);
#1040=ORIENTED_EDGE('',*,*,#821,.T.);
#1041=ORIENTED_EDGE('',*,*,#823,.F.);
#1042=ORIENTED_EDGE('',*,*,#824,.F.);
#1043=ORIENTED_EDGE('',*,*,#825,.F.);
#1044=ORIENTED_EDGE('',*,*,#824,.T.);
#1045=ORIENTED_EDGE('',*,*,#826,.F.);
#1046=ORIENTED_EDGE('',*,*,#816,.F.);
#1047=ORIENTED_EDGE('',*,*,#827,.F.);
#1048=ORIENTED_EDGE('',*,*,#828,.T.);
#1049=ORIENTED_EDGE('',*,*,#829,.F.);
#1050=ORIENTED_EDGE('',*,*,#830,.F.);
#1051=ORIENTED_EDGE('',*,*,#831,.F.);
#1052=ORIENTED_EDGE('',*,*,#830,.T.);
#1053=ORIENTED_EDGE('',*,*,#832,.F.);
#1054=ORIENTED_EDGE('',*,*,#833,.F.);
#1055=ORIENTED_EDGE('',*,*,#834,.F.);
#1056=ORIENTED_EDGE('',*,*,#833,.T.);
#1057=ORIENTED_EDGE('',*,*,#835,.F.);
#1058=ORIENTED_EDGE('',*,*,#836,.F.);
#1059=ORIENTED_EDGE('',*,*,#837,.F.);
#1060=ORIENTED_EDGE('',*,*,#836,.T.);
#1061=ORIENTED_EDGE('',*,*,#838,.F.);
#1062=ORIENTED_EDGE('',*,*,#828,.F.);
#1063=ORIENTED_EDGE('',*,*,#839,.F.);
#1064=ORIENTED_EDGE('',*,*,#840,.T.);
#1065=ORIENTED_EDGE('',*,*,#841,.F.);
#1066=ORIENTED_EDGE('',*,*,#842,.F.);
#1067=ORIENTED_EDGE('',*,*,#843,.F.);
#1068=ORIENTED_EDGE('',*,*,#842,.T.);
#1069=ORIENTED_EDGE('',*,*,#844,.F.);
#1070=ORIENTED_EDGE('',*,*,#845,.F.);
#1071=ORIENTED_EDGE('',*,*,#846,.F.);
#1072=ORIENTED_EDGE('',*,*,#845,.T.);
#1073=ORIENTED_EDGE('',*,*,#847,.F.);
#1074=ORIENTED_EDGE('',*,*,#848,.F.);
#1075=ORIENTED_EDGE('',*,*,#849,.F.);
#1076=ORIENTED_EDGE('',*,*,#848,.T.);
#1077=ORIENTED_EDGE('',*,*,#850,.F.);
#1078=ORIENTED_EDGE('',*,*,#840,.F.);
#1079=ORIENTED_EDGE('',*,*,#851,.F.);
#1080=ORIENTED_EDGE('',*,*,#852,.T.);
#1081=ORIENTED_EDGE('',*,*,#853,.F.);
#1082=ORIENTED_EDGE('',*,*,#854,.F.);
#1083=ORIENTED_EDGE('',*,*,#855,.F.);
#1084=ORIENTED_EDGE('',*,*,#854,.T.);
#1085=ORIENTED_EDGE('',*,*,#856,.F.);
#1086=ORIENTED_EDGE('',*,*,#857,.F.);
#1087=ORIENTED_EDGE('',*,*,#858,.F.);
#1088=ORIENTED_EDGE('',*,*,#857,.T.);
#1089=ORIENTED_EDGE('',*,*,#859,.F.);
#1090=ORIENTED_EDGE('',*,*,#860,.F.);
#1091=ORIENTED_EDGE('',*,*,#861,.F.);
#1092=ORIENTED_EDGE('',*,*,#860,.T.);
#1093=ORIENTED_EDGE('',*,*,#862,.F.);
#1094=ORIENTED_EDGE('',*,*,#852,.F.);
#1095=ORIENTED_EDGE('',*,*,#863,.F.);
#1096=ORIENTED_EDGE('',*,*,#864,.T.);
#1097=ORIENTED_EDGE('',*,*,#865,.F.);
#1098=ORIENTED_EDGE('',*,*,#866,.F.);
#1099=ORIENTED_EDGE('',*,*,#867,.F.);
#1100=ORIENTED_EDGE('',*,*,#866,.T.);
#1101=ORIENTED_EDGE('',*,*,#868,.F.);
#1102=ORIENTED_EDGE('',*,*,#869,.F.);
#1103=ORIENTED_EDGE('',*,*,#870,.F.);
#1104=ORIENTED_EDGE('',*,*,#869,.T.);
#1105=ORIENTED_EDGE('',*,*,#871,.F.);
#1106=ORIENTED_EDGE('',*,*,#872,.F.);
#1107=ORIENTED_EDGE('',*,*,#873,.F.);
#1108=ORIENTED_EDGE('',*,*,#872,.T.);
#1109=ORIENTED_EDGE('',*,*,#874,.F.);
#1110=ORIENTED_EDGE('',*,*,#864,.F.);
#1111=ORIENTED_EDGE('',*,*,#875,.F.);
#1112=ORIENTED_EDGE('',*,*,#876,.T.);
#1113=ORIENTED_EDGE('',*,*,#877,.F.);
#1114=ORIENTED_EDGE('',*,*,#878,.F.);
#1115=ORIENTED_EDGE('',*,*,#879,.F.);
#1116=ORIENTED_EDGE('',*,*,#878,.T.);
#1117=ORIENTED_EDGE('',*,*,#880,.F.);
#1118=ORIENTED_EDGE('',*,*,#881,.F.);
#1119=ORIENTED_EDGE('',*,*,#882,.F.);
#1120=ORIENTED_EDGE('',*,*,#881,.T.);
#1121=ORIENTED_EDGE('',*,*,#883,.F.);
#1122=ORIENTED_EDGE('',*,*,#884,.F.);
#1123=ORIENTED_EDGE('',*,*,#885,.F.);
#1124=ORIENTED_EDGE('',*,*,#884,.T.);
#1125=ORIENTED_EDGE('',*,*,#886,.F.);
#1126=ORIENTED_EDGE('',*,*,#876,.F.);
#1127=ORIENTED_EDGE('',*,*,#887,.F.);
#1128=ORIENTED_EDGE('',*,*,#888,.T.);
#1129=ORIENTED_EDGE('',*,*,#889,.F.);
#1130=ORIENTED_EDGE('',*,*,#890,.F.);
#1131=ORIENTED_EDGE('',*,*,#891,.F.);
#1132=ORIENTED_EDGE('',*,*,#890,.T.);
#1133=ORIENTED_EDGE('',*,*,#892,.F.);
#1134=ORIENTED_EDGE('',*,*,#893,.F.);
#1135=ORIENTED_EDGE('',*,*,#894,.F.);
#1136=ORIENTED_EDGE('',*,*,#893,.T.);
#1137=ORIENTED_EDGE('',*,*,#895,.F.);
#1138=ORIENTED_EDGE('',*,*,#896,.F.);
#1139=ORIENTED_EDGE('',*,*,#897,.F.);
#1140=ORIENTED_EDGE('',*,*,#896,.T.);
#1141=ORIENTED_EDGE('',*,*,#898,.F.);
#1142=ORIENTED_EDGE('',*,*,#888,.F.);
#1143=ORIENTED_EDGE('',*,*,#899,.F.);
#1144=ORIENTED_EDGE('',*,*,#900,.T.);
#1145=ORIENTED_EDGE('',*,*,#901,.F.);
#1146=ORIENTED_EDGE('',*,*,#902,.F.);
#1147=ORIENTED_EDGE('',*,*,#903,.F.);
#1148=ORIENTED_EDGE('',*,*,#902,.T.);
#1149=ORIENTED_EDGE('',*,*,#904,.F.);
#1150=ORIENTED_EDGE('',*,*,#905,.F.);
#1151=ORIENTED_EDGE('',*,*,#906,.F.);
#1152=ORIENTED_EDGE('',*,*,#905,.T.);
#1153=ORIENTED_EDGE('',*,*,#907,.F.);
#1154=ORIENTED_EDGE('',*,*,#908,.F.);
#1155=ORIENTED_EDGE('',*,*,#909,.F.);
#1156=ORIENTED_EDGE('',*,*,#908,.T.);
#1157=ORIENTED_EDGE('',*,*,#910,.F.);
#1158=ORIENTED_EDGE('',*,*,#900,.F.);
#1159=ORIENTED_EDGE('',*,*,#911,.F.);
#1160=ORIENTED_EDGE('',*,*,#912,.T.);
#1161=ORIENTED_EDGE('',*,*,#913,.F.);
#1162=ORIENTED_EDGE('',*,*,#914,.F.);
#1163=ORIENTED_EDGE('',*,*,#915,.F.);
#1164=ORIENTED_EDGE('',*,*,#914,.T.);
#1165=ORIENTED_EDGE('',*,*,#916,.F.);
#1166=ORIENTED_EDGE('',*,*,#917,.F.);
#1167=ORIENTED_EDGE('',*,*,#918,.F.);
#1168=ORIENTED_EDGE('',*,*,#917,.T.);
#1169=ORIENTED_EDGE('',*,*,#919,.F.);
#1170=ORIENTED_EDGE('',*,*,#920,.F.);
#1171=ORIENTED_EDGE('',*,*,#921,.F.);
#1172=ORIENTED_EDGE('',*,*,#920,.T.);
#1173=ORIENTED_EDGE('',*,*,#922,.F.);
#1174=ORIENTED_EDGE('',*,*,#912,.F.);
#1175=ORIENTED_EDGE('',*,*,#923,.F.);
#1176=ORIENTED_EDGE('',*,*,#924,.T.);
#1177=ORIENTED_EDGE('',*,*,#925,.F.);
#1178=ORIENTED_EDGE('',*,*,#924,.F.);
#1179=ORIENTED_EDGE('',*,*,#926,.F.);
#1180=ORIENTED_EDGE('',*,*,#927,.T.);
#1181=ORIENTED_EDGE('',*,*,#928,.F.);
#1182=ORIENTED_EDGE('',*,*,#927,.F.);
#1183=ORIENTED_EDGE('',*,*,#929,.F.);
#1184=ORIENTED_EDGE('',*,*,#930,.T.);
#1185=ORIENTED_EDGE('',*,*,#931,.F.);
#1186=ORIENTED_EDGE('',*,*,#930,.F.);
#1187=ORIENTED_EDGE('',*,*,#932,.F.);
#1188=ORIENTED_EDGE('',*,*,#933,.T.);
#1189=ORIENTED_EDGE('',*,*,#934,.F.);
#1190=ORIENTED_EDGE('',*,*,#933,.F.);
#1191=ORIENTED_EDGE('',*,*,#935,.F.);
#1192=ORIENTED_EDGE('',*,*,#936,.T.);
#1193=ORIENTED_EDGE('',*,*,#937,.T.);
#1194=ORIENTED_EDGE('',*,*,#936,.F.);
#1195=ORIENTED_EDGE('',*,*,#937,.F.);
#1196=ORIENTED_EDGE('',*,*,#938,.F.);
#1197=ORIENTED_EDGE('',*,*,#938,.T.);
#1198=ORIENTED_EDGE('',*,*,#939,.T.);
#1199=ORIENTED_EDGE('',*,*,#940,.F.);
#1200=ORIENTED_EDGE('',*,*,#939,.F.);
#1201=ORIENTED_EDGE('',*,*,#941,.F.);
#1202=ORIENTED_EDGE('',*,*,#942,.T.);
#1203=ORIENTED_EDGE('',*,*,#943,.T.);
#1204=ORIENTED_EDGE('',*,*,#942,.F.);
#1205=ORIENTED_EDGE('',*,*,#943,.F.);
#1206=ORIENTED_EDGE('',*,*,#944,.F.);
#1207=ORIENTED_EDGE('',*,*,#944,.T.);
#1208=ORIENTED_EDGE('',*,*,#945,.T.);
#1209=ORIENTED_EDGE('',*,*,#946,.F.);
#1210=ORIENTED_EDGE('',*,*,#945,.F.);
#1211=ORIENTED_EDGE('',*,*,#947,.F.);
#1212=ORIENTED_EDGE('',*,*,#948,.T.);
#1213=ORIENTED_EDGE('',*,*,#949,.T.);
#1214=ORIENTED_EDGE('',*,*,#948,.F.);
#1215=ORIENTED_EDGE('',*,*,#949,.F.);
#1216=ORIENTED_EDGE('',*,*,#950,.F.);
#1217=ORIENTED_EDGE('',*,*,#950,.T.);
#1218=ORIENTED_EDGE('',*,*,#951,.T.);
#1219=ORIENTED_EDGE('',*,*,#952,.F.);
#1220=ORIENTED_EDGE('',*,*,#951,.F.);
#1221=ORIENTED_EDGE('',*,*,#953,.F.);
#1222=ORIENTED_EDGE('',*,*,#954,.T.);
#1223=ORIENTED_EDGE('',*,*,#955,.T.);
#1224=ORIENTED_EDGE('',*,*,#954,.F.);
#1225=ORIENTED_EDGE('',*,*,#955,.F.);
#1226=ORIENTED_EDGE('',*,*,#956,.F.);
#1227=ORIENTED_EDGE('',*,*,#956,.T.);
#1228=ORIENTED_EDGE('',*,*,#957,.T.);
#1229=ORIENTED_EDGE('',*,*,#958,.F.);
#1230=ORIENTED_EDGE('',*,*,#957,.F.);
#1231=ORIENTED_EDGE('',*,*,#959,.T.);
#1232=ORIENTED_EDGE('',*,*,#960,.F.);
#1233=ORIENTED_EDGE('',*,*,#961,.F.);
#1234=ORIENTED_EDGE('',*,*,#962,.F.);
#1235=ORIENTED_EDGE('',*,*,#963,.T.);
#1236=ORIENTED_EDGE('',*,*,#964,.T.);
#1237=ORIENTED_EDGE('',*,*,#965,.T.);
#1238=ORIENTED_EDGE('',*,*,#966,.T.);
#1239=ORIENTED_EDGE('',*,*,#967,.T.);
#1240=ORIENTED_EDGE('',*,*,#968,.T.);
#1241=ORIENTED_EDGE('',*,*,#969,.T.);
#1242=ORIENTED_EDGE('',*,*,#962,.T.);
#1243=ORIENTED_EDGE('',*,*,#798,.T.);
#1244=ORIENTED_EDGE('',*,*,#801,.T.);
#1245=ORIENTED_EDGE('',*,*,#791,.T.);
#1246=ORIENTED_EDGE('',*,*,#795,.T.);
#1247=ORIENTED_EDGE('',*,*,#822,.T.);
#1248=ORIENTED_EDGE('',*,*,#825,.T.);
#1249=ORIENTED_EDGE('',*,*,#815,.T.);
#1250=ORIENTED_EDGE('',*,*,#819,.T.);
#1251=ORIENTED_EDGE('',*,*,#846,.T.);
#1252=ORIENTED_EDGE('',*,*,#849,.T.);
#1253=ORIENTED_EDGE('',*,*,#839,.T.);
#1254=ORIENTED_EDGE('',*,*,#843,.T.);
#1255=ORIENTED_EDGE('',*,*,#870,.T.);
#1256=ORIENTED_EDGE('',*,*,#873,.T.);
#1257=ORIENTED_EDGE('',*,*,#863,.T.);
#1258=ORIENTED_EDGE('',*,*,#867,.T.);
#1259=ORIENTED_EDGE('',*,*,#894,.T.);
#1260=ORIENTED_EDGE('',*,*,#897,.T.);
#1261=ORIENTED_EDGE('',*,*,#887,.T.);
#1262=ORIENTED_EDGE('',*,*,#891,.T.);
#1263=ORIENTED_EDGE('',*,*,#918,.T.);
#1264=ORIENTED_EDGE('',*,*,#921,.T.);
#1265=ORIENTED_EDGE('',*,*,#911,.T.);
#1266=ORIENTED_EDGE('',*,*,#915,.T.);
#1267=ORIENTED_EDGE('',*,*,#958,.T.);
#1268=ORIENTED_EDGE('',*,*,#952,.T.);
#1269=ORIENTED_EDGE('',*,*,#946,.T.);
#1270=ORIENTED_EDGE('',*,*,#940,.T.);
#1271=ORIENTED_EDGE('',*,*,#934,.T.);
#1272=ORIENTED_EDGE('',*,*,#931,.T.);
#1273=ORIENTED_EDGE('',*,*,#928,.T.);
#1274=ORIENTED_EDGE('',*,*,#925,.T.);
#1275=ORIENTED_EDGE('',*,*,#906,.T.);
#1276=ORIENTED_EDGE('',*,*,#909,.T.);
#1277=ORIENTED_EDGE('',*,*,#899,.T.);
#1278=ORIENTED_EDGE('',*,*,#903,.T.);
#1279=ORIENTED_EDGE('',*,*,#882,.T.);
#1280=ORIENTED_EDGE('',*,*,#885,.T.);
#1281=ORIENTED_EDGE('',*,*,#875,.T.);
#1282=ORIENTED_EDGE('',*,*,#879,.T.);
#1283=ORIENTED_EDGE('',*,*,#858,.T.);
#1284=ORIENTED_EDGE('',*,*,#861,.T.);
#1285=ORIENTED_EDGE('',*,*,#851,.T.);
#1286=ORIENTED_EDGE('',*,*,#855,.T.);
#1287=ORIENTED_EDGE('',*,*,#834,.T.);
#1288=ORIENTED_EDGE('',*,*,#837,.T.);
#1289=ORIENTED_EDGE('',*,*,#827,.T.);
#1290=ORIENTED_EDGE('',*,*,#831,.T.);
#1291=ORIENTED_EDGE('',*,*,#810,.T.);
#1292=ORIENTED_EDGE('',*,*,#813,.T.);
#1293=ORIENTED_EDGE('',*,*,#803,.T.);
#1294=ORIENTED_EDGE('',*,*,#807,.T.);
#1295=ORIENTED_EDGE('',*,*,#786,.T.);
#1296=ORIENTED_EDGE('',*,*,#789,.T.);
#1297=ORIENTED_EDGE('',*,*,#779,.T.);
#1298=ORIENTED_EDGE('',*,*,#783,.T.);
#1299=ORIENTED_EDGE('',*,*,#970,.T.);
#1300=ORIENTED_EDGE('',*,*,#971,.F.);
#1301=ORIENTED_EDGE('',*,*,#972,.F.);
#1302=ORIENTED_EDGE('',*,*,#964,.F.);
#1303=ORIENTED_EDGE('',*,*,#973,.T.);
#1304=ORIENTED_EDGE('',*,*,#974,.F.);
#1305=ORIENTED_EDGE('',*,*,#975,.F.);
#1306=ORIENTED_EDGE('',*,*,#968,.F.);
#1307=ORIENTED_EDGE('',*,*,#976,.F.);
#1308=ORIENTED_EDGE('',*,*,#966,.F.);
#1309=ORIENTED_EDGE('',*,*,#977,.T.);
#1310=ORIENTED_EDGE('',*,*,#978,.F.);
#1311=ORIENTED_EDGE('',*,*,#979,.T.);
#1312=ORIENTED_EDGE('',*,*,#974,.T.);
#1313=ORIENTED_EDGE('',*,*,#980,.T.);
#1314=ORIENTED_EDGE('',*,*,#978,.T.);
#1315=ORIENTED_EDGE('',*,*,#981,.T.);
#1316=ORIENTED_EDGE('',*,*,#971,.T.);
#1317=ORIENTED_EDGE('',*,*,#982,.T.);
#1318=ORIENTED_EDGE('',*,*,#960,.T.);
#1319=ORIENTED_EDGE('',*,*,#799,.T.);
#1320=ORIENTED_EDGE('',*,*,#796,.T.);
#1321=ORIENTED_EDGE('',*,*,#793,.T.);
#1322=ORIENTED_EDGE('',*,*,#802,.T.);
#1323=ORIENTED_EDGE('',*,*,#823,.T.);
#1324=ORIENTED_EDGE('',*,*,#820,.T.);
#1325=ORIENTED_EDGE('',*,*,#817,.T.);
#1326=ORIENTED_EDGE('',*,*,#826,.T.);
#1327=ORIENTED_EDGE('',*,*,#847,.T.);
#1328=ORIENTED_EDGE('',*,*,#844,.T.);
#1329=ORIENTED_EDGE('',*,*,#841,.T.);
#1330=ORIENTED_EDGE('',*,*,#850,.T.);
#1331=ORIENTED_EDGE('',*,*,#871,.T.);
#1332=ORIENTED_EDGE('',*,*,#868,.T.);
#1333=ORIENTED_EDGE('',*,*,#865,.T.);
#1334=ORIENTED_EDGE('',*,*,#874,.T.);
#1335=ORIENTED_EDGE('',*,*,#895,.T.);
#1336=ORIENTED_EDGE('',*,*,#892,.T.);
#1337=ORIENTED_EDGE('',*,*,#889,.T.);
#1338=ORIENTED_EDGE('',*,*,#898,.T.);
#1339=ORIENTED_EDGE('',*,*,#919,.T.);
#1340=ORIENTED_EDGE('',*,*,#916,.T.);
#1341=ORIENTED_EDGE('',*,*,#913,.T.);
#1342=ORIENTED_EDGE('',*,*,#922,.T.);
#1343=ORIENTED_EDGE('',*,*,#953,.T.);
#1344=ORIENTED_EDGE('',*,*,#947,.T.);
#1345=ORIENTED_EDGE('',*,*,#941,.T.);
#1346=ORIENTED_EDGE('',*,*,#935,.T.);
#1347=ORIENTED_EDGE('',*,*,#932,.T.);
#1348=ORIENTED_EDGE('',*,*,#929,.T.);
#1349=ORIENTED_EDGE('',*,*,#926,.T.);
#1350=ORIENTED_EDGE('',*,*,#923,.T.);
#1351=ORIENTED_EDGE('',*,*,#907,.T.);
#1352=ORIENTED_EDGE('',*,*,#904,.T.);
#1353=ORIENTED_EDGE('',*,*,#901,.T.);
#1354=ORIENTED_EDGE('',*,*,#910,.T.);
#1355=ORIENTED_EDGE('',*,*,#883,.T.);
#1356=ORIENTED_EDGE('',*,*,#880,.T.);
#1357=ORIENTED_EDGE('',*,*,#877,.T.);
#1358=ORIENTED_EDGE('',*,*,#886,.T.);
#1359=ORIENTED_EDGE('',*,*,#859,.T.);
#1360=ORIENTED_EDGE('',*,*,#856,.T.);
#1361=ORIENTED_EDGE('',*,*,#853,.T.);
#1362=ORIENTED_EDGE('',*,*,#862,.T.);
#1363=ORIENTED_EDGE('',*,*,#835,.T.);
#1364=ORIENTED_EDGE('',*,*,#832,.T.);
#1365=ORIENTED_EDGE('',*,*,#829,.T.);
#1366=ORIENTED_EDGE('',*,*,#838,.T.);
#1367=ORIENTED_EDGE('',*,*,#811,.T.);
#1368=ORIENTED_EDGE('',*,*,#808,.T.);
#1369=ORIENTED_EDGE('',*,*,#805,.T.);
#1370=ORIENTED_EDGE('',*,*,#814,.T.);
#1371=ORIENTED_EDGE('',*,*,#787,.T.);
#1372=ORIENTED_EDGE('',*,*,#784,.T.);
#1373=ORIENTED_EDGE('',*,*,#781,.T.);
#1374=ORIENTED_EDGE('',*,*,#790,.T.);
#1375=ORIENTED_EDGE('',*,*,#972,.T.);
#1376=ORIENTED_EDGE('',*,*,#981,.F.);
#1377=ORIENTED_EDGE('',*,*,#977,.F.);
#1378=ORIENTED_EDGE('',*,*,#965,.F.);
#1379=ORIENTED_EDGE('',*,*,#975,.T.);
#1380=ORIENTED_EDGE('',*,*,#979,.F.);
#1381=ORIENTED_EDGE('',*,*,#959,.F.);
#1382=ORIENTED_EDGE('',*,*,#969,.F.);
#1383=ORIENTED_EDGE('',*,*,#976,.T.);
#1384=ORIENTED_EDGE('',*,*,#980,.F.);
#1385=ORIENTED_EDGE('',*,*,#973,.F.);
#1386=ORIENTED_EDGE('',*,*,#967,.F.);
#1387=ORIENTED_EDGE('',*,*,#961,.T.);
#1388=ORIENTED_EDGE('',*,*,#982,.F.);
#1389=ORIENTED_EDGE('',*,*,#970,.F.);
#1390=ORIENTED_EDGE('',*,*,#963,.F.);
#1391=PLANE('',#1537);
#1392=PLANE('',#1538);
#1393=PLANE('',#1539);
#1394=PLANE('',#1540);
#1395=PLANE('',#1541);
#1396=PLANE('',#1542);
#1397=PLANE('',#1543);
#1398=PLANE('',#1544);
#1399=PLANE('',#1545);
#1400=PLANE('',#1546);
#1401=PLANE('',#1547);
#1402=PLANE('',#1548);
#1403=PLANE('',#1549);
#1404=PLANE('',#1550);
#1405=PLANE('',#1551);
#1406=PLANE('',#1552);
#1407=PLANE('',#1553);
#1408=PLANE('',#1554);
#1409=PLANE('',#1555);
#1410=PLANE('',#1556);
#1411=PLANE('',#1557);
#1412=PLANE('',#1558);
#1413=PLANE('',#1559);
#1414=PLANE('',#1560);
#1415=PLANE('',#1561);
#1416=PLANE('',#1562);
#1417=PLANE('',#1563);
#1418=PLANE('',#1564);
#1419=PLANE('',#1565);
#1420=PLANE('',#1566);
#1421=PLANE('',#1567);
#1422=PLANE('',#1568);
#1423=PLANE('',#1569);
#1424=PLANE('',#1570);
#1425=PLANE('',#1571);
#1426=PLANE('',#1572);
#1427=PLANE('',#1573);
#1428=PLANE('',#1574);
#1429=PLANE('',#1575);
#1430=PLANE('',#1576);
#1431=PLANE('',#1577);
#1432=PLANE('',#1578);
#1433=PLANE('',#1579);
#1434=PLANE('',#1580);
#1435=PLANE('',#1581);
#1436=PLANE('',#1582);
#1437=PLANE('',#1583);
#1438=PLANE('',#1584);
#1439=PLANE('',#1600);
#1440=PLANE('',#1607);
#1441=PLANE('',#1614);
#1442=PLANE('',#1621);
#1443=PLANE('',#1628);
#1444=PLANE('',#1638);
#1445=PLANE('',#1639);
#1446=PLANE('',#1640);
#1447=PLANE('',#1641);
#1448=PLANE('',#1642);
#1449=ADVANCED_FACE('',(#107),#1391,.T.);
#1450=ADVANCED_FACE('',(#108),#1392,.T.);
#1451=ADVANCED_FACE('',(#109),#1393,.T.);
#1452=ADVANCED_FACE('',(#110),#1394,.T.);
#1453=ADVANCED_FACE('',(#111),#1395,.T.);
#1454=ADVANCED_FACE('',(#112),#1396,.T.);
#1455=ADVANCED_FACE('',(#113),#1397,.T.);
#1456=ADVANCED_FACE('',(#114),#1398,.T.);
#1457=ADVANCED_FACE('',(#115),#1399,.T.);
#1458=ADVANCED_FACE('',(#116),#1400,.T.);
#1459=ADVANCED_FACE('',(#117),#1401,.T.);
#1460=ADVANCED_FACE('',(#118),#1402,.T.);
#1461=ADVANCED_FACE('',(#119),#1403,.T.);
#1462=ADVANCED_FACE('',(#120),#1404,.T.);
#1463=ADVANCED_FACE('',(#121),#1405,.T.);
#1464=ADVANCED_FACE('',(#122),#1406,.T.);
#1465=ADVANCED_FACE('',(#123),#1407,.T.);
#1466=ADVANCED_FACE('',(#124),#1408,.T.);
#1467=ADVANCED_FACE('',(#125),#1409,.T.);
#1468=ADVANCED_FACE('',(#126),#1410,.T.);
#1469=ADVANCED_FACE('',(#127),#1411,.T.);
#1470=ADVANCED_FACE('',(#128),#1412,.T.);
#1471=ADVANCED_FACE('',(#129),#1413,.T.);
#1472=ADVANCED_FACE('',(#130),#1414,.T.);
#1473=ADVANCED_FACE('',(#131),#1415,.T.);
#1474=ADVANCED_FACE('',(#132),#1416,.T.);
#1475=ADVANCED_FACE('',(#133),#1417,.T.);
#1476=ADVANCED_FACE('',(#134),#1418,.T.);
#1477=ADVANCED_FACE('',(#135),#1419,.T.);
#1478=ADVANCED_FACE('',(#136),#1420,.T.);
#1479=ADVANCED_FACE('',(#137),#1421,.T.);
#1480=ADVANCED_FACE('',(#138),#1422,.T.);
#1481=ADVANCED_FACE('',(#139),#1423,.T.);
#1482=ADVANCED_FACE('',(#140),#1424,.T.);
#1483=ADVANCED_FACE('',(#141),#1425,.T.);
#1484=ADVANCED_FACE('',(#142),#1426,.T.);
#1485=ADVANCED_FACE('',(#143),#1427,.T.);
#1486=ADVANCED_FACE('',(#144),#1428,.T.);
#1487=ADVANCED_FACE('',(#145),#1429,.T.);
#1488=ADVANCED_FACE('',(#146),#1430,.T.);
#1489=ADVANCED_FACE('',(#147),#1431,.T.);
#1490=ADVANCED_FACE('',(#148),#1432,.T.);
#1491=ADVANCED_FACE('',(#149),#1433,.T.);
#1492=ADVANCED_FACE('',(#150),#1434,.T.);
#1493=ADVANCED_FACE('',(#151),#1435,.T.);
#1494=ADVANCED_FACE('',(#152),#1436,.T.);
#1495=ADVANCED_FACE('',(#153),#1437,.T.);
#1496=ADVANCED_FACE('',(#154),#1438,.T.);
#1497=ADVANCED_FACE('',(#155),#91,.F.);
#1498=ADVANCED_FACE('',(#156),#92,.F.);
#1499=ADVANCED_FACE('',(#157),#93,.F.);
#1500=ADVANCED_FACE('',(#158),#94,.F.);
#1501=ADVANCED_FACE('',(#159),#95,.F.);
#1502=ADVANCED_FACE('',(#160,#15),#1439,.F.);
#1503=ADVANCED_FACE('',(#161),#96,.F.);
#1504=ADVANCED_FACE('',(#162),#97,.F.);
#1505=ADVANCED_FACE('',(#163,#16),#1440,.F.);
#1506=ADVANCED_FACE('',(#164),#98,.F.);
#1507=ADVANCED_FACE('',(#165),#99,.F.);
#1508=ADVANCED_FACE('',(#166,#17),#1441,.F.);
#1509=ADVANCED_FACE('',(#167),#100,.F.);
#1510=ADVANCED_FACE('',(#168),#101,.F.);
#1511=ADVANCED_FACE('',(#169,#18),#1442,.F.);
#1512=ADVANCED_FACE('',(#170),#102,.F.);
#1513=ADVANCED_FACE('',(#171),#103,.T.);
#1514=ADVANCED_FACE('',(#172,#19,#20,#21,#22,#23,#24,#25,#26,#27,#28,#29,
#30,#31,#32,#33,#34,#35,#36,#37,#38),#1443,.T.);
#1515=ADVANCED_FACE('',(#173),#104,.T.);
#1516=ADVANCED_FACE('',(#174),#105,.T.);
#1517=ADVANCED_FACE('',(#175),#106,.T.);
#1518=ADVANCED_FACE('',(#176,#39,#40,#41,#42,#43,#44,#45,#46,#47,#48,#49,
#50,#51,#52,#53,#54,#55,#56,#57,#58),#1444,.F.);
#1519=ADVANCED_FACE('',(#177),#1445,.F.);
#1520=ADVANCED_FACE('',(#178),#1446,.F.);
#1521=ADVANCED_FACE('',(#179),#1447,.F.);
#1522=ADVANCED_FACE('',(#180),#1448,.F.);
#1523=CLOSED_SHELL('',(#1449,#1450,#1451,#1452,#1453,#1454,#1455,#1456,
#1457,#1458,#1459,#1460,#1461,#1462,#1463,#1464,#1465,#1466,#1467,#1468,
#1469,#1470,#1471,#1472,#1473,#1474,#1475,#1476,#1477,#1478,#1479,#1480,
#1481,#1482,#1483,#1484,#1485,#1486,#1487,#1488,#1489,#1490,#1491,#1492,
#1493,#1494,#1495,#1496,#1497,#1498,#1499,#1500,#1501,#1502,#1503,#1504,
#1505,#1506,#1507,#1508,#1509,#1510,#1511,#1512,#1513,#1514,#1515,#1516,
#1517,#1518,#1519,#1520,#1521,#1522));
#1524=DERIVED_UNIT_ELEMENT(#1526,1.);
#1525=DERIVED_UNIT_ELEMENT(#2449,-3.);
#1526=(
MASS_UNIT()
NAMED_UNIT(*)
SI_UNIT(.KILO.,.GRAM.)
);
#1527=DERIVED_UNIT((#1524,#1525));
#1528=MEASURE_REPRESENTATION_ITEM('density measure',
POSITIVE_RATIO_MEASURE(7850.),#1527);
#1529=PROPERTY_DEFINITION_REPRESENTATION(#1534,#1531);
#1530=PROPERTY_DEFINITION_REPRESENTATION(#1535,#1532);
#1531=REPRESENTATION('material name',(#1533),#2446);
#1532=REPRESENTATION('density',(#1528),#2446);
#1533=DESCRIPTIVE_REPRESENTATION_ITEM('Steel','Steel');
#1534=PROPERTY_DEFINITION('material property','material name',#2456);
#1535=PROPERTY_DEFINITION('material property','density of part',#2456);
#1536=AXIS2_PLACEMENT_3D('',#2029,#1643,#1644);
#1537=AXIS2_PLACEMENT_3D('',#2030,#1645,#1646);
#1538=AXIS2_PLACEMENT_3D('',#2039,#1651,#1652);
#1539=AXIS2_PLACEMENT_3D('',#2045,#1656,#1657);
#1540=AXIS2_PLACEMENT_3D('',#2051,#1661,#1662);
#1541=AXIS2_PLACEMENT_3D('',#2054,#1665,#1666);
#1542=AXIS2_PLACEMENT_3D('',#2063,#1671,#1672);
#1543=AXIS2_PLACEMENT_3D('',#2069,#1676,#1677);
#1544=AXIS2_PLACEMENT_3D('',#2075,#1681,#1682);
#1545=AXIS2_PLACEMENT_3D('',#2078,#1685,#1686);
#1546=AXIS2_PLACEMENT_3D('',#2087,#1691,#1692);
#1547=AXIS2_PLACEMENT_3D('',#2093,#1696,#1697);
#1548=AXIS2_PLACEMENT_3D('',#2099,#1701,#1702);
#1549=AXIS2_PLACEMENT_3D('',#2102,#1705,#1706);
#1550=AXIS2_PLACEMENT_3D('',#2111,#1711,#1712);
#1551=AXIS2_PLACEMENT_3D('',#2117,#1716,#1717);
#1552=AXIS2_PLACEMENT_3D('',#2123,#1721,#1722);
#1553=AXIS2_PLACEMENT_3D('',#2126,#1725,#1726);
#1554=AXIS2_PLACEMENT_3D('',#2135,#1731,#1732);
#1555=AXIS2_PLACEMENT_3D('',#2141,#1736,#1737);
#1556=AXIS2_PLACEMENT_3D('',#2147,#1741,#1742);
#1557=AXIS2_PLACEMENT_3D('',#2150,#1745,#1746);
#1558=AXIS2_PLACEMENT_3D('',#2159,#1751,#1752);
#1559=AXIS2_PLACEMENT_3D('',#2165,#1756,#1757);
#1560=AXIS2_PLACEMENT_3D('',#2171,#1761,#1762);
#1561=AXIS2_PLACEMENT_3D('',#2174,#1765,#1766);
#1562=AXIS2_PLACEMENT_3D('',#2183,#1771,#1772);
#1563=AXIS2_PLACEMENT_3D('',#2189,#1776,#1777);
#1564=AXIS2_PLACEMENT_3D('',#2195,#1781,#1782);
#1565=AXIS2_PLACEMENT_3D('',#2198,#1785,#1786);
#1566=AXIS2_PLACEMENT_3D('',#2207,#1791,#1792);
#1567=AXIS2_PLACEMENT_3D('',#2213,#1796,#1797);
#1568=AXIS2_PLACEMENT_3D('',#2219,#1801,#1802);
#1569=AXIS2_PLACEMENT_3D('',#2222,#1805,#1806);
#1570=AXIS2_PLACEMENT_3D('',#2231,#1811,#1812);
#1571=AXIS2_PLACEMENT_3D('',#2237,#1816,#1817);
#1572=AXIS2_PLACEMENT_3D('',#2243,#1821,#1822);
#1573=AXIS2_PLACEMENT_3D('',#2246,#1825,#1826);
#1574=AXIS2_PLACEMENT_3D('',#2255,#1831,#1832);
#1575=AXIS2_PLACEMENT_3D('',#2261,#1836,#1837);
#1576=AXIS2_PLACEMENT_3D('',#2267,#1841,#1842);
#1577=AXIS2_PLACEMENT_3D('',#2270,#1845,#1846);
#1578=AXIS2_PLACEMENT_3D('',#2279,#1851,#1852);
#1579=AXIS2_PLACEMENT_3D('',#2285,#1856,#1857);
#1580=AXIS2_PLACEMENT_3D('',#2291,#1861,#1862);
#1581=AXIS2_PLACEMENT_3D('',#2294,#1865,#1866);
#1582=AXIS2_PLACEMENT_3D('',#2303,#1871,#1872);
#1583=AXIS2_PLACEMENT_3D('',#2309,#1876,#1877);
#1584=AXIS2_PLACEMENT_3D('',#2315,#1881,#1882);
#1585=AXIS2_PLACEMENT_3D('',#2318,#1885,#1886);
#1586=AXIS2_PLACEMENT_3D('',#2320,#1887,#1888);
#1587=AXIS2_PLACEMENT_3D('',#2323,#1890,#1891);
#1588=AXIS2_PLACEMENT_3D('',#2324,#1892,#1893);
#1589=AXIS2_PLACEMENT_3D('',#2326,#1894,#1895);
#1590=AXIS2_PLACEMENT_3D('',#2329,#1897,#1898);
#1591=AXIS2_PLACEMENT_3D('',#2330,#1899,#1900);
#1592=AXIS2_PLACEMENT_3D('',#2332,#1901,#1902);
#1593=AXIS2_PLACEMENT_3D('',#2335,#1904,#1905);
#1594=AXIS2_PLACEMENT_3D('',#2336,#1906,#1907);
#1595=AXIS2_PLACEMENT_3D('',#2338,#1908,#1909);
#1596=AXIS2_PLACEMENT_3D('',#2341,#1911,#1912);
#1597=AXIS2_PLACEMENT_3D('',#2342,#1913,#1914);
#1598=AXIS2_PLACEMENT_3D('',#2344,#1915,#1916);
#1599=AXIS2_PLACEMENT_3D('',#2347,#1918,#1919);
#1600=AXIS2_PLACEMENT_3D('',#2348,#1920,#1921);
#1601=AXIS2_PLACEMENT_3D('',#2350,#1922,#1923);
#1602=AXIS2_PLACEMENT_3D('',#2351,#1924,#1925);
#1603=AXIS2_PLACEMENT_3D('',#2354,#1927,#1928);
#1604=AXIS2_PLACEMENT_3D('',#2355,#1929,#1930);
#1605=AXIS2_PLACEMENT_3D('',#2357,#1931,#1932);
#1606=AXIS2_PLACEMENT_3D('',#2360,#1934,#1935);
#1607=AXIS2_PLACEMENT_3D('',#2361,#1936,#1937);
#1608=AXIS2_PLACEMENT_3D('',#2363,#1938,#1939);
#1609=AXIS2_PLACEMENT_3D('',#2364,#1940,#1941);
#1610=AXIS2_PLACEMENT_3D('',#2367,#1943,#1944);
#1611=AXIS2_PLACEMENT_3D('',#2368,#1945,#1946);
#1612=AXIS2_PLACEMENT_3D('',#2370,#1947,#1948);
#1613=AXIS2_PLACEMENT_3D('',#2373,#1950,#1951);
#1614=AXIS2_PLACEMENT_3D('',#2374,#1952,#1953);
#1615=AXIS2_PLACEMENT_3D('',#2376,#1954,#1955);
#1616=AXIS2_PLACEMENT_3D('',#2377,#1956,#1957);
#1617=AXIS2_PLACEMENT_3D('',#2380,#1959,#1960);
#1618=AXIS2_PLACEMENT_3D('',#2381,#1961,#1962);
#1619=AXIS2_PLACEMENT_3D('',#2383,#1963,#1964);
#1620=AXIS2_PLACEMENT_3D('',#2386,#1966,#1967);
#1621=AXIS2_PLACEMENT_3D('',#2387,#1968,#1969);
#1622=AXIS2_PLACEMENT_3D('',#2389,#1970,#1971);
#1623=AXIS2_PLACEMENT_3D('',#2390,#1972,#1973);
#1624=AXIS2_PLACEMENT_3D('',#2393,#1975,#1976);
#1625=AXIS2_PLACEMENT_3D('',#2394,#1977,#1978);
#1626=AXIS2_PLACEMENT_3D('',#2399,#1980,#1981);
#1627=AXIS2_PLACEMENT_3D('',#2402,#1983,#1984);
#1628=AXIS2_PLACEMENT_3D('',#2403,#1985,#1986);
#1629=AXIS2_PLACEMENT_3D('',#2407,#1988,#1989);
#1630=AXIS2_PLACEMENT_3D('',#2411,#1991,#1992);
#1631=AXIS2_PLACEMENT_3D('',#2415,#1994,#1995);
#1632=AXIS2_PLACEMENT_3D('',#2417,#1997,#1998);
#1633=AXIS2_PLACEMENT_3D('',#2421,#2000,#2001);
#1634=AXIS2_PLACEMENT_3D('',#2423,#2003,#2004);
#1635=AXIS2_PLACEMENT_3D('',#2427,#2006,#2007);
#1636=AXIS2_PLACEMENT_3D('',#2429,#2009,#2010);
#1637=AXIS2_PLACEMENT_3D('',#2434,#2013,#2014);
#1638=AXIS2_PLACEMENT_3D('',#2435,#2015,#2016);
#1639=AXIS2_PLACEMENT_3D('',#2440,#2021,#2022);
#1640=AXIS2_PLACEMENT_3D('',#2441,#2023,#2024);
#1641=AXIS2_PLACEMENT_3D('',#2442,#2025,#2026);
#1642=AXIS2_PLACEMENT_3D('',#2443,#2027,#2028);
#1643=DIRECTION('axis',(0.,0.,1.));
#1644=DIRECTION('refdir',(1.,0.,0.));
#1645=DIRECTION('center_axis',(0.,0.,-1.));
#1646=DIRECTION('ref_axis',(0.,1.,0.));
#1647=DIRECTION('',(1.,0.,0.));
#1648=DIRECTION('',(0.,1.,0.));
#1649=DIRECTION('',(-1.,0.,0.));
#1650=DIRECTION('',(0.,1.,0.));
#1651=DIRECTION('center_axis',(-1.,0.,0.));
#1652=DIRECTION('ref_axis',(0.,-1.,0.));
#1653=DIRECTION('',(0.,0.,-1.));
#1654=DIRECTION('',(0.,0.,1.));
#1655=DIRECTION('',(0.,1.,0.));
#1656=DIRECTION('center_axis',(0.,0.,1.));
#1657=DIRECTION('ref_axis',(0.,-1.,0.));
#1658=DIRECTION('',(-1.,0.,0.));
#1659=DIRECTION('',(1.,0.,0.));
#1660=DIRECTION('',(0.,1.,0.));
#1661=DIRECTION('center_axis',(1.,0.,0.));
#1662=DIRECTION('ref_axis',(0.,1.,0.));
#1663=DIRECTION('',(0.,0.,1.));
#1664=DIRECTION('',(0.,0.,-1.));
#1665=DIRECTION('center_axis',(0.,0.,-1.));
#1666=DIRECTION('ref_axis',(0.,1.,0.));
#1667=DIRECTION('',(1.,0.,0.));
#1668=DIRECTION('',(0.,1.,0.));
#1669=DIRECTION('',(-1.,0.,0.));
#1670=DIRECTION('',(0.,1.,0.));
#1671=DIRECTION('center_axis',(-1.,0.,0.));
#1672=DIRECTION('ref_axis',(0.,-1.,0.));
#1673=DIRECTION('',(0.,0.,-1.));
#1674=DIRECTION('',(0.,0.,1.));
#1675=DIRECTION('',(0.,1.,0.));
#1676=DIRECTION('center_axis',(0.,0.,1.));
#1677=DIRECTION('ref_axis',(0.,-1.,0.));
#1678=DIRECTION('',(-1.,0.,0.));
#1679=DIRECTION('',(1.,0.,0.));
#1680=DIRECTION('',(0.,1.,0.));
#1681=DIRECTION('center_axis',(1.,0.,0.));
#1682=DIRECTION('ref_axis',(0.,1.,0.));
#1683=DIRECTION('',(0.,0.,1.));
#1684=DIRECTION('',(0.,0.,-1.));
#1685=DIRECTION('center_axis',(0.,0.,-1.));
#1686=DIRECTION('ref_axis',(0.,1.,0.));
#1687=DIRECTION('',(1.,0.,0.));
#1688=DIRECTION('',(0.,1.,0.));
#1689=DIRECTION('',(-1.,0.,0.));
#1690=DIRECTION('',(0.,1.,0.));
#1691=DIRECTION('center_axis',(-1.,0.,0.));
#1692=DIRECTION('ref_axis',(0.,-1.,0.));
#1693=DIRECTION('',(0.,0.,-1.));
#1694=DIRECTION('',(0.,0.,1.));
#1695=DIRECTION('',(0.,1.,0.));
#1696=DIRECTION('center_axis',(0.,0.,1.));
#1697=DIRECTION('ref_axis',(0.,-1.,0.));
#1698=DIRECTION('',(-1.,0.,0.));
#1699=DIRECTION('',(1.,0.,0.));
#1700=DIRECTION('',(0.,1.,0.));
#1701=DIRECTION('center_axis',(1.,0.,0.));
#1702=DIRECTION('ref_axis',(0.,1.,0.));
#1703=DIRECTION('',(0.,0.,1.));
#1704=DIRECTION('',(0.,0.,-1.));
#1705=DIRECTION('center_axis',(0.,0.,-1.));
#1706=DIRECTION('ref_axis',(0.,1.,0.));
#1707=DIRECTION('',(1.,0.,0.));
#1708=DIRECTION('',(0.,1.,0.));
#1709=DIRECTION('',(-1.,0.,0.));
#1710=DIRECTION('',(0.,1.,0.));
#1711=DIRECTION('center_axis',(-1.,0.,0.));
#1712=DIRECTION('ref_axis',(0.,-1.,0.));
#1713=DIRECTION('',(0.,0.,-1.));
#1714=DIRECTION('',(0.,0.,1.));
#1715=DIRECTION('',(0.,1.,0.));
#1716=DIRECTION('center_axis',(0.,0.,1.));
#1717=DIRECTION('ref_axis',(0.,-1.,0.));
#1718=DIRECTION('',(-1.,0.,0.));
#1719=DIRECTION('',(1.,0.,0.));
#1720=DIRECTION('',(0.,1.,0.));
#1721=DIRECTION('center_axis',(1.,0.,0.));
#1722=DIRECTION('ref_axis',(0.,1.,0.));
#1723=DIRECTION('',(0.,0.,1.));
#1724=DIRECTION('',(0.,0.,-1.));
#1725=DIRECTION('center_axis',(0.,0.,-1.));
#1726=DIRECTION('ref_axis',(0.,1.,0.));
#1727=DIRECTION('',(1.,0.,0.));
#1728=DIRECTION('',(0.,1.,0.));
#1729=DIRECTION('',(-1.,0.,0.));
#1730=DIRECTION('',(0.,1.,0.));
#1731=DIRECTION('center_axis',(-1.,0.,0.));
#1732=DIRECTION('ref_axis',(0.,-1.,0.));
#1733=DIRECTION('',(0.,0.,-1.));
#1734=DIRECTION('',(0.,0.,1.));
#1735=DIRECTION('',(0.,1.,0.));
#1736=DIRECTION('center_axis',(0.,0.,1.));
#1737=DIRECTION('ref_axis',(0.,-1.,0.));
#1738=DIRECTION('',(-1.,0.,0.));
#1739=DIRECTION('',(1.,0.,0.));
#1740=DIRECTION('',(0.,1.,0.));
#1741=DIRECTION('center_axis',(1.,0.,0.));
#1742=DIRECTION('ref_axis',(0.,1.,0.));
#1743=DIRECTION('',(0.,0.,1.));
#1744=DIRECTION('',(0.,0.,-1.));
#1745=DIRECTION('center_axis',(0.,0.,-1.));
#1746=DIRECTION('ref_axis',(0.,1.,0.));
#1747=DIRECTION('',(1.,0.,0.));
#1748=DIRECTION('',(0.,1.,0.));
#1749=DIRECTION('',(-1.,0.,0.));
#1750=DIRECTION('',(0.,1.,0.));
#1751=DIRECTION('center_axis',(-1.,0.,0.));
#1752=DIRECTION('ref_axis',(0.,-1.,0.));
#1753=DIRECTION('',(0.,0.,-1.));
#1754=DIRECTION('',(0.,0.,1.));
#1755=DIRECTION('',(0.,1.,0.));
#1756=DIRECTION('center_axis',(0.,0.,1.));
#1757=DIRECTION('ref_axis',(0.,-1.,0.));
#1758=DIRECTION('',(-1.,0.,0.));
#1759=DIRECTION('',(1.,0.,0.));
#1760=DIRECTION('',(0.,1.,0.));
#1761=DIRECTION('center_axis',(1.,0.,0.));
#1762=DIRECTION('ref_axis',(0.,1.,0.));
#1763=DIRECTION('',(0.,0.,1.));
#1764=DIRECTION('',(0.,0.,-1.));
#1765=DIRECTION('center_axis',(0.,0.,-1.));
#1766=DIRECTION('ref_axis',(0.,1.,0.));
#1767=DIRECTION('',(1.,0.,0.));
#1768=DIRECTION('',(0.,1.,0.));
#1769=DIRECTION('',(-1.,0.,0.));
#1770=DIRECTION('',(0.,1.,0.));
#1771=DIRECTION('center_axis',(-1.,0.,0.));
#1772=DIRECTION('ref_axis',(0.,-1.,0.));
#1773=DIRECTION('',(0.,0.,-1.));
#1774=DIRECTION('',(0.,0.,1.));
#1775=DIRECTION('',(0.,1.,0.));
#1776=DIRECTION('center_axis',(0.,0.,1.));
#1777=DIRECTION('ref_axis',(0.,-1.,0.));
#1778=DIRECTION('',(-1.,0.,0.));
#1779=DIRECTION('',(1.,0.,0.));
#1780=DIRECTION('',(0.,1.,0.));
#1781=DIRECTION('center_axis',(1.,0.,0.));
#1782=DIRECTION('ref_axis',(0.,1.,0.));
#1783=DIRECTION('',(0.,0.,1.));
#1784=DIRECTION('',(0.,0.,-1.));
#1785=DIRECTION('center_axis',(0.,0.,-1.));
#1786=DIRECTION('ref_axis',(0.,1.,0.));
#1787=DIRECTION('',(1.,0.,0.));
#1788=DIRECTION('',(0.,1.,0.));
#1789=DIRECTION('',(-1.,0.,0.));
#1790=DIRECTION('',(0.,1.,0.));
#1791=DIRECTION('center_axis',(-1.,0.,0.));
#1792=DIRECTION('ref_axis',(0.,-1.,0.));
#1793=DIRECTION('',(0.,0.,-1.));
#1794=DIRECTION('',(0.,0.,1.));
#1795=DIRECTION('',(0.,1.,0.));
#1796=DIRECTION('center_axis',(0.,0.,1.));
#1797=DIRECTION('ref_axis',(0.,-1.,0.));
#1798=DIRECTION('',(-1.,0.,0.));
#1799=DIRECTION('',(1.,0.,0.));
#1800=DIRECTION('',(0.,1.,0.));
#1801=DIRECTION('center_axis',(1.,0.,0.));
#1802=DIRECTION('ref_axis',(0.,1.,0.));
#1803=DIRECTION('',(0.,0.,1.));
#1804=DIRECTION('',(0.,0.,-1.));
#1805=DIRECTION('center_axis',(0.,0.,-1.));
#1806=DIRECTION('ref_axis',(0.,1.,0.));
#1807=DIRECTION('',(1.,0.,0.));
#1808=DIRECTION('',(0.,1.,0.));
#1809=DIRECTION('',(-1.,0.,0.));
#1810=DIRECTION('',(0.,1.,0.));
#1811=DIRECTION('center_axis',(-1.,0.,0.));
#1812=DIRECTION('ref_axis',(0.,-1.,0.));
#1813=DIRECTION('',(0.,0.,-1.));
#1814=DIRECTION('',(0.,0.,1.));
#1815=DIRECTION('',(0.,1.,0.));
#1816=DIRECTION('center_axis',(0.,0.,1.));
#1817=DIRECTION('ref_axis',(0.,-1.,0.));
#1818=DIRECTION('',(-1.,0.,0.));
#1819=DIRECTION('',(1.,0.,0.));
#1820=DIRECTION('',(0.,1.,0.));
#1821=DIRECTION('center_axis',(1.,0.,0.));
#1822=DIRECTION('ref_axis',(0.,1.,0.));
#1823=DIRECTION('',(0.,0.,1.));
#1824=DIRECTION('',(0.,0.,-1.));
#1825=DIRECTION('center_axis',(0.,0.,-1.));
#1826=DIRECTION('ref_axis',(0.,1.,0.));
#1827=DIRECTION('',(1.,0.,0.));
#1828=DIRECTION('',(0.,1.,0.));
#1829=DIRECTION('',(-1.,0.,0.));
#1830=DIRECTION('',(0.,1.,0.));
#1831=DIRECTION('center_axis',(-1.,0.,0.));
#1832=DIRECTION('ref_axis',(0.,-1.,0.));
#1833=DIRECTION('',(0.,0.,-1.));
#1834=DIRECTION('',(0.,0.,1.));
#1835=DIRECTION('',(0.,1.,0.));
#1836=DIRECTION('center_axis',(0.,0.,1.));
#1837=DIRECTION('ref_axis',(0.,-1.,0.));
#1838=DIRECTION('',(-1.,0.,0.));
#1839=DIRECTION('',(1.,0.,0.));
#1840=DIRECTION('',(0.,1.,0.));
#1841=DIRECTION('center_axis',(1.,0.,0.));
#1842=DIRECTION('ref_axis',(0.,1.,0.));
#1843=DIRECTION('',(0.,0.,1.));
#1844=DIRECTION('',(0.,0.,-1.));
#1845=DIRECTION('center_axis',(0.,0.,-1.));
#1846=DIRECTION('ref_axis',(0.,1.,0.));
#1847=DIRECTION('',(1.,0.,0.));
#1848=DIRECTION('',(0.,1.,0.));
#1849=DIRECTION('',(-1.,0.,0.));
#1850=DIRECTION('',(0.,1.,0.));
#1851=DIRECTION('center_axis',(-1.,0.,0.));
#1852=DIRECTION('ref_axis',(0.,-1.,0.));
#1853=DIRECTION('',(0.,0.,-1.));
#1854=DIRECTION('',(0.,0.,1.));
#1855=DIRECTION('',(0.,1.,0.));
#1856=DIRECTION('center_axis',(0.,0.,1.));
#1857=DIRECTION('ref_axis',(0.,-1.,0.));
#1858=DIRECTION('',(-1.,0.,0.));
#1859=DIRECTION('',(1.,0.,0.));
#1860=DIRECTION('',(0.,1.,0.));
#1861=DIRECTION('center_axis',(1.,0.,0.));
#1862=DIRECTION('ref_axis',(0.,1.,0.));
#1863=DIRECTION('',(0.,0.,1.));
#1864=DIRECTION('',(0.,0.,-1.));
#1865=DIRECTION('center_axis',(0.,0.,-1.));
#1866=DIRECTION('ref_axis',(0.,1.,0.));
#1867=DIRECTION('',(1.,0.,0.));
#1868=DIRECTION('',(0.,1.,0.));
#1869=DIRECTION('',(-1.,0.,0.));
#1870=DIRECTION('',(0.,1.,0.));
#1871=DIRECTION('center_axis',(-1.,0.,0.));
#1872=DIRECTION('ref_axis',(0.,-1.,0.));
#1873=DIRECTION('',(0.,0.,-1.));
#1874=DIRECTION('',(0.,0.,1.));
#1875=DIRECTION('',(0.,1.,0.));
#1876=DIRECTION('center_axis',(0.,0.,1.));
#1877=DIRECTION('ref_axis',(0.,-1.,0.));
#1878=DIRECTION('',(-1.,0.,0.));
#1879=DIRECTION('',(1.,0.,0.));
#1880=DIRECTION('',(0.,1.,0.));
#1881=DIRECTION('center_axis',(1.,0.,0.));
#1882=DIRECTION('ref_axis',(0.,1.,0.));
#1883=DIRECTION('',(0.,0.,1.));
#1884=DIRECTION('',(0.,0.,-1.));
#1885=DIRECTION('center_axis',(0.,-1.,0.));
#1886=DIRECTION('ref_axis',(1.,0.,0.));
#1887=DIRECTION('center_axis',(0.,-1.,0.));
#1888=DIRECTION('ref_axis',(1.,0.,0.));
#1889=DIRECTION('',(0.,-1.,0.));
#1890=DIRECTION('center_axis',(0.,1.,0.));
#1891=DIRECTION('ref_axis',(1.,0.,0.));
#1892=DIRECTION('center_axis',(0.,-1.,0.));
#1893=DIRECTION('ref_axis',(1.,0.,0.));
#1894=DIRECTION('center_axis',(0.,-1.,0.));
#1895=DIRECTION('ref_axis',(1.,0.,0.));
#1896=DIRECTION('',(0.,-1.,0.));
#1897=DIRECTION('center_axis',(0.,1.,0.));
#1898=DIRECTION('ref_axis',(1.,0.,0.));
#1899=DIRECTION('center_axis',(0.,-1.,0.));
#1900=DIRECTION('ref_axis',(1.,0.,0.));
#1901=DIRECTION('center_axis',(0.,-1.,0.));
#1902=DIRECTION('ref_axis',(1.,0.,0.));
#1903=DIRECTION('',(0.,-1.,0.));
#1904=DIRECTION('center_axis',(0.,1.,0.));
#1905=DIRECTION('ref_axis',(1.,0.,0.));
#1906=DIRECTION('center_axis',(0.,-1.,0.));
#1907=DIRECTION('ref_axis',(1.,0.,0.));
#1908=DIRECTION('center_axis',(0.,-1.,0.));
#1909=DIRECTION('ref_axis',(1.,0.,0.));
#1910=DIRECTION('',(0.,-1.,0.));
#1911=DIRECTION('center_axis',(0.,1.,0.));
#1912=DIRECTION('ref_axis',(1.,0.,0.));
#1913=DIRECTION('center_axis',(0.,-1.,0.));
#1914=DIRECTION('ref_axis',(1.,0.,0.));
#1915=DIRECTION('center_axis',(0.,-1.,0.));
#1916=DIRECTION('ref_axis',(1.,0.,0.));
#1917=DIRECTION('',(0.,-1.,0.));
#1918=DIRECTION('center_axis',(0.,-1.,0.));
#1919=DIRECTION('ref_axis',(1.,0.,0.));
#1920=DIRECTION('center_axis',(0.,-1.,0.));
#1921=DIRECTION('ref_axis',(1.,0.,0.));
#1922=DIRECTION('center_axis',(0.,1.,0.));
#1923=DIRECTION('ref_axis',(1.,0.,0.));
#1924=DIRECTION('center_axis',(0.,-1.,0.));
#1925=DIRECTION('ref_axis',(1.,0.,0.));
#1926=DIRECTION('',(0.,-1.,0.));
#1927=DIRECTION('center_axis',(0.,1.,0.));
#1928=DIRECTION('ref_axis',(1.,0.,0.));
#1929=DIRECTION('center_axis',(0.,-1.,0.));
#1930=DIRECTION('ref_axis',(1.,0.,0.));
#1931=DIRECTION('center_axis',(0.,-1.,0.));
#1932=DIRECTION('ref_axis',(1.,0.,0.));
#1933=DIRECTION('',(0.,-1.,0.));
#1934=DIRECTION('center_axis',(0.,-1.,0.));
#1935=DIRECTION('ref_axis',(1.,0.,0.));
#1936=DIRECTION('center_axis',(0.,-1.,0.));
#1937=DIRECTION('ref_axis',(1.,0.,0.));
#1938=DIRECTION('center_axis',(0.,1.,0.));
#1939=DIRECTION('ref_axis',(1.,0.,0.));
#1940=DIRECTION('center_axis',(0.,-1.,0.));
#1941=DIRECTION('ref_axis',(1.,0.,0.));
#1942=DIRECTION('',(0.,-1.,0.));
#1943=DIRECTION('center_axis',(0.,1.,0.));
#1944=DIRECTION('ref_axis',(1.,0.,0.));
#1945=DIRECTION('center_axis',(0.,-1.,0.));
#1946=DIRECTION('ref_axis',(1.,0.,0.));
#1947=DIRECTION('center_axis',(0.,-1.,0.));
#1948=DIRECTION('ref_axis',(1.,0.,0.));
#1949=DIRECTION('',(0.,-1.,0.));
#1950=DIRECTION('center_axis',(0.,-1.,0.));
#1951=DIRECTION('ref_axis',(1.,0.,0.));
#1952=DIRECTION('center_axis',(0.,-1.,0.));
#1953=DIRECTION('ref_axis',(1.,0.,0.));
#1954=DIRECTION('center_axis',(0.,1.,0.));
#1955=DIRECTION('ref_axis',(1.,0.,0.));
#1956=DIRECTION('center_axis',(0.,-1.,0.));
#1957=DIRECTION('ref_axis',(1.,0.,0.));
#1958=DIRECTION('',(0.,-1.,0.));
#1959=DIRECTION('center_axis',(0.,1.,0.));
#1960=DIRECTION('ref_axis',(1.,0.,0.));
#1961=DIRECTION('center_axis',(0.,-1.,0.));
#1962=DIRECTION('ref_axis',(1.,0.,0.));
#1963=DIRECTION('center_axis',(0.,-1.,0.));
#1964=DIRECTION('ref_axis',(1.,0.,0.));
#1965=DIRECTION('',(0.,-1.,0.));
#1966=DIRECTION('center_axis',(0.,-1.,0.));
#1967=DIRECTION('ref_axis',(1.,0.,0.));
#1968=DIRECTION('center_axis',(0.,-1.,0.));
#1969=DIRECTION('ref_axis',(1.,0.,0.));
#1970=DIRECTION('center_axis',(0.,1.,0.));
#1971=DIRECTION('ref_axis',(1.,0.,0.));
#1972=DIRECTION('center_axis',(0.,-1.,0.));
#1973=DIRECTION('ref_axis',(1.,0.,0.));
#1974=DIRECTION('',(0.,-1.,0.));
#1975=DIRECTION('center_axis',(0.,1.,0.));
#1976=DIRECTION('ref_axis',(1.,0.,0.));
#1977=DIRECTION('center_axis',(0.,-1.,0.));
#1978=DIRECTION('ref_axis',(1.,0.,0.));
#1979=DIRECTION('',(0.,1.,0.));
#1980=DIRECTION('center_axis',(0.,1.,0.));
#1981=DIRECTION('ref_axis',(1.,0.,0.));
#1982=DIRECTION('',(0.,1.,0.));
#1983=DIRECTION('center_axis',(0.,-1.,0.));
#1984=DIRECTION('ref_axis',(1.,0.,0.));
#1985=DIRECTION('center_axis',(0.,-1.,0.));
#1986=DIRECTION('ref_axis',(1.,0.,0.));
#1987=DIRECTION('',(-1.,0.,0.));
#1988=DIRECTION('center_axis',(0.,-1.,0.));
#1989=DIRECTION('ref_axis',(1.,0.,0.));
#1990=DIRECTION('',(0.,0.,-1.));
#1991=DIRECTION('center_axis',(0.,-1.,0.));
#1992=DIRECTION('ref_axis',(1.,0.,0.));
#1993=DIRECTION('',(1.,0.,0.));
#1994=DIRECTION('center_axis',(0.,-1.,0.));
#1995=DIRECTION('ref_axis',(1.,0.,0.));
#1996=DIRECTION('',(0.,0.,1.));
#1997=DIRECTION('center_axis',(0.,-1.,0.));
#1998=DIRECTION('ref_axis',(1.,0.,0.));
#1999=DIRECTION('',(0.,1.,0.));
#2000=DIRECTION('center_axis',(0.,1.,0.));
#2001=DIRECTION('ref_axis',(1.,0.,0.));
#2002=DIRECTION('',(0.,1.,0.));
#2003=DIRECTION('center_axis',(0.,-1.,0.));
#2004=DIRECTION('ref_axis',(1.,0.,0.));
#2005=DIRECTION('',(0.,1.,0.));
#2006=DIRECTION('center_axis',(0.,1.,0.));
#2007=DIRECTION('ref_axis',(1.,0.,0.));
#2008=DIRECTION('',(0.,1.,0.));
#2009=DIRECTION('center_axis',(0.,-1.,0.));
#2010=DIRECTION('ref_axis',(1.,0.,0.));
#2011=DIRECTION('',(0.,1.,0.));
#2012=DIRECTION('',(0.,1.,0.));
#2013=DIRECTION('center_axis',(0.,1.,0.));
#2014=DIRECTION('ref_axis',(1.,0.,0.));
#2015=DIRECTION('center_axis',(0.,-1.,0.));
#2016=DIRECTION('ref_axis',(1.,0.,0.));
#2017=DIRECTION('',(0.,0.,-1.));
#2018=DIRECTION('',(-1.,0.,0.));
#2019=DIRECTION('',(0.,0.,1.));
#2020=DIRECTION('',(1.,0.,0.));
#2021=DIRECTION('center_axis',(1.,0.,0.));
#2022=DIRECTION('ref_axis',(0.,1.,0.));
#2023=DIRECTION('center_axis',(-1.,0.,0.));
#2024=DIRECTION('ref_axis',(0.,-1.,0.));
#2025=DIRECTION('center_axis',(0.,0.,1.));
#2026=DIRECTION('ref_axis',(0.,-1.,0.));
#2027=DIRECTION('center_axis',(0.,0.,-1.));
#2028=DIRECTION('ref_axis',(0.,1.,0.));
#2029=CARTESIAN_POINT('',(0.,0.,0.));
#2030=CARTESIAN_POINT('Origin',(122.1,10.67,60.));
#2031=CARTESIAN_POINT('',(121.,9.67,60.));
#2032=CARTESIAN_POINT('',(123.2,9.67,60.));
#2033=CARTESIAN_POINT('',(93.7,9.67,60.));
#2034=CARTESIAN_POINT('',(121.,11.67,60.));
#2035=CARTESIAN_POINT('',(121.,10.67,60.));
#2036=CARTESIAN_POINT('',(123.2,11.67,60.));
#2037=CARTESIAN_POINT('',(93.7,11.67,60.));
#2038=CARTESIAN_POINT('',(123.2,10.67,60.));
#2039=CARTESIAN_POINT('Origin',(123.2,10.67,53.));
#2040=CARTESIAN_POINT('',(123.2,9.67,46.));
#2041=CARTESIAN_POINT('',(123.2,9.67,45.3));
#2042=CARTESIAN_POINT('',(123.2,11.67,46.));
#2043=CARTESIAN_POINT('',(123.2,11.67,45.3));
#2044=CARTESIAN_POINT('',(123.2,10.67,46.));
#2045=CARTESIAN_POINT('Origin',(122.1,10.67,46.));
#2046=CARTESIAN_POINT('',(121.,9.67,46.));
#2047=CARTESIAN_POINT('',(93.7,9.67,46.));
#2048=CARTESIAN_POINT('',(121.,11.67,46.));
#2049=CARTESIAN_POINT('',(93.7,11.67,46.));
#2050=CARTESIAN_POINT('',(121.,10.67,46.));
#2051=CARTESIAN_POINT('Origin',(121.,10.67,53.));
#2052=CARTESIAN_POINT('',(121.,9.67,45.3));
#2053=CARTESIAN_POINT('',(121.,11.67,45.3));
#2054=CARTESIAN_POINT('Origin',(118.7,10.67,60.));
#2055=CARTESIAN_POINT('',(117.6,9.67,60.));
#2056=CARTESIAN_POINT('',(119.8,9.67,60.));
#2057=CARTESIAN_POINT('',(92.,9.67,60.));
#2058=CARTESIAN_POINT('',(117.6,11.67,60.));
#2059=CARTESIAN_POINT('',(117.6,10.67,60.));
#2060=CARTESIAN_POINT('',(119.8,11.67,60.));
#2061=CARTESIAN_POINT('',(92.,11.67,60.));
#2062=CARTESIAN_POINT('',(119.8,10.67,60.));
#2063=CARTESIAN_POINT('Origin',(119.8,10.67,53.));
#2064=CARTESIAN_POINT('',(119.8,9.67,46.));
#2065=CARTESIAN_POINT('',(119.8,9.67,45.3));
#2066=CARTESIAN_POINT('',(119.8,11.67,46.));
#2067=CARTESIAN_POINT('',(119.8,11.67,45.3));
#2068=CARTESIAN_POINT('',(119.8,10.67,46.));
#2069=CARTESIAN_POINT('Origin',(118.7,10.67,46.));
#2070=CARTESIAN_POINT('',(117.6,9.67,46.));
#2071=CARTESIAN_POINT('',(92.,9.67,46.));
#2072=CARTESIAN_POINT('',(117.6,11.67,46.));
#2073=CARTESIAN_POINT('',(92.,11.67,46.));
#2074=CARTESIAN_POINT('',(117.6,10.67,46.));
#2075=CARTESIAN_POINT('Origin',(117.6,10.67,53.));
#2076=CARTESIAN_POINT('',(117.6,9.67,45.3));
#2077=CARTESIAN_POINT('',(117.6,11.67,45.3));
#2078=CARTESIAN_POINT('Origin',(115.3,10.67,60.));
#2079=CARTESIAN_POINT('',(114.2,9.67,60.));
#2080=CARTESIAN_POINT('',(116.4,9.67,60.));
#2081=CARTESIAN_POINT('',(90.3,9.67,60.));
#2082=CARTESIAN_POINT('',(114.2,11.67,60.));
#2083=CARTESIAN_POINT('',(114.2,10.67,60.));
#2084=CARTESIAN_POINT('',(116.4,11.67,60.));
#2085=CARTESIAN_POINT('',(90.3,11.67,60.));
#2086=CARTESIAN_POINT('',(116.4,10.67,60.));
#2087=CARTESIAN_POINT('Origin',(116.4,10.67,53.));
#2088=CARTESIAN_POINT('',(116.4,9.67,46.));
#2089=CARTESIAN_POINT('',(116.4,9.67,45.3));
#2090=CARTESIAN_POINT('',(116.4,11.67,46.));
#2091=CARTESIAN_POINT('',(116.4,11.67,45.3));
#2092=CARTESIAN_POINT('',(116.4,10.67,46.));
#2093=CARTESIAN_POINT('Origin',(115.3,10.67,46.));
#2094=CARTESIAN_POINT('',(114.2,9.67,46.));
#2095=CARTESIAN_POINT('',(90.3,9.67,46.));
#2096=CARTESIAN_POINT('',(114.2,11.67,46.));
#2097=CARTESIAN_POINT('',(90.3,11.67,46.));
#2098=CARTESIAN_POINT('',(114.2,10.67,46.));
#2099=CARTESIAN_POINT('Origin',(114.2,10.67,53.));
#2100=CARTESIAN_POINT('',(114.2,9.67,45.3));
#2101=CARTESIAN_POINT('',(114.2,11.67,45.3));
#2102=CARTESIAN_POINT('Origin',(111.9,10.67,60.));
#2103=CARTESIAN_POINT('',(110.8,9.67,60.));
#2104=CARTESIAN_POINT('',(113.,9.67,60.));
#2105=CARTESIAN_POINT('',(88.6,9.67,60.));
#2106=CARTESIAN_POINT('',(110.8,11.67,60.));
#2107=CARTESIAN_POINT('',(110.8,10.67,60.));
#2108=CARTESIAN_POINT('',(113.,11.67,60.));
#2109=CARTESIAN_POINT('',(88.6,11.67,60.));
#2110=CARTESIAN_POINT('',(113.,10.67,60.));
#2111=CARTESIAN_POINT('Origin',(113.,10.67,53.));
#2112=CARTESIAN_POINT('',(113.,9.67,46.));
#2113=CARTESIAN_POINT('',(113.,9.67,45.3));
#2114=CARTESIAN_POINT('',(113.,11.67,46.));
#2115=CARTESIAN_POINT('',(113.,11.67,45.3));
#2116=CARTESIAN_POINT('',(113.,10.67,46.));
#2117=CARTESIAN_POINT('Origin',(111.9,10.67,46.));
#2118=CARTESIAN_POINT('',(110.8,9.67,46.));
#2119=CARTESIAN_POINT('',(88.6,9.67,46.));
#2120=CARTESIAN_POINT('',(110.8,11.67,46.));
#2121=CARTESIAN_POINT('',(88.6,11.67,46.));
#2122=CARTESIAN_POINT('',(110.8,10.67,46.));
#2123=CARTESIAN_POINT('Origin',(110.8,10.67,53.));
#2124=CARTESIAN_POINT('',(110.8,9.67,45.3));
#2125=CARTESIAN_POINT('',(110.8,11.67,45.3));
#2126=CARTESIAN_POINT('Origin',(108.5,10.67,60.));
#2127=CARTESIAN_POINT('',(107.4,9.67,60.));
#2128=CARTESIAN_POINT('',(109.6,9.67,60.));
#2129=CARTESIAN_POINT('',(86.9,9.67,60.));
#2130=CARTESIAN_POINT('',(107.4,11.67,60.));
#2131=CARTESIAN_POINT('',(107.4,10.67,60.));
#2132=CARTESIAN_POINT('',(109.6,11.67,60.));
#2133=CARTESIAN_POINT('',(86.9,11.67,60.));
#2134=CARTESIAN_POINT('',(109.6,10.67,60.));
#2135=CARTESIAN_POINT('Origin',(109.6,10.67,53.));
#2136=CARTESIAN_POINT('',(109.6,9.67,46.));
#2137=CARTESIAN_POINT('',(109.6,9.67,45.3));
#2138=CARTESIAN_POINT('',(109.6,11.67,46.));
#2139=CARTESIAN_POINT('',(109.6,11.67,45.3));
#2140=CARTESIAN_POINT('',(109.6,10.67,46.));
#2141=CARTESIAN_POINT('Origin',(108.5,10.67,46.));
#2142=CARTESIAN_POINT('',(107.4,9.67,46.));
#2143=CARTESIAN_POINT('',(86.9,9.67,46.));
#2144=CARTESIAN_POINT('',(107.4,11.67,46.));
#2145=CARTESIAN_POINT('',(86.9,11.67,46.));
#2146=CARTESIAN_POINT('',(107.4,10.67,46.));
#2147=CARTESIAN_POINT('Origin',(107.4,10.67,53.));
#2148=CARTESIAN_POINT('',(107.4,9.67,45.3));
#2149=CARTESIAN_POINT('',(107.4,11.67,45.3));
#2150=CARTESIAN_POINT('Origin',(105.1,10.67,60.));
#2151=CARTESIAN_POINT('',(104.,9.67,60.));
#2152=CARTESIAN_POINT('',(106.2,9.67,60.));
#2153=CARTESIAN_POINT('',(85.2,9.67,60.));
#2154=CARTESIAN_POINT('',(104.,11.67,60.));
#2155=CARTESIAN_POINT('',(104.,10.67,60.));
#2156=CARTESIAN_POINT('',(106.2,11.67,60.));
#2157=CARTESIAN_POINT('',(85.2,11.67,60.));
#2158=CARTESIAN_POINT('',(106.2,10.67,60.));
#2159=CARTESIAN_POINT('Origin',(106.2,10.67,53.));
#2160=CARTESIAN_POINT('',(106.2,9.67,46.));
#2161=CARTESIAN_POINT('',(106.2,9.67,45.3));
#2162=CARTESIAN_POINT('',(106.2,11.67,46.));
#2163=CARTESIAN_POINT('',(106.2,11.67,45.3));
#2164=CARTESIAN_POINT('',(106.2,10.67,46.));
#2165=CARTESIAN_POINT('Origin',(105.1,10.67,46.));
#2166=CARTESIAN_POINT('',(104.,9.67,46.));
#2167=CARTESIAN_POINT('',(85.2,9.67,46.));
#2168=CARTESIAN_POINT('',(104.,11.67,46.));
#2169=CARTESIAN_POINT('',(85.2,11.67,46.));
#2170=CARTESIAN_POINT('',(104.,10.67,46.));
#2171=CARTESIAN_POINT('Origin',(104.,10.67,53.));
#2172=CARTESIAN_POINT('',(104.,9.67,45.3));
#2173=CARTESIAN_POINT('',(104.,11.67,45.3));
#2174=CARTESIAN_POINT('Origin',(122.1,10.67,40.));
#2175=CARTESIAN_POINT('',(121.,9.67,40.));
#2176=CARTESIAN_POINT('',(123.2,9.67,40.));
#2177=CARTESIAN_POINT('',(93.7,9.67,40.));
#2178=CARTESIAN_POINT('',(121.,11.67,40.));
#2179=CARTESIAN_POINT('',(121.,10.67,40.));
#2180=CARTESIAN_POINT('',(123.2,11.67,40.));
#2181=CARTESIAN_POINT('',(93.7,11.67,40.));
#2182=CARTESIAN_POINT('',(123.2,10.67,40.));
#2183=CARTESIAN_POINT('Origin',(123.2,10.67,32.));
#2184=CARTESIAN_POINT('',(123.2,9.67,24.));
#2185=CARTESIAN_POINT('',(123.2,9.67,34.8));
#2186=CARTESIAN_POINT('',(123.2,11.67,24.));
#2187=CARTESIAN_POINT('',(123.2,11.67,34.8));
#2188=CARTESIAN_POINT('',(123.2,10.67,24.));
#2189=CARTESIAN_POINT('Origin',(122.1,10.67,24.));
#2190=CARTESIAN_POINT('',(121.,9.67,24.));
#2191=CARTESIAN_POINT('',(93.7,9.67,24.));
#2192=CARTESIAN_POINT('',(121.,11.67,24.));
#2193=CARTESIAN_POINT('',(93.7,11.67,24.));
#2194=CARTESIAN_POINT('',(121.,10.67,24.));
#2195=CARTESIAN_POINT('Origin',(121.,10.67,32.));
#2196=CARTESIAN_POINT('',(121.,9.67,34.8));
#2197=CARTESIAN_POINT('',(121.,11.67,34.8));
#2198=CARTESIAN_POINT('Origin',(118.7,10.67,40.));
#2199=CARTESIAN_POINT('',(117.6,9.67,40.));
#2200=CARTESIAN_POINT('',(119.8,9.67,40.));
#2201=CARTESIAN_POINT('',(92.,9.67,40.));
#2202=CARTESIAN_POINT('',(117.6,11.67,40.));
#2203=CARTESIAN_POINT('',(117.6,10.67,40.));
#2204=CARTESIAN_POINT('',(119.8,11.67,40.));
#2205=CARTESIAN_POINT('',(92.,11.67,40.));
#2206=CARTESIAN_POINT('',(119.8,10.67,40.));
#2207=CARTESIAN_POINT('Origin',(119.8,10.67,32.));
#2208=CARTESIAN_POINT('',(119.8,9.67,24.));
#2209=CARTESIAN_POINT('',(119.8,9.67,34.8));
#2210=CARTESIAN_POINT('',(119.8,11.67,24.));
#2211=CARTESIAN_POINT('',(119.8,11.67,34.8));
#2212=CARTESIAN_POINT('',(119.8,10.67,24.));
#2213=CARTESIAN_POINT('Origin',(118.7,10.67,24.));
#2214=CARTESIAN_POINT('',(117.6,9.67,24.));
#2215=CARTESIAN_POINT('',(92.,9.67,24.));
#2216=CARTESIAN_POINT('',(117.6,11.67,24.));
#2217=CARTESIAN_POINT('',(92.,11.67,24.));
#2218=CARTESIAN_POINT('',(117.6,10.67,24.));
#2219=CARTESIAN_POINT('Origin',(117.6,10.67,32.));
#2220=CARTESIAN_POINT('',(117.6,9.67,34.8));
#2221=CARTESIAN_POINT('',(117.6,11.67,34.8));
#2222=CARTESIAN_POINT('Origin',(115.3,10.67,40.));
#2223=CARTESIAN_POINT('',(114.2,9.67,40.));
#2224=CARTESIAN_POINT('',(116.4,9.67,40.));
#2225=CARTESIAN_POINT('',(90.3,9.67,40.));
#2226=CARTESIAN_POINT('',(114.2,11.67,40.));
#2227=CARTESIAN_POINT('',(114.2,10.67,40.));
#2228=CARTESIAN_POINT('',(116.4,11.67,40.));
#2229=CARTESIAN_POINT('',(90.3,11.67,40.));
#2230=CARTESIAN_POINT('',(116.4,10.67,40.));
#2231=CARTESIAN_POINT('Origin',(116.4,10.67,32.));
#2232=CARTESIAN_POINT('',(116.4,9.67,24.));
#2233=CARTESIAN_POINT('',(116.4,9.67,34.8));
#2234=CARTESIAN_POINT('',(116.4,11.67,24.));
#2235=CARTESIAN_POINT('',(116.4,11.67,34.8));
#2236=CARTESIAN_POINT('',(116.4,10.67,24.));
#2237=CARTESIAN_POINT('Origin',(115.3,10.67,24.));
#2238=CARTESIAN_POINT('',(114.2,9.67,24.));
#2239=CARTESIAN_POINT('',(90.3,9.67,24.));
#2240=CARTESIAN_POINT('',(114.2,11.67,24.));
#2241=CARTESIAN_POINT('',(90.3,11.67,24.));
#2242=CARTESIAN_POINT('',(114.2,10.67,24.));
#2243=CARTESIAN_POINT('Origin',(114.2,10.67,32.));
#2244=CARTESIAN_POINT('',(114.2,9.67,34.8));
#2245=CARTESIAN_POINT('',(114.2,11.67,34.8));
#2246=CARTESIAN_POINT('Origin',(111.9,10.67,40.));
#2247=CARTESIAN_POINT('',(110.8,9.67,40.));
#2248=CARTESIAN_POINT('',(113.,9.67,40.));
#2249=CARTESIAN_POINT('',(88.6,9.67,40.));
#2250=CARTESIAN_POINT('',(110.8,11.67,40.));
#2251=CARTESIAN_POINT('',(110.8,10.67,40.));
#2252=CARTESIAN_POINT('',(113.,11.67,40.));
#2253=CARTESIAN_POINT('',(88.6,11.67,40.));
#2254=CARTESIAN_POINT('',(113.,10.67,40.));
#2255=CARTESIAN_POINT('Origin',(113.,10.67,32.));
#2256=CARTESIAN_POINT('',(113.,9.67,24.));
#2257=CARTESIAN_POINT('',(113.,9.67,34.8));
#2258=CARTESIAN_POINT('',(113.,11.67,24.));
#2259=CARTESIAN_POINT('',(113.,11.67,34.8));
#2260=CARTESIAN_POINT('',(113.,10.67,24.));
#2261=CARTESIAN_POINT('Origin',(111.9,10.67,24.));
#2262=CARTESIAN_POINT('',(110.8,9.67,24.));
#2263=CARTESIAN_POINT('',(88.6,9.67,24.));
#2264=CARTESIAN_POINT('',(110.8,11.67,24.));
#2265=CARTESIAN_POINT('',(88.6,11.67,24.));
#2266=CARTESIAN_POINT('',(110.8,10.67,24.));
#2267=CARTESIAN_POINT('Origin',(110.8,10.67,32.));
#2268=CARTESIAN_POINT('',(110.8,9.67,34.8));
#2269=CARTESIAN_POINT('',(110.8,11.67,34.8));
#2270=CARTESIAN_POINT('Origin',(108.5,10.67,40.));
#2271=CARTESIAN_POINT('',(107.4,9.67,40.));
#2272=CARTESIAN_POINT('',(109.6,9.67,40.));
#2273=CARTESIAN_POINT('',(86.9,9.67,40.));
#2274=CARTESIAN_POINT('',(107.4,11.67,40.));
#2275=CARTESIAN_POINT('',(107.4,10.67,40.));
#2276=CARTESIAN_POINT('',(109.6,11.67,40.));
#2277=CARTESIAN_POINT('',(86.9,11.67,40.));
#2278=CARTESIAN_POINT('',(109.6,10.67,40.));
#2279=CARTESIAN_POINT('Origin',(109.6,10.67,32.));
#2280=CARTESIAN_POINT('',(109.6,9.67,24.));
#2281=CARTESIAN_POINT('',(109.6,9.67,34.8));
#2282=CARTESIAN_POINT('',(109.6,11.67,24.));
#2283=CARTESIAN_POINT('',(109.6,11.67,34.8));
#2284=CARTESIAN_POINT('',(109.6,10.67,24.));
#2285=CARTESIAN_POINT('Origin',(108.5,10.67,24.));
#2286=CARTESIAN_POINT('',(107.4,9.67,24.));
#2287=CARTESIAN_POINT('',(86.9,9.67,24.));
#2288=CARTESIAN_POINT('',(107.4,11.67,24.));
#2289=CARTESIAN_POINT('',(86.9,11.67,24.));
#2290=CARTESIAN_POINT('',(107.4,10.67,24.));
#2291=CARTESIAN_POINT('Origin',(107.4,10.67,32.));
#2292=CARTESIAN_POINT('',(107.4,9.67,34.8));
#2293=CARTESIAN_POINT('',(107.4,11.67,34.8));
#2294=CARTESIAN_POINT('Origin',(105.1,10.67,40.));
#2295=CARTESIAN_POINT('',(104.,9.67,40.));
#2296=CARTESIAN_POINT('',(106.2,9.67,40.));
#2297=CARTESIAN_POINT('',(85.2,9.67,40.));
#2298=CARTESIAN_POINT('',(104.,11.67,40.));
#2299=CARTESIAN_POINT('',(104.,10.67,40.));
#2300=CARTESIAN_POINT('',(106.2,11.67,40.));
#2301=CARTESIAN_POINT('',(85.2,11.67,40.));
#2302=CARTESIAN_POINT('',(106.2,10.67,40.));
#2303=CARTESIAN_POINT('Origin',(106.2,10.67,32.));
#2304=CARTESIAN_POINT('',(106.2,9.67,24.));
#2305=CARTESIAN_POINT('',(106.2,9.67,34.8));
#2306=CARTESIAN_POINT('',(106.2,11.67,24.));
#2307=CARTESIAN_POINT('',(106.2,11.67,34.8));
#2308=CARTESIAN_POINT('',(106.2,10.67,24.));
#2309=CARTESIAN_POINT('Origin',(105.1,10.67,24.));
#2310=CARTESIAN_POINT('',(104.,9.67,24.));
#2311=CARTESIAN_POINT('',(85.2,9.67,24.));
#2312=CARTESIAN_POINT('',(104.,11.67,24.));
#2313=CARTESIAN_POINT('',(85.2,11.67,24.));
#2314=CARTESIAN_POINT('',(104.,10.67,24.));
#2315=CARTESIAN_POINT('Origin',(104.,10.67,32.));
#2316=CARTESIAN_POINT('',(104.,9.67,34.8));
#2317=CARTESIAN_POINT('',(104.,11.67,34.8));
#2318=CARTESIAN_POINT('Origin',(127.19,10.67,71.83));
#2319=CARTESIAN_POINT('',(125.49,11.67,71.83));
#2320=CARTESIAN_POINT('Origin',(127.19,11.67,71.83));
#2321=CARTESIAN_POINT('',(125.49,9.67,71.83));
#2322=CARTESIAN_POINT('',(125.49,10.67,71.83));
#2323=CARTESIAN_POINT('Origin',(127.19,9.67,71.83));
#2324=CARTESIAN_POINT('Origin',(3.4,10.67,71.83));
#2325=CARTESIAN_POINT('',(1.7,11.67,71.83));
#2326=CARTESIAN_POINT('Origin',(3.4,11.67,71.83));
#2327=CARTESIAN_POINT('',(1.7,9.67,71.83));
#2328=CARTESIAN_POINT('',(1.7,10.67,71.83));
#2329=CARTESIAN_POINT('Origin',(3.4,9.67,71.83));
#2330=CARTESIAN_POINT('Origin',(127.19,10.67,3.4));
#2331=CARTESIAN_POINT('',(125.49,11.67,3.4));
#2332=CARTESIAN_POINT('Origin',(127.19,11.67,3.4));
#2333=CARTESIAN_POINT('',(125.49,9.67,3.4));
#2334=CARTESIAN_POINT('',(125.49,10.67,3.4));
#2335=CARTESIAN_POINT('Origin',(127.19,9.67,3.4));
#2336=CARTESIAN_POINT('Origin',(3.4,10.67,3.4));
#2337=CARTESIAN_POINT('',(1.7,11.67,3.4));
#2338=CARTESIAN_POINT('Origin',(3.4,11.67,3.4));
#2339=CARTESIAN_POINT('',(1.7,9.67,3.4));
#2340=CARTESIAN_POINT('',(1.7,10.67,3.4));
#2341=CARTESIAN_POINT('Origin',(3.4,9.67,3.4));
#2342=CARTESIAN_POINT('Origin',(119.,11.77,73.2));
#2343=CARTESIAN_POINT('',(116.4,11.67,73.2));
#2344=CARTESIAN_POINT('Origin',(119.,11.67,73.2));
#2345=CARTESIAN_POINT('',(116.4,10.87,73.2));
#2346=CARTESIAN_POINT('',(116.4,11.77,73.2));
#2347=CARTESIAN_POINT('Origin',(119.,10.87,73.2));
#2348=CARTESIAN_POINT('Origin',(119.,10.87,73.2));
#2349=CARTESIAN_POINT('',(117.55,10.87,73.2));
#2350=CARTESIAN_POINT('Origin',(119.,10.87,73.2));
#2351=CARTESIAN_POINT('Origin',(119.,10.67,73.2));
#2352=CARTESIAN_POINT('',(117.55,9.67,73.2));
#2353=CARTESIAN_POINT('',(117.55,10.67,73.2));
#2354=CARTESIAN_POINT('Origin',(119.,9.67,73.2));
#2355=CARTESIAN_POINT('Origin',(12.,11.77,73.2));
#2356=CARTESIAN_POINT('',(9.4,11.67,73.2));
#2357=CARTESIAN_POINT('Origin',(12.,11.67,73.2));
#2358=CARTESIAN_POINT('',(9.4,10.87,73.2));
#2359=CARTESIAN_POINT('',(9.4,11.77,73.2));
#2360=CARTESIAN_POINT('Origin',(12.,10.87,73.2));
#2361=CARTESIAN_POINT('Origin',(12.,10.87,73.2));
#2362=CARTESIAN_POINT('',(10.55,10.87,73.2));
#2363=CARTESIAN_POINT('Origin',(12.,10.87,73.2));
#2364=CARTESIAN_POINT('Origin',(12.,10.67,73.2));
#2365=CARTESIAN_POINT('',(10.55,9.67,73.2));
#2366=CARTESIAN_POINT('',(10.55,10.67,73.2));
#2367=CARTESIAN_POINT('Origin',(12.,9.67,73.2));
#2368=CARTESIAN_POINT('Origin',(118.,11.77,2.));
#2369=CARTESIAN_POINT('',(115.4,11.67,2.));
#2370=CARTESIAN_POINT('Origin',(118.,11.67,2.));
#2371=CARTESIAN_POINT('',(115.4,10.87,2.));
#2372=CARTESIAN_POINT('',(115.4,11.77,2.));
#2373=CARTESIAN_POINT('Origin',(118.,10.87,2.));
#2374=CARTESIAN_POINT('Origin',(118.,10.87,2.));
#2375=CARTESIAN_POINT('',(116.55,10.87,2.));
#2376=CARTESIAN_POINT('Origin',(118.,10.87,2.));
#2377=CARTESIAN_POINT('Origin',(118.,10.67,2.));
#2378=CARTESIAN_POINT('',(116.55,9.67,2.));
#2379=CARTESIAN_POINT('',(116.55,10.67,2.));
#2380=CARTESIAN_POINT('Origin',(118.,9.67,2.));
#2381=CARTESIAN_POINT('Origin',(24.,11.77,2.));
#2382=CARTESIAN_POINT('',(21.4,11.67,2.));
#2383=CARTESIAN_POINT('Origin',(24.,11.67,2.));
#2384=CARTESIAN_POINT('',(21.4,10.87,2.));
#2385=CARTESIAN_POINT('',(21.4,11.77,2.));
#2386=CARTESIAN_POINT('Origin',(24.,10.87,2.));
#2387=CARTESIAN_POINT('Origin',(24.,10.87,2.));
#2388=CARTESIAN_POINT('',(22.55,10.87,2.));
#2389=CARTESIAN_POINT('Origin',(24.,10.87,2.));
#2390=CARTESIAN_POINT('Origin',(24.,10.67,2.));
#2391=CARTESIAN_POINT('',(22.55,9.67,2.));
#2392=CARTESIAN_POINT('',(22.55,10.67,2.));
#2393=CARTESIAN_POINT('Origin',(24.,9.67,2.));
#2394=CARTESIAN_POINT('Origin',(128.6,10.67,73.2));
#2395=CARTESIAN_POINT('',(131.4,9.67,73.2));
#2396=CARTESIAN_POINT('',(131.4,11.67,73.2));
#2397=CARTESIAN_POINT('',(131.4,10.67,73.2));
#2398=CARTESIAN_POINT('',(128.6,11.67,76.));
#2399=CARTESIAN_POINT('Origin',(128.6,11.67,73.2));
#2400=CARTESIAN_POINT('',(128.6,9.67,76.));
#2401=CARTESIAN_POINT('',(128.6,10.67,76.));
#2402=CARTESIAN_POINT('Origin',(128.6,9.67,73.2));
#2403=CARTESIAN_POINT('Origin',(65.3,9.67,37.6));
#2404=CARTESIAN_POINT('',(2.,9.67,76.));
#2405=CARTESIAN_POINT('',(65.3,9.67,76.));
#2406=CARTESIAN_POINT('',(-0.80000000000001,9.67,73.2));
#2407=CARTESIAN_POINT('Origin',(2.,9.67,73.2));
#2408=CARTESIAN_POINT('',(-0.80000000000001,9.67,2.));
#2409=CARTESIAN_POINT('',(-0.80000000000001,9.67,37.6));
#2410=CARTESIAN_POINT('',(2.,9.67,-0.799999999999996));
#2411=CARTESIAN_POINT('Origin',(2.,9.67,2.));
#2412=CARTESIAN_POINT('',(128.6,9.67,-0.799999999999996));
#2413=CARTESIAN_POINT('',(65.3,9.67,-0.799999999999996));
#2414=CARTESIAN_POINT('',(131.4,9.67,2.));
#2415=CARTESIAN_POINT('Origin',(128.6,9.67,2.));
#2416=CARTESIAN_POINT('',(131.4,9.67,37.6));
#2417=CARTESIAN_POINT('Origin',(2.,10.67,73.2));
#2418=CARTESIAN_POINT('',(2.,11.67,76.));
#2419=CARTESIAN_POINT('',(2.,10.67,76.));
#2420=CARTESIAN_POINT('',(-0.80000000000001,11.67,73.2));
#2421=CARTESIAN_POINT('Origin',(2.,11.67,73.2));
#2422=CARTESIAN_POINT('',(-0.80000000000001,10.67,73.2));
#2423=CARTESIAN_POINT('Origin',(128.6,10.67,2.));
#2424=CARTESIAN_POINT('',(128.6,11.67,-0.799999999999996));
#2425=CARTESIAN_POINT('',(128.6,10.67,-0.799999999999996));
#2426=CARTESIAN_POINT('',(131.4,11.67,2.));
#2427=CARTESIAN_POINT('Origin',(128.6,11.67,2.));
#2428=CARTESIAN_POINT('',(131.4,10.67,2.));
#2429=CARTESIAN_POINT('Origin',(2.,10.67,2.));
#2430=CARTESIAN_POINT('',(2.,11.67,-0.799999999999996));
#2431=CARTESIAN_POINT('',(2.,10.67,-0.799999999999996));
#2432=CARTESIAN_POINT('',(-0.80000000000001,11.67,2.));
#2433=CARTESIAN_POINT('',(-0.80000000000001,10.67,2.));
#2434=CARTESIAN_POINT('Origin',(2.,11.67,2.));
#2435=CARTESIAN_POINT('Origin',(65.3,11.67,37.6));
#2436=CARTESIAN_POINT('',(131.4,11.67,37.6));
#2437=CARTESIAN_POINT('',(65.3,11.67,-0.799999999999996));
#2438=CARTESIAN_POINT('',(-0.80000000000001,11.67,37.6));
#2439=CARTESIAN_POINT('',(65.3,11.67,76.));
#2440=CARTESIAN_POINT('Origin',(-0.80000000000001,10.67,37.6));
#2441=CARTESIAN_POINT('Origin',(131.4,10.67,37.6));
#2442=CARTESIAN_POINT('Origin',(65.3,10.67,-0.799999999999996));
#2443=CARTESIAN_POINT('Origin',(65.3,10.67,76.));
#2444=UNCERTAINTY_MEASURE_WITH_UNIT(LENGTH_MEASURE(0.01),#2448,
'DISTANCE_ACCURACY_VALUE',
'Maximum model space distance between geometric entities at asserted c
onnectivities');
#2445=UNCERTAINTY_MEASURE_WITH_UNIT(LENGTH_MEASURE(0.01),#2448,
'DISTANCE_ACCURACY_VALUE',
'Maximum model space distance between geometric entities at asserted c
onnectivities');
#2446=(
GEOMETRIC_REPRESENTATION_CONTEXT(3)
GLOBAL_UNCERTAINTY_ASSIGNED_CONTEXT((#2444))
GLOBAL_UNIT_ASSIGNED_CONTEXT((#2448,#2450,#2451))
REPRESENTATION_CONTEXT('','3D')
);
#2447=(
GEOMETRIC_REPRESENTATION_CONTEXT(3)
GLOBAL_UNCERTAINTY_ASSIGNED_CONTEXT((#2445))
GLOBAL_UNIT_ASSIGNED_CONTEXT((#2448,#2450,#2451))
REPRESENTATION_CONTEXT('','3D')
);
#2448=(
LENGTH_UNIT()
NAMED_UNIT(*)
SI_UNIT(.MILLI.,.METRE.)
);
#2449=(
LENGTH_UNIT()
NAMED_UNIT(*)
SI_UNIT($,.METRE.)
);
#2450=(
NAMED_UNIT(*)
PLANE_ANGLE_UNIT()
SI_UNIT($,.RADIAN.)
);
#2451=(
NAMED_UNIT(*)
SI_UNIT($,.STERADIAN.)
SOLID_ANGLE_UNIT()
);
#2452=SHAPE_DEFINITION_REPRESENTATION(#2453,#2454);
#2453=PRODUCT_DEFINITION_SHAPE('',$,#2456);
#2454=SHAPE_REPRESENTATION('',(#1536),#2446);
#2455=PRODUCT_DEFINITION_CONTEXT('part definition',#2460,'design');
#2456=PRODUCT_DEFINITION('_export_step_head-back-cover',
'_export_step_head-back-cover',#2457,#2455);
#2457=PRODUCT_DEFINITION_FORMATION('',$,#2462);
#2458=PRODUCT_RELATED_PRODUCT_CATEGORY('_export_step_head-back-cover',
'_export_step_head-back-cover',(#2462));
#2459=APPLICATION_PROTOCOL_DEFINITION('international standard',
'automotive_design',2009,#2460);
#2460=APPLICATION_CONTEXT(
'Core Data for Automotive Mechanical Design Process');
#2461=PRODUCT_CONTEXT('part definition',#2460,'mechanical');
#2462=PRODUCT('_export_step_head-back-cover',
'_export_step_head-back-cover',$,(#2461));
#2463=PRESENTATION_STYLE_ASSIGNMENT((#2464));
#2464=SURFACE_STYLE_USAGE(.BOTH.,#2465);
#2465=SURFACE_SIDE_STYLE('',(#2466));
#2466=SURFACE_STYLE_FILL_AREA(#2467);
#2467=FILL_AREA_STYLE('Steel - Satin',(#2468));
#2468=FILL_AREA_STYLE_COLOUR('Steel - Satin',#2469);
#2469=COLOUR_RGB('Steel - Satin',0.627450980392157,0.627450980392157,0.627450980392157);
ENDSEC;
END-ISO-10303-21;
